<svg width="24" height="25" fill="none" xmlns="http://www.w3.org/2000/svg"><path d="M19.665 17.293a10.315 10.315 0 0 1-1.02 1.837c-.538.767-.979 1.297-1.317 1.592-.525.482-1.089.73-1.692.744-.432 0-.954-.123-1.562-.373-.61-.249-1.17-.37-1.683-.37-.537 0-1.113.121-1.73.37-.616.25-1.114.381-1.495.393-.577.025-1.154-.229-1.729-.764-.367-.32-.826-.87-1.377-1.648-.59-.829-1.075-1.794-1.455-2.89-.407-1.188-.61-2.336-.61-3.448 0-1.273.274-2.372.825-3.292a4.857 4.857 0 0 1 1.73-1.75 4.65 4.65 0 0 1 2.34-.663c.46 0 1.063.142 1.81.422.747.28 1.227.422 1.436.422.158 0 .69-.167 1.593-.498.853-.307 1.573-.434 2.163-.384 1.6.13 2.801.76 3.6 1.895-1.43.867-2.137 2.08-2.123 3.637.012 1.213.453 2.222 1.317 3.023.382.366.828.658 1.315.863-.106.307-.218.6-.336.882zm-3.667-14.43c0 .95-.348 1.837-1.039 2.658-.836.976-1.846 1.541-2.94 1.452a2.967 2.967 0 0 1-.022-.36c0-.913.396-1.889 1.103-2.688.352-.404.8-.74 1.343-1.009.542-.264 1.054-.41 1.536-.435.013.128.02.255.02.381z" fill="#05F"/></svg>