<svg width="349" height="337" viewBox="0 0 349 337" fill="none" xmlns="http://www.w3.org/2000/svg">
<g filter="url(#filter0_dd_946_118)">
<path d="M305.643 90.3533C337.538 145.596 334.313 207.169 298.441 227.879C262.569 248.59 207.634 220.596 175.739 165.353C143.845 110.11 147.069 48.538 182.941 27.8274C218.813 7.11667 273.749 35.1105 305.643 90.3533Z" fill="#F0F0F3"/>
</g>
<g clip-path="url(#clip0_946_118)">
<path d="M243.973 162.391L248.147 171.297C248.608 172.28 249.863 173.078 250.949 173.078H258.818C259.339 173.078 259.752 172.891 259.964 172.557C260.177 172.223 260.171 171.77 259.95 171.297L255.776 162.391H259.71L263.884 171.297C264.345 172.28 265.6 173.078 266.686 173.078H274.555C275.077 173.078 275.489 172.891 275.701 172.557C275.914 172.223 275.909 171.77 275.687 171.297L271.513 162.391H272.174C287.849 162.391 295.604 155.031 289.637 142.298C284.622 131.597 273.957 125.747 264.289 124.913L263.995 124.286C270.82 122.562 273.986 117.347 269.925 108.683C264.81 97.7672 252.656 91.1409 238.846 91.1409H238.122L233.948 82.2347C233.727 81.7623 233.307 81.3092 232.782 80.9751C232.257 80.6411 231.668 80.4534 231.146 80.4534H223.278C222.756 80.4534 222.344 80.6411 222.131 80.9751C221.919 81.3092 221.924 81.7623 222.145 82.2347L226.319 91.1409H221.811L217.637 82.2347C217.415 81.7623 216.996 81.3092 216.47 80.9751C215.945 80.6411 215.357 80.4534 214.835 80.4534H207.541C207.019 80.4534 206.606 80.6411 206.394 80.9751C206.182 81.3092 206.187 81.7623 206.408 82.2347L210.582 91.1409L194.897 91.2193C194.376 91.2193 193.963 91.407 193.751 91.741C193.538 92.0751 193.544 92.5281 193.765 93.0006L197.067 100.047C197.525 101.023 198.768 101.828 199.854 101.828L205.778 101.793C207.34 101.802 209.097 102.369 210.665 103.37C212.232 104.372 213.483 105.725 214.144 107.137L232.526 146.36C233.19 147.777 233.205 149.136 232.568 150.138C231.931 151.14 230.694 151.703 229.129 151.703L223.28 151.782C222.758 151.782 222.346 151.969 222.133 152.304C221.921 152.638 221.926 153.091 222.147 153.563L225.486 160.688C225.947 161.671 227.203 162.469 228.288 162.469L243.973 162.391ZM226.776 101.736H240.302C247.431 101.736 253.28 105.284 255.998 111.084C258.906 117.29 256.021 120.788 245.777 120.788H235.705L226.776 101.736V101.736ZM240.303 130.599H254.781C263.728 130.599 270.535 134.732 273.687 141.458C276.869 148.248 273.603 151.789 261.548 151.789H250.233L240.306 130.606L240.303 130.599Z" fill="url(#paint0_linear_946_118)"/>
</g>
<g filter="url(#filter1_dd_946_118)">
<path d="M35.518 220.26C14.4338 256.779 16.5654 297.482 40.2789 311.173C63.9925 324.865 100.308 306.359 121.392 269.84C142.477 233.321 140.345 192.618 116.632 178.927C92.918 165.236 56.6022 183.742 35.518 220.26Z" fill="#F0F0F3"/>
</g>
<g clip-path="url(#clip1_946_118)">
<path d="M58.3827 241.499C58.3248 241.65 58.0121 242.229 57.6762 242.808C56.9464 244.071 54.375 248.507 53.8537 249.41C51.873 252.874 51.3402 253.777 51.0738 254.217C50.8884 254.507 50.622 254.97 50.4598 255.26C50.3093 255.549 50.0776 255.966 49.9502 256.187C48.4791 258.7 47.9463 259.685 48.0042 259.777C48.0853 259.916 75.5142 259.939 75.5142 259.8C75.5142 259.754 75.2594 259.546 74.9582 259.337C72.1435 257.356 66.5952 251.947 63.989 248.623C63.8037 248.379 63.4909 247.986 63.294 247.742C61.9156 246.005 60.8615 244.534 59.5063 242.484C59.0546 241.8 58.6376 241.244 58.5796 241.244C58.5217 241.244 58.4406 241.36 58.3827 241.499Z" fill="url(#paint1_linear_946_118)"/>
<path d="M58.8064 217.101C58.7716 217.205 59.2697 218.12 61.0998 221.283C61.2272 221.491 61.4242 221.85 61.5516 222.07C62.1307 223.078 62.235 223.263 62.5825 223.842C62.7794 224.178 62.9416 224.48 62.9416 224.514C62.9416 224.549 63.0458 224.734 63.1732 224.908C63.3006 225.093 63.5555 225.51 63.7408 225.858C64.1925 226.703 64.5748 227.375 64.679 227.514C64.8296 227.7 65.9763 229.68 66.2196 230.178C66.347 230.433 66.5439 230.769 66.6482 230.931C66.764 231.094 67.0304 231.545 67.2389 231.916C67.4474 232.298 67.6443 232.634 67.6791 232.669C67.7138 232.704 67.8296 232.877 67.9223 233.074C68.015 233.26 68.4436 233.989 68.8837 234.696C69.3239 235.391 69.7409 236.074 69.8104 236.202C69.8914 236.318 70.1463 236.7 70.3895 237.036C70.6212 237.372 70.8181 237.673 70.8181 237.696C70.8181 237.731 70.9919 237.985 71.2003 238.263C71.3973 238.541 71.6753 238.912 71.8027 239.086C72.4861 240.059 73.8297 241.75 74.6174 242.665C75.1039 243.233 75.6135 243.823 75.7409 243.986C76.378 244.762 78.9147 247.322 80.2005 248.468C82.436 250.461 83.4901 251.295 85.7025 252.777C87.1967 253.785 88.077 254.318 89.2585 254.955C91.1234 255.951 91.6099 256.183 91.8068 256.183C91.9226 256.183 92.0153 256.229 92.0153 256.298C92.0153 256.356 92.108 256.414 92.2122 256.414C92.3165 256.414 92.4902 256.484 92.5829 256.576C92.6871 256.658 93.0578 256.82 93.4053 256.947C93.7528 257.063 94.0887 257.202 94.1466 257.248C94.2161 257.295 94.3783 257.341 94.5173 257.341C94.6563 257.341 94.83 257.422 94.9111 257.515C94.9922 257.607 95.1196 257.688 95.2007 257.688C95.3976 257.688 96.5327 258.024 96.7876 258.163C96.9034 258.221 97.1235 258.268 97.2741 258.268C97.4362 258.268 97.5984 258.314 97.6331 258.383C97.6679 258.441 97.8764 258.499 98.0965 258.499C98.3165 258.499 98.5135 258.546 98.5482 258.604C98.6177 258.696 98.9652 258.777 99.9498 258.916C100.205 258.963 100.459 259.032 100.529 259.09C100.587 259.148 100.83 259.194 101.062 259.194C101.293 259.194 101.676 259.275 101.896 259.368C102.127 259.461 102.51 259.542 102.753 259.53C102.996 259.53 104.085 259.611 105.162 259.704C107.896 259.936 108 259.936 108 259.669C108 259.542 107.965 259.426 107.919 259.403C107.861 259.38 107.71 259.136 107.56 258.847C107.421 258.557 107.178 258.117 107.015 257.862C106.853 257.607 106.668 257.271 106.599 257.109C106.541 256.947 106.425 256.762 106.344 256.704C106.263 256.634 106.031 256.241 105.811 255.835C105.591 255.418 105.382 255.059 105.348 255.024C105.313 254.99 105.151 254.688 105 254.364C104.849 254.028 104.641 253.658 104.537 253.542C104.432 253.426 104.178 252.997 103.958 252.58C103.737 252.175 103.529 251.816 103.494 251.781C103.459 251.746 103.274 251.422 103.089 251.04C102.903 250.669 102.695 250.31 102.625 250.229C102.556 250.159 102.382 249.87 102.232 249.58C101.803 248.758 100.958 247.252 100.795 247.044C100.714 246.939 100.541 246.65 100.413 246.395C100.286 246.14 100.147 245.908 100.112 245.874C100.077 245.839 99.9498 245.63 99.8339 245.41C99.7181 245.19 99.4633 244.715 99.2548 244.368C99.0463 244.02 98.5714 243.209 98.2007 242.572C97.83 241.935 97.471 241.379 97.4131 241.333C97.3436 241.287 97.3204 241.24 97.3667 241.24C97.4131 241.24 97.2972 240.974 97.1119 240.661C96.915 240.337 96.7644 240.024 96.7644 239.966C96.7644 239.897 96.7181 239.85 96.6486 239.85C96.5906 239.85 96.5327 239.792 96.5327 239.735C96.5327 239.665 96.3127 239.26 96.0578 238.831C95.7914 238.402 95.4323 237.789 95.2586 237.476C95.0848 237.152 94.83 236.711 94.7026 236.491C94.5636 236.271 94.3898 235.958 94.3088 235.796C94.2277 235.634 94.0192 235.287 93.8454 235.02C93.6717 234.754 93.5211 234.511 93.5211 234.476C93.5211 234.453 93.3705 234.175 93.1968 233.862C92.4902 232.68 92.0385 231.893 91.7605 231.395C91.5172 230.978 89.8029 227.989 88.6446 225.974C88.5172 225.777 88.3319 225.429 88.2044 225.221C88.0886 225.024 87.7179 224.375 87.382 223.808C87.0461 223.229 86.6407 222.534 86.4785 222.244C86.3164 221.954 85.9457 221.317 85.6561 220.819C85.3666 220.31 85.0306 219.742 84.9148 219.545C84.7874 219.337 84.5789 218.966 84.4515 218.711C84.3125 218.456 84.1735 218.225 84.1387 218.19C84.104 218.155 83.9418 217.889 83.7913 217.588L83.5017 217.032L71.1772 217.008C62.4551 216.985 58.8411 217.008 58.8064 217.101Z" fill="#0055FF"/>
</g>
<defs>
<filter id="filter0_dd_946_118" x="133.244" y="0.466665" width="214.894" height="254.773" filterUnits="userSpaceOnUse" color-interpolation-filters="sRGB">
<feFlood flood-opacity="0" result="BackgroundImageFix"/>
<feColorMatrix in="SourceAlpha" type="matrix" values="0 0 0 0 0 0 0 0 0 0 0 0 0 0 0 0 0 0 127 0" result="hardAlpha"/>
<feOffset dx="5.13333" dy="5.13333"/>
<feGaussianBlur stdDeviation="7.7"/>
<feColorMatrix type="matrix" values="0 0 0 0 0.682353 0 0 0 0 0.682353 0 0 0 0 0.752941 0 0 0 0.4 0"/>
<feBlend mode="normal" in2="BackgroundImageFix" result="effect1_dropShadow_946_118"/>
<feColorMatrix in="SourceAlpha" type="matrix" values="0 0 0 0 0 0 0 0 0 0 0 0 0 0 0 0 0 0 127 0" result="hardAlpha"/>
<feOffset dx="-5.13333" dy="-5.13333"/>
<feGaussianBlur stdDeviation="7.7"/>
<feColorMatrix type="matrix" values="0 0 0 0 1 0 0 0 0 1 0 0 0 0 1 0 0 0 1 0"/>
<feBlend mode="normal" in2="effect1_dropShadow_946_118" result="effect2_dropShadow_946_118"/>
<feBlend mode="normal" in="SourceGraphic" in2="effect2_dropShadow_946_118" result="shape"/>
</filter>
<filter id="filter1_dd_946_118" x="0.466665" y="153.88" width="155.977" height="182.34" filterUnits="userSpaceOnUse" color-interpolation-filters="sRGB">
<feFlood flood-opacity="0" result="BackgroundImageFix"/>
<feColorMatrix in="SourceAlpha" type="matrix" values="0 0 0 0 0 0 0 0 0 0 0 0 0 0 0 0 0 0 127 0" result="hardAlpha"/>
<feOffset dx="5.13333" dy="5.13333"/>
<feGaussianBlur stdDeviation="7.7"/>
<feColorMatrix type="matrix" values="0 0 0 0 0.682353 0 0 0 0 0.682353 0 0 0 0 0.752941 0 0 0 0.4 0"/>
<feBlend mode="normal" in2="BackgroundImageFix" result="effect1_dropShadow_946_118"/>
<feColorMatrix in="SourceAlpha" type="matrix" values="0 0 0 0 0 0 0 0 0 0 0 0 0 0 0 0 0 0 127 0" result="hardAlpha"/>
<feOffset dx="-5.13333" dy="-5.13333"/>
<feGaussianBlur stdDeviation="7.7"/>
<feColorMatrix type="matrix" values="0 0 0 0 1 0 0 0 0 1 0 0 0 0 1 0 0 0 1 0"/>
<feBlend mode="normal" in2="effect1_dropShadow_946_118" result="effect2_dropShadow_946_118"/>
<feBlend mode="normal" in="SourceGraphic" in2="effect2_dropShadow_946_118" result="shape"/>
</filter>
<linearGradient id="paint0_linear_946_118" x1="224.269" y1="80.4534" x2="224.269" y2="173.078" gradientUnits="userSpaceOnUse">
<stop stop-color="#FE983F"/>
<stop offset="1" stop-color="#FF551F"/>
</linearGradient>
<linearGradient id="paint1_linear_946_118" x1="61.7571" y1="241.244" x2="61.7571" y2="259.894" gradientUnits="userSpaceOnUse">
<stop stop-color="#FE983F"/>
<stop offset="1" stop-color="#FF551F"/>
</linearGradient>
<clipPath id="clip0_946_118">
<rect width="125.898" height="125.898" fill="white" transform="matrix(1 0 0.424357 0.905495 157.287 69.7659)"/>
</clipPath>
<clipPath id="clip1_946_118">
<rect width="68" height="68" fill="white" transform="matrix(1 0 -0.363576 0.931564 61.7231 213)"/>
</clipPath>
</defs>
</svg>
