<svg width="115" height="115" fill="none" xmlns="http://www.w3.org/2000/svg"><g filter="url(#a)"><circle cx="57.5" cy="57.5" r="36.5" fill="#F0F0F3"/></g><path d="M58 70.5c-6.904 0-12.5-5.596-12.5-12.5S51.096 45.5 58 45.5 70.5 51.096 70.5 58 64.904 70.5 58 70.5zm-2.862-2.916a22.373 22.373 0 0 1-2.104-8.334h-4.956a10.01 10.01 0 0 0 7.06 8.334zm.4-8.334A19.893 19.893 0 0 0 58 67.69a19.881 19.881 0 0 0 2.462-8.44h-4.925zm12.385 0h-4.957a22.373 22.373 0 0 1-2.104 8.334 10.009 10.009 0 0 0 7.06-8.334zm-19.846-2.5h4.957c.156-2.888.87-5.718 2.104-8.334a10.009 10.009 0 0 0-7.06 8.334zm7.462 0h4.922A19.882 19.882 0 0 0 58 48.31a19.881 19.881 0 0 0-2.462 8.44zm5.323-8.334a22.373 22.373 0 0 1 2.104 8.334h4.956a10.01 10.01 0 0 0-7.06-8.334z" fill="#05F"/><defs><filter id="a" x=".467" y=".467" width="114.067" height="114.067" filterUnits="userSpaceOnUse" color-interpolation-filters="sRGB"><feFlood flood-opacity="0" result="BackgroundImageFix"/><feColorMatrix in="SourceAlpha" values="0 0 0 0 0 0 0 0 0 0 0 0 0 0 0 0 0 0 127 0" result="hardAlpha"/><feOffset dx="5.133" dy="5.133"/><feGaussianBlur stdDeviation="7.7"/><feColorMatrix values="0 0 0 0 0.682353 0 0 0 0 0.682353 0 0 0 0 0.752941 0 0 0 0.7 0"/><feBlend in2="BackgroundImageFix" result="effect1_dropShadow_136_1814"/><feColorMatrix in="SourceAlpha" values="0 0 0 0 0 0 0 0 0 0 0 0 0 0 0 0 0 0 127 0" result="hardAlpha"/><feOffset dx="-5.133" dy="-5.133"/><feGaussianBlur stdDeviation="7.7"/><feColorMatrix values="0 0 0 0 1 0 0 0 0 1 0 0 0 0 1 0 0 0 1 0"/><feBlend in2="effect1_dropShadow_136_1814" result="effect2_dropShadow_136_1814"/><feBlend in="SourceGraphic" in2="effect2_dropShadow_136_1814" result="shape"/></filter></defs></svg>