<svg width="348" height="337" fill="none" xmlns="http://www.w3.org/2000/svg"><g filter="url(#a)"><path d="M305.356 90.587c31.894 55.243 28.67 116.816-7.202 137.526-35.872 20.711-90.808-7.283-122.702-62.526-31.895-55.243-28.67-116.815 7.202-137.526 35.872-20.71 90.807 7.283 122.702 62.526z" fill="#F0F0F3"/></g><g clip-path="url(#b)"><path d="m243.686 162.625 4.174 8.906c.46.983 1.716 1.781 2.802 1.781h7.868c.522 0 .934-.187 1.147-.521.212-.334.207-.787-.014-1.26l-4.174-8.906h3.934l4.174 8.906c.461.983 1.716 1.781 2.802 1.781h7.868c.522 0 .935-.187 1.147-.521.212-.334.207-.787-.014-1.26l-4.174-8.906h.661c15.674 0 23.43-7.36 17.463-20.093-5.016-10.701-15.681-16.551-25.348-17.385l-.294-.627c6.824-1.724 9.99-6.939 5.93-15.603-5.116-10.916-17.27-17.542-31.079-17.542h-.724l-4.174-8.906c-.221-.473-.641-.926-1.167-1.26-.525-.334-1.113-.522-1.635-.522h-7.869c-.521 0-.934.188-1.146.522-.212.334-.207.787.014 1.26l4.174 8.906h-4.509l-4.174-8.906c-.221-.473-.641-.926-1.166-1.26-.526-.334-1.114-.522-1.636-.522h-7.294c-.522 0-.934.188-1.146.522-.213.334-.208.787.014 1.26l4.174 8.906-15.685.078c-.522 0-.934.188-1.147.522-.212.334-.207.787.014 1.26l3.303 7.046c.457.976 1.7 1.781 2.786 1.781l5.924-.035c1.563.009 3.32.576 4.887 1.578 1.568 1.001 2.818 2.354 3.48 3.766l18.381 39.223c.665 1.417.68 2.776.043 3.778-.637 1.002-1.875 1.565-3.44 1.565l-5.849.079c-.521 0-.934.187-1.146.522-.213.334-.207.787.014 1.259l3.339 7.125c.461.983 1.716 1.781 2.802 1.781l15.685-.078zm-17.198-60.655h13.527c7.129 0 12.978 3.548 15.696 9.348 2.908 6.206.023 9.704-10.222 9.704h-10.072l-8.929-19.052zm13.527 28.863h14.478c8.947 0 15.754 4.133 18.907 10.859 3.182 6.79-.085 10.331-12.139 10.331h-11.315l-9.928-21.183-.003-.007z" fill="url(#c)"/></g><g filter="url(#d)"><path d="M35.23 220.494c-21.084 36.519-18.952 77.222 4.761 90.914 23.714 13.691 60.03-4.815 81.114-41.334 21.084-36.519 18.952-77.222-4.761-90.913-23.714-13.691-60.03 4.815-81.114 41.333z" fill="#F0F0F3"/></g><g clip-path="url(#e)"><path d="m72.057 260.429-16.395-11.476 10.17 27.395 31.576-27.395-25.364 11.476h.013zM90.878 213l-33.456 32.261L73.8 256.757l25.355-11.484L90.878 213z" fill="#05F"/></g><defs><clipPath id="b"><path fill="#fff" transform="matrix(1 0 .42436 .9055 157 70)" d="M0 0h125.898v125.898H0z"/></clipPath><clipPath id="e"><path fill="#fff" transform="matrix(1 0 -.36358 .93156 56.723 213)" d="M0 0h68v68H0z"/></clipPath><filter id="a" x="132.957" y=".701" width="214.894" height="254.773" filterUnits="userSpaceOnUse" color-interpolation-filters="sRGB"><feFlood flood-opacity="0" result="BackgroundImageFix"/><feColorMatrix in="SourceAlpha" values="0 0 0 0 0 0 0 0 0 0 0 0 0 0 0 0 0 0 127 0" result="hardAlpha"/><feOffset dx="5.133" dy="5.133"/><feGaussianBlur stdDeviation="7.7"/><feColorMatrix values="0 0 0 0 0.682353 0 0 0 0 0.682353 0 0 0 0 0.752941 0 0 0 0.4 0"/><feBlend in2="BackgroundImageFix" result="effect1_dropShadow_38_39"/><feColorMatrix in="SourceAlpha" values="0 0 0 0 0 0 0 0 0 0 0 0 0 0 0 0 0 0 127 0" result="hardAlpha"/><feOffset dx="-5.133" dy="-5.133"/><feGaussianBlur stdDeviation="7.7"/><feColorMatrix values="0 0 0 0 1 0 0 0 0 1 0 0 0 0 1 0 0 0 1 0"/><feBlend in2="effect1_dropShadow_38_39" result="effect2_dropShadow_38_39"/><feBlend in="SourceGraphic" in2="effect2_dropShadow_38_39" result="shape"/></filter><filter id="d" x=".179" y="154.114" width="155.977" height="182.34" filterUnits="userSpaceOnUse" color-interpolation-filters="sRGB"><feFlood flood-opacity="0" result="BackgroundImageFix"/><feColorMatrix in="SourceAlpha" values="0 0 0 0 0 0 0 0 0 0 0 0 0 0 0 0 0 0 127 0" result="hardAlpha"/><feOffset dx="5.133" dy="5.133"/><feGaussianBlur stdDeviation="7.7"/><feColorMatrix values="0 0 0 0 0.682353 0 0 0 0 0.682353 0 0 0 0 0.752941 0 0 0 0.4 0"/><feBlend in2="BackgroundImageFix" result="effect1_dropShadow_38_39"/><feColorMatrix in="SourceAlpha" values="0 0 0 0 0 0 0 0 0 0 0 0 0 0 0 0 0 0 127 0" result="hardAlpha"/><feOffset dx="-5.133" dy="-5.133"/><feGaussianBlur stdDeviation="7.7"/><feColorMatrix values="0 0 0 0 1 0 0 0 0 1 0 0 0 0 1 0 0 0 1 0"/><feBlend in2="effect1_dropShadow_38_39" result="effect2_dropShadow_38_39"/><feBlend in="SourceGraphic" in2="effect2_dropShadow_38_39" result="shape"/></filter><linearGradient id="c" x1="223.982" y1="80.687" x2="223.982" y2="173.312" gradientUnits="userSpaceOnUse"><stop stop-color="#FE983F"/><stop offset="1" stop-color="#FF551F"/></linearGradient></defs></svg>