<svg width="47" height="48" fill="none" xmlns="http://www.w3.org/2000/svg"><path fill-rule="evenodd" clip-rule="evenodd" d="M17.09 23.982c0 5.278 1.132 6.41 6.41 6.41 5.278 0 6.409-1.132 6.409-6.41 0-5.278-1.131-6.409-6.41-6.409-5.277 0-6.408 1.131-6.408 6.41zm4.273 0c0 .977.046 1.614.108 2.029.415.062 1.052.108 2.029.108.977 0 1.614-.046 2.029-.108.062-.415.107-1.052.107-2.029 0-.976-.045-1.613-.107-2.028-.415-.063-1.052-.108-2.03-.108-.976 0-1.613.045-2.028.108-.062.415-.108 1.052-.108 2.028z" fill="url(#a)"/><path d="M19.227 11.164c1.18 0 2.137-.957 2.137-2.136v-6.41a2.136 2.136 0 1 0-4.273 0v6.41c0 1.18.956 2.136 2.136 2.136z" fill="url(#b)"/><path d="M19.227 47.482c1.18 0 2.137-.956 2.137-2.136v-6.41a2.136 2.136 0 1 0-4.273 0v6.41c0 1.18.956 2.136 2.136 2.136z" fill="url(#c)"/><path d="M38.455 21.846a2.136 2.136 0 0 1 0-4.273h6.409a2.136 2.136 0 0 1 0 4.273h-6.41z" fill="url(#d)"/><path d="M0 19.71c0 1.18.956 2.136 2.136 2.136h6.41a2.136 2.136 0 1 0 0-4.273h-6.41C.956 17.573 0 18.53 0 19.71z" fill="url(#e)"/><path d="M29.91 9.028a2.136 2.136 0 0 1-4.274 0v-6.41a2.136 2.136 0 1 1 4.273 0v6.41z" fill="url(#f)"/><path d="M27.773 47.482c1.18 0 2.136-.956 2.136-2.136v-6.41a2.136 2.136 0 0 0-4.273 0v6.41c0 1.18.957 2.136 2.137 2.136z" fill="url(#g)"/><path d="M38.455 30.391a2.136 2.136 0 0 1 0-4.272h6.409a2.136 2.136 0 0 1 0 4.272h-6.41z" fill="url(#h)"/><path d="M0 28.255c0 1.18.956 2.136 2.136 2.136h6.41a2.136 2.136 0 0 0 0-4.272h-6.41c-1.18 0-2.136.956-2.136 2.136z" fill="url(#i)"/><path fill-rule="evenodd" clip-rule="evenodd" d="M6.41 23.982c0 14.075 3.016 17.091 17.09 17.091 14.075 0 17.091-3.017 17.091-17.09 0-14.075-3.017-17.092-17.09-17.092-14.075 0-17.092 3.017-17.092 17.091zm4.272 0c0 3.421.189 5.879.59 7.681.39 1.754.92 2.616 1.426 3.121.506.506 1.367 1.037 3.121 1.427 1.803.4 4.26.59 7.681.59 3.421 0 5.879-.19 7.681-.59 1.754-.39 2.616-.921 3.121-1.427.506-.505 1.037-1.367 1.427-3.12.4-1.803.59-4.26.59-7.682 0-3.42-.19-5.878-.59-7.681-.39-1.754-.921-2.615-1.427-3.12-.505-.506-1.367-1.038-3.12-1.428-1.803-.4-4.26-.589-7.682-.589-3.421 0-5.878.189-7.681.59-1.754.39-2.615.92-3.121 1.426-.506.506-1.037 1.367-1.427 3.121-.4 1.803-.59 4.26-.59 7.681z" fill="url(#j)"/><defs><linearGradient id="a" x1="23.5" y1="17.573" x2="23.5" y2="30.391" gradientUnits="userSpaceOnUse"><stop stop-color="#FE983F"/><stop offset="1" stop-color="#FF551F"/></linearGradient><linearGradient id="b" x1="23.5" y1=".482" x2="23.5" y2="47.482" gradientUnits="userSpaceOnUse"><stop stop-color="#FE983F"/><stop offset="1" stop-color="#FF551F"/></linearGradient><linearGradient id="c" x1="23.5" y1=".482" x2="23.5" y2="47.482" gradientUnits="userSpaceOnUse"><stop stop-color="#FE983F"/><stop offset="1" stop-color="#FF551F"/></linearGradient><linearGradient id="d" x1="23.5" y1=".482" x2="23.5" y2="47.482" gradientUnits="userSpaceOnUse"><stop stop-color="#FE983F"/><stop offset="1" stop-color="#FF551F"/></linearGradient><linearGradient id="e" x1="23.5" y1=".482" x2="23.5" y2="47.482" gradientUnits="userSpaceOnUse"><stop stop-color="#FE983F"/><stop offset="1" stop-color="#FF551F"/></linearGradient><linearGradient id="f" x1="23.5" y1=".482" x2="23.5" y2="47.482" gradientUnits="userSpaceOnUse"><stop stop-color="#FE983F"/><stop offset="1" stop-color="#FF551F"/></linearGradient><linearGradient id="g" x1="23.5" y1=".482" x2="23.5" y2="47.482" gradientUnits="userSpaceOnUse"><stop stop-color="#FE983F"/><stop offset="1" stop-color="#FF551F"/></linearGradient><linearGradient id="h" x1="23.5" y1=".482" x2="23.5" y2="47.482" gradientUnits="userSpaceOnUse"><stop stop-color="#FE983F"/><stop offset="1" stop-color="#FF551F"/></linearGradient><linearGradient id="i" x1="23.5" y1=".482" x2="23.5" y2="47.482" gradientUnits="userSpaceOnUse"><stop stop-color="#FE983F"/><stop offset="1" stop-color="#FF551F"/></linearGradient><linearGradient id="j" x1="23.5" y1="6.891" x2="23.5" y2="41.073" gradientUnits="userSpaceOnUse"><stop stop-color="#FE983F"/><stop offset="1" stop-color="#FF551F"/></linearGradient></defs></svg>