<svg width="324" height="326" viewBox="0 0 324 326" fill="none" xmlns="http://www.w3.org/2000/svg">
<g opacity="0.4">
<path opacity="0.1" d="M322.972 75.959C321.773 207.163 193.594 325.434 49.8407 325.246C-93.9128 325.058 -262.284 207.163 -223.291 75.959C-184.298 -55.2446 -93.9128 -162.186 49.8407 -173.328C193.594 -184.469 324.172 -55.2446 322.972 75.959Z" stroke="black" stroke-opacity="0.29" stroke-width="0.639451" stroke-linecap="round"/>
<path opacity="0.2" d="M306.153 71.5225C305.202 190.495 188.835 297.72 58.4825 297.571C-71.8702 297.422 -220.089 190.495 -189.188 71.5225C-158.287 -47.4502 -71.8702 -145.696 58.4825 -154.526C188.835 -163.355 307.103 -47.4502 306.153 71.5225Z" stroke="black" stroke-opacity="0.29" stroke-width="0.639451" stroke-linecap="round"/>
<path opacity="0.3" d="M285.012 69.3043C284.193 176.046 179.755 272.242 62.8028 272.114C-54.1492 271.985 -186.023 176.046 -159.406 69.3043C-132.789 -37.4376 -54.1492 -125.9 62.8028 -133.505C179.755 -141.111 285.83 -37.4376 285.012 69.3043Z" stroke="black" stroke-opacity="0.29" stroke-width="0.639451" stroke-linecap="round"/>
<path opacity="0.4" d="M262.142 67.9736C261.407 162.485 168.946 247.66 65.3948 247.545C-38.1564 247.429 -155.261 162.485 -131.353 67.9736C-107.444 -26.5375 -38.1564 -104.766 65.3948 -111.597C168.946 -118.429 262.878 -26.5375 262.142 67.9736Z" stroke="black" stroke-opacity="0.29" stroke-width="0.639451" stroke-linecap="round"/>
<path opacity="0.5" d="M238.409 67.0861C237.732 149.366 157.274 223.525 67.1235 223.419C-23.027 223.312 -126.177 149.366 -104.162 67.0861C-82.148 -15.1941 -23.027 -82.956 67.1235 -89.2463C157.274 -95.5366 239.087 -15.1941 238.409 67.0861Z" stroke="black" stroke-opacity="0.29" stroke-width="0.639451" stroke-linecap="round"/>
<path opacity="0.6" d="M214.183 66.4524C213.549 136.502 145.108 199.646 68.3581 199.546C-8.39165 199.447 -98.0671 136.502 -77.4664 66.4524C-56.8657 -3.59702 -8.39165 -60.7551 68.3581 -66.6414C145.108 -72.5278 214.816 -3.59702 214.183 66.4524Z" stroke="black" stroke-opacity="0.29" stroke-width="0.639451" stroke-linecap="round"/>
<path opacity="0.7" d="M189.647 65.9769C189.047 123.795 132.633 175.926 69.284 175.832C5.93502 175.738 -70.5755 123.795 -51.0791 65.9769C-31.5826 8.15835 5.93502 -38.3075 69.284 -43.8783C132.633 -49.4491 190.247 8.15835 189.647 65.9769Z" stroke="black" stroke-opacity="0.29" stroke-width="0.639451" stroke-linecap="round"/>
<path opacity="0.8" d="M164.906 65.607C164.333 111.195 119.952 152.313 70.0041 152.224C20.0559 152.134 -43.5018 111.195 -24.8975 65.607C-6.29322 20.0194 20.0559 -15.6937 70.0041 -21.0096C119.952 -26.3254 165.478 20.0194 164.906 65.607Z" stroke="black" stroke-opacity="0.29" stroke-width="0.639451" stroke-linecap="round"/>
<path opacity="0.9" d="M140.02 65.3115C139.471 98.6683 107.128 128.776 70.5801 128.689C34.0326 128.603 -16.725 98.6683 1.13987 65.3115C19.0047 31.9546 34.0326 7.03806 70.5801 1.93347C107.128 -3.17113 140.57 31.9546 140.02 65.3115Z" stroke="black" stroke-opacity="0.29" stroke-width="0.639451" stroke-linecap="round"/>
<path d="M115.03 65.0695C114.5 86.1955 94.1984 105.292 71.0516 105.209C47.9049 105.126 9.83353 86.1955 27.0728 65.0695C44.3121 43.9435 47.9049 29.856 71.0516 24.9301C94.1984 20.0042 115.561 43.9435 115.03 65.0695Z" stroke="black" stroke-opacity="0.29" stroke-width="0.639451" stroke-linecap="round"/>
</g>
</svg>
