<svg width="20" height="19" fill="none" xmlns="http://www.w3.org/2000/svg"><path d="M9.993.136A8.845 8.845 0 0 0 .826 9.053a8.718 8.718 0 0 0 2.845 6.555l.043 1.408a1.5 1.5 0 0 0 2.104 1.327l1.601-.707c.84.223 1.705.335 2.574.333a8.845 8.845 0 0 0 9.167-8.916A8.847 8.847 0 0 0 9.993.136zm0 16.167a8.218 8.218 0 0 1-2.196-.292 1.499 1.499 0 0 0-.997.077l-1.428.63-.038-1.245a1.508 1.508 0 0 0-.5-1.062 7.073 7.073 0 0 1-2.342-5.358 7.217 7.217 0 0 1 7.5-7.25 7.254 7.254 0 1 1 0 14.5zm3.112-9.846-1.927 2.296-2.79-1.714a.832.832 0 0 0-1.074.175l-2.542 3.03a.834.834 0 1 0 1.275 1.071l2.082-2.479 2.79 1.713a.831.831 0 0 0 1.074-.175l2.388-2.846a.832.832 0 0 0-.707-1.38.833.833 0 0 0-.569.309z" fill="#05F"/></svg>