<svg width="39" height="39" viewBox="0 0 39 39" fill="none" xmlns="http://www.w3.org/2000/svg">
<g clip-path="url(#clip0_748_684)">
<path d="M24.889 32.766L6.21547 25.6936C4.93167 25.2074 4.27911 23.7592 4.76533 22.4754L9.38447 10.2793C9.67178 9.52065 10.2871 8.953 11.1058 8.72927L24.6137 5.30438L32.4636 16.8183C32.9508 17.4699 33.0137 18.3611 32.7263 19.1197L28.1072 31.3158C27.621 32.5996 26.1728 33.2522 24.889 32.766Z" fill="#78909C"/>
<path d="M18.5571 3.67773L30.2281 8.09796L23.3767 26.1879L11.7058 21.7677L18.5571 3.67773Z" fill="#AED581"/>
<path d="M18.1946 2.87317L10.9012 22.1302L23.7392 26.9925L31.0326 7.73542L18.1946 2.87317ZM23.0142 25.3833L12.5103 21.4051L18.9197 4.48229L29.4235 8.46049L23.0142 25.3833Z" fill="#558B2F"/>
<path d="M29.786 9.26505C29.4103 10.2571 28.9479 10.9494 27.9559 10.5737C26.9639 10.198 26.4926 9.15203 26.8683 8.16C27.244 7.16797 28.0689 7.28022 29.061 7.65594C30.053 8.03166 30.1618 8.27302 29.786 9.26505ZM19.7242 4.11976C20.7163 4.49548 21.4086 4.95785 21.0328 5.94988C20.6571 6.94191 19.6112 7.41321 18.6192 7.03749C17.6271 6.66177 17.7394 5.83686 18.1151 4.84483C18.4908 3.8528 18.7322 3.74404 19.7242 4.11976Z" fill="#558B2F"/>
<path d="M22.4035 11.1397C23.0481 11.3839 23.7685 11.0592 24.0126 10.4147C24.2568 9.7701 23.9321 9.04967 23.2876 8.80555C22.643 8.56143 21.9226 8.88605 21.6785 9.53062C21.4343 10.1752 21.759 10.8956 22.4035 11.1397Z" fill="#558B2F"/>
<path d="M18.8673 20.4765C20.801 21.2088 22.9623 20.2349 23.6947 18.3012C24.427 16.3675 23.4532 14.2063 21.5195 13.4739C19.5858 12.7415 17.4245 13.7154 16.6921 15.6491C15.9598 17.5828 16.9336 19.7441 18.8673 20.4765Z" fill="#558B2F"/>
<path d="M24.8888 32.766L6.21534 25.6936C4.93154 25.2074 4.27897 23.7592 4.7652 22.4754L9.18542 10.8044L17.9832 22.8108L32.5273 19.6449L28.1071 31.3158C27.6208 32.5996 26.1726 33.2522 24.8888 32.766Z" fill="#CFD8DC"/>
</g>
<defs>
<clipPath id="clip0_748_684">
<rect width="29.9519" height="29.9519" fill="white" transform="translate(10.6085) rotate(20.7436)"/>
</clipPath>
</defs>
</svg>
