<svg width="48" height="48" viewBox="0 0 48 48" fill="none" xmlns="http://www.w3.org/2000/svg">
<path d="M13 5L35 5C37.2 5 39 6.8 39 9L39 39C39 41.2 37.2 43 35 43L13 43C10.8 43 9 41.2 9 39L9 9C9 6.8 10.8 5 13 5Z" fill="#FF9800"/>
<path d="M27 43L29 43L29 31C29 29.9 29.9 29 31 29C32.1 29 33 29.9 33 31L33 32L35 32L35 31C35 28.8 33.2 27 31 27C28.8 27 27 28.8 27 31L27 34L21 34L21 31C21 28.2 18.8 26 16 26C13.2 26 11 28.2 11 31L11 33L13 33L13 31C13 29.3 14.3 28 16 28C17.7 28 19 29.3 19 31L19 43L21 43L21 36L27 36L27 43ZM21 17L21 14L27 14L27 17C27 19.2 28.8 21 31 21C33.2 21 35 19.2 35 17L35 14L33 14L33 17C33 18.1 32.1 19 31 19C29.9 19 29 18.1 29 17L29 5L27 5L27 12L21 12L21 5L19 5L19 17C19 18.7 17.7 20 16 20C14.3 20 13 18.7 13 17L13 15L11 15L11 17C11 19.8 13.2 22 16 22C18.8 22 21 19.8 21 17Z" fill="#FFD54F"/>
</svg>
