<svg width="56" height="62" viewBox="0 0 56 62" fill="none" xmlns="http://www.w3.org/2000/svg">
<path d="M40.7148 16.4226L37.9258 11.5991C37.691 11.1875 37.3771 10.8264 37.0022 10.5366C36.6273 10.2468 36.1988 10.034 35.7413 9.91051C35.2839 9.787 34.8065 9.75519 34.3367 9.81692C33.8669 9.87866 33.4139 10.0327 33.0039 10.2702C32.2727 10.6859 31.7141 11.3493 31.4289 12.1405L28.5414 7.16944C28.3066 6.75784 27.9927 6.39674 27.6178 6.10693C27.243 5.81713 26.8144 5.60434 26.357 5.48083C25.8995 5.35731 25.4221 5.3255 24.9523 5.38724C24.4825 5.44897 24.0295 5.60302 23.6195 5.84053C22.8883 6.25625 22.3297 6.91956 22.0445 7.71084C21.5437 6.92581 20.76 6.36355 19.856 6.14058C18.9519 5.91762 17.9967 6.05103 17.1883 6.51319C16.778 6.75107 16.419 7.06781 16.1318 7.44512C15.8446 7.82244 15.6349 8.25288 15.5148 8.71163C15.3709 9.2244 15.3485 9.76365 15.4492 10.2866C14.8084 10.3357 14.1864 10.5262 13.6281 10.8444C12.6484 11.4137 11.9343 12.348 11.6422 13.4428C11.3501 14.5375 11.5037 15.7034 12.0695 16.6851L12.3976 17.2429C11.8347 17.3082 11.2922 17.4928 10.8062 17.7843C9.82768 18.3504 9.11388 19.2818 8.82164 20.3738C8.5294 21.4659 8.68261 22.6293 9.24763 23.6085L15.3179 34.1249C16.6151 36.3753 18.5508 38.1903 20.88 39.34C23.2092 40.4897 25.8271 40.9224 28.4024 40.5834C30.9777 40.2443 33.3945 39.1488 35.3467 37.4354C37.299 35.7221 38.699 33.468 39.3695 30.9585L39.4187 30.7452C41.0764 28.7784 42.0898 26.3497 42.3216 23.7879C42.5534 21.2262 41.9925 18.655 40.7148 16.4226ZM36.8265 30.2858C36.4747 31.6182 35.8612 32.8672 35.0218 33.9601C34.1825 35.053 33.134 35.9679 31.9375 36.6515C29.5267 38.0429 26.6621 38.4201 23.9732 37.7002C21.2844 36.9803 18.9915 35.2222 17.5984 32.8124L11.5281 22.296C11.3647 22.0155 11.2882 21.6929 11.3083 21.3689C11.3284 21.0449 11.4441 20.7342 11.6408 20.476C11.8375 20.2178 12.1064 20.0238 12.4134 19.9184C12.7204 19.8131 13.0518 19.8012 13.3656 19.8843C13.7863 20.0023 14.145 20.2786 14.3664 20.6554L18.3039 27.4804C18.4211 27.6771 18.5866 27.8406 18.7847 27.9554C18.9828 28.0702 19.207 28.1326 19.4359 28.1366C19.6659 28.1358 19.8917 28.0746 20.0905 27.9591C20.2894 27.8435 20.4545 27.6778 20.5691 27.4784C20.6838 27.279 20.744 27.053 20.7438 26.823C20.7436 26.593 20.6829 26.3671 20.5679 26.1679L14.3336 15.3726C14.116 14.994 14.0577 14.5445 14.1716 14.123C14.2854 13.7015 14.562 13.3425 14.9406 13.1249C15.3192 12.9073 15.7686 12.8491 16.1901 12.9629C16.6117 13.0768 16.9707 13.3534 17.1883 13.7319L23.4226 24.5273C23.5009 24.6904 23.6121 24.8357 23.7492 24.9538C23.8863 25.072 24.0463 25.1605 24.2193 25.2139C24.3923 25.2672 24.5744 25.2842 24.7542 25.2637C24.9341 25.2433 25.1077 25.1859 25.2643 25.0951C25.4209 25.0044 25.557 24.8822 25.6641 24.7363C25.7712 24.5904 25.847 24.4239 25.8866 24.2473C25.9263 24.0707 25.929 23.8878 25.8946 23.7101C25.8602 23.5324 25.7894 23.3638 25.6867 23.2148L20.7648 14.6835C20.5501 14.3043 20.4935 13.8558 20.6071 13.4351C20.7207 13.0144 20.9955 12.6554 21.3719 12.4358C21.7486 12.222 22.1946 12.1657 22.6126 12.2795C23.0306 12.3932 23.3867 12.6676 23.6031 13.0429L30.4937 24.9866C30.6124 25.1857 30.7805 25.3507 30.9817 25.4656C31.1829 25.5806 31.4104 25.6417 31.6422 25.6429C31.8724 25.6372 32.0977 25.5752 32.2984 25.4624C32.5978 25.2876 32.8159 25.0014 32.9051 24.6664C32.9942 24.3313 32.9472 23.9746 32.7742 23.6741L30.1492 19.1132C29.9337 18.7409 29.8747 18.2984 29.9851 17.8827C30.0376 17.6717 30.1332 17.4739 30.2659 17.3016C30.3986 17.1294 30.5656 16.9865 30.7562 16.8819C30.9388 16.7708 31.1424 16.6989 31.3542 16.6706C31.566 16.6424 31.7814 16.6585 31.9867 16.7179C32.1955 16.7703 32.3917 16.864 32.5637 16.9937C32.7356 17.1233 32.8797 17.2862 32.9875 17.4726L35.7765 22.3124C36.4712 23.5056 36.9217 24.8249 37.102 26.1937C37.2822 27.5625 37.1886 28.9535 36.8265 30.2858ZM34.0703 4.05225L34.7429 1.50928C34.7871 1.34231 34.8637 1.18567 34.9684 1.04831C35.0731 0.910946 35.2039 0.795552 35.3532 0.708715C35.5025 0.621878 35.6674 0.565297 35.8386 0.542204C36.0097 0.519112 36.1838 0.529958 36.3508 0.574126C36.5177 0.618293 36.6744 0.694916 36.8117 0.799619C36.9491 0.904322 37.0645 1.03506 37.1513 1.18435C37.2382 1.33365 37.2947 1.4986 37.3178 1.66976C37.3409 1.84093 37.3301 2.01496 37.2859 2.18194L36.5969 4.72491C36.5239 5.00375 36.3601 5.25031 36.1313 5.42562C35.9025 5.60092 35.6218 5.69497 35.3336 5.69288L34.989 5.66006C34.6545 5.56797 34.37 5.34711 34.1978 5.04581C34.0256 4.7445 33.9798 4.38727 34.0703 4.05225ZM38.3851 5.56163L39.8945 3.41241C40.0962 3.12718 40.4021 2.93284 40.746 2.87143C41.0898 2.81002 41.4441 2.88649 41.732 3.08428C41.8737 3.184 41.9942 3.31079 42.0867 3.45733C42.1791 3.60388 42.2417 3.76727 42.2706 3.9381C42.2996 4.10892 42.2945 4.2838 42.2555 4.45263C42.2166 4.62146 42.1446 4.78091 42.0437 4.92178L40.5344 7.071C40.4361 7.21215 40.3108 7.33235 40.1657 7.4246C40.0206 7.51684 39.8586 7.57929 39.6891 7.6083C39.5196 7.63731 39.346 7.63231 39.1785 7.59358C39.011 7.55485 38.8528 7.48317 38.7133 7.38272C38.4291 7.18405 38.2352 6.88103 38.1737 6.53983C38.1122 6.19863 38.1882 5.84697 38.3851 5.56163ZM45.5875 9.10538L43.4383 10.6147C43.2137 10.7615 42.9519 10.8412 42.6836 10.8444C42.4066 10.8422 42.1375 10.7525 41.9146 10.588C41.6918 10.4236 41.5267 10.1929 41.4429 9.92887C41.3592 9.66487 41.3611 9.38115 41.4484 9.11831C41.5356 8.85547 41.7038 8.62698 41.9289 8.46553L44.0781 6.95616C44.219 6.85528 44.3784 6.78329 44.5473 6.74434C44.7161 6.7054 44.891 6.70027 45.0618 6.72925C45.2326 6.75823 45.396 6.82074 45.5425 6.91319C45.6891 7.00564 45.8159 7.12618 45.9156 7.26788C46.1134 7.55581 46.1899 7.91005 46.1285 8.25393C46.067 8.59782 45.8727 8.90369 45.5875 9.10538Z" fill="#0055FF"/>
<g filter="url(#filter0_b_748_740)">
<rect y="31.3292" width="56" height="30" rx="2" fill="#0055FF" fill-opacity="0.16"/>
</g>
<defs>
<filter id="filter0_b_748_740" x="-7" y="24.3292" width="70" height="43.9999" filterUnits="userSpaceOnUse" color-interpolation-filters="sRGB">
<feFlood flood-opacity="0" result="BackgroundImageFix"/>
<feGaussianBlur in="BackgroundImageFix" stdDeviation="3.5"/>
<feComposite in2="SourceAlpha" operator="in" result="effect1_backgroundBlur_748_740"/>
<feBlend mode="normal" in="SourceGraphic" in2="effect1_backgroundBlur_748_740" result="shape"/>
</filter>
</defs>
</svg>
