<svg width="88" height="17" viewBox="0 0 88 17" fill="none" xmlns="http://www.w3.org/2000/svg">
<path d="M46.5709 16.028L46.0993 13.6703H40.8307L39.9924 16.0112L35.7696 16.0196C37.7799 11.1851 39.7946 6.35239 41.8136 1.52149C42.1573 0.702063 42.7672 0.285018 43.6662 0.289209C44.3536 0.295496 45.4748 0.295495 47.0319 0.291304L50.297 16.0217L46.5709 16.028ZM42.0169 10.4408H45.4119L44.144 4.53092L42.0169 10.4408ZM14.7957 0.287112L19.0416 0.291304L12.4779 16.0301L8.17956 16.0259C7.09869 11.8687 6.03127 7.70797 4.97731 3.54385C4.76774 2.71394 4.35279 2.13343 3.55432 1.8589C2.37491 1.4637 1.19002 1.08503 0 0.723021L0 0.2934H6.78381C7.95741 0.2934 8.64271 0.861337 8.86276 2.02655C9.0849 3.19386 9.64236 6.16558 10.5393 10.9417L14.7957 0.287112ZM24.8761 0.291304L21.5188 16.0259L17.4782 16.0217L20.8314 0.287112L24.8761 0.291304ZM33.0703 0C34.2795 0 35.8031 0.377228 36.6791 0.723021L35.9708 3.98604C35.1786 3.66749 33.8751 3.23787 32.779 3.25254C31.1863 3.27979 30.2013 3.94832 30.2013 4.58961C30.2013 5.63327 31.9114 6.15929 33.6718 7.29936C35.6816 8.5987 35.9456 9.76601 35.9205 11.0339C35.8932 13.6661 33.6718 16.2627 28.9858 16.2627C26.8481 16.2313 26.0769 16.051 24.3333 15.4328L25.071 12.0273C26.846 12.7713 27.5984 13.0081 29.1157 13.0081C30.5052 13.0081 31.6976 12.4464 31.7081 11.4677C31.7165 10.772 31.289 10.4262 29.7297 9.56692C28.1705 8.70558 25.9826 7.51312 26.012 5.11982C26.0476 2.05589 28.9501 0 33.0724 0H33.0703Z" fill="black"/>
<path d="M71.1131 1.74375H78.2467V14.5617H71.1131V1.74375Z" fill="#FF5F00"/>
<path d="M71.5661 8.15279C71.5661 5.54847 72.789 3.23846 74.6686 1.74375C73.2872 0.65673 71.5435 0 69.6412 0C65.1343 0 61.4883 3.64606 61.4883 8.15279C61.4883 12.6594 65.1343 16.3056 69.6411 16.3056C71.5434 16.3056 73.2871 15.6489 74.6686 14.5617C72.789 13.0897 71.5661 10.7571 71.5661 8.15279Z" fill="#EB001B"/>
<path d="M87.8716 8.15279C87.8716 12.6594 84.2255 16.3056 79.7188 16.3056C77.8165 16.3056 76.0727 15.6489 74.6913 14.5617C76.5936 13.0671 77.7939 10.7571 77.7939 8.15279C77.7939 5.54847 76.5709 3.23846 74.6913 1.74375C76.0726 0.65673 77.8165 0 79.7188 0C84.2255 0 87.8716 3.66875 87.8716 8.15279Z" fill="#F79E1B"/>
</svg>
