<svg width="45" height="46" viewBox="0 0 45 46" fill="none" xmlns="http://www.w3.org/2000/svg">
<path d="M23 25.8895L17.1208 29.4312C16.8611 29.5965 16.5896 29.6673 16.3063 29.6437C16.0229 29.6201 15.775 29.5257 15.5625 29.3604C15.35 29.1951 15.1847 28.9887 15.0667 28.7413C14.9486 28.4929 14.925 28.2152 14.9958 27.9083L16.5542 21.2145L11.3479 16.7166C11.1118 16.5041 10.9645 16.2619 10.9059 15.9899C10.8464 15.7188 10.8639 15.4534 10.9583 15.1937C11.0528 14.934 11.1945 14.7215 11.3833 14.5562C11.5722 14.3909 11.832 14.2847 12.1625 14.2375L19.0333 13.6354L21.6896 7.3312C21.8076 7.04787 21.9909 6.83537 22.2393 6.6937C22.4867 6.55203 22.7403 6.4812 23 6.4812C23.2597 6.4812 23.5138 6.55203 23.7622 6.6937C24.0096 6.83537 24.1924 7.04787 24.3104 7.3312L26.9667 13.6354L33.8375 14.2375C34.1681 14.2847 34.4278 14.3909 34.6167 14.5562C34.8056 14.7215 34.9472 14.934 35.0417 15.1937C35.1361 15.4534 35.1541 15.7188 35.0955 15.9899C35.036 16.2619 34.8882 16.5041 34.6521 16.7166L29.4458 21.2145L31.0042 27.9083C31.075 28.2152 31.0514 28.4929 30.9333 28.7413C30.8153 28.9887 30.65 29.1951 30.4375 29.3604C30.225 29.5257 29.9771 29.6201 29.6938 29.6437C29.4104 29.6673 29.1389 29.5965 28.8792 29.4312L23 25.8895Z" fill="url(#paint0_linear_802_306)"/>
<g filter="url(#filter0_b_802_306)">
<rect y="22" width="45" height="24" rx="2" fill="url(#paint1_linear_802_306)" fill-opacity="0.16"/>
</g>
<defs>
<filter id="filter0_b_802_306" x="-7" y="15" width="59" height="38" filterUnits="userSpaceOnUse" color-interpolation-filters="sRGB">
<feFlood flood-opacity="0" result="BackgroundImageFix"/>
<feGaussianBlur in="BackgroundImageFix" stdDeviation="3.5"/>
<feComposite in2="SourceAlpha" operator="in" result="effect1_backgroundBlur_802_306"/>
<feBlend mode="normal" in="SourceGraphic" in2="effect1_backgroundBlur_802_306" result="shape"/>
</filter>
<linearGradient id="paint0_linear_802_306" x1="23.0003" y1="6.4812" x2="23.0003" y2="29.6481" gradientUnits="userSpaceOnUse">
<stop stop-color="#FE983F"/>
<stop offset="1" stop-color="#FF551F"/>
</linearGradient>
<linearGradient id="paint1_linear_802_306" x1="22.5" y1="22" x2="22.5" y2="46" gradientUnits="userSpaceOnUse">
<stop stop-color="#FE983F"/>
<stop offset="1" stop-color="#FF551F"/>
</linearGradient>
</defs>
</svg>
