<svg width="116" height="116" viewBox="0 0 116 116" fill="none" xmlns="http://www.w3.org/2000/svg">
<g filter="url(#filter0_dd_748_607)">
<circle cx="57.6667" cy="58" r="37" fill="#F0F0F3"/>
</g>
<circle cx="23.1667" cy="70.5" r="4.5" fill="#0055FF"/>
<circle cx="92.1667" cy="23.5" r="4.5" fill="#0055FF"/>
<circle cx="95.6667" cy="32" r="2" fill="url(#paint0_linear_748_607)"/>
<circle cx="89.6667" cy="84" r="2" fill="#0055FF"/>
<circle cx="21.6667" cy="37" r="2" fill="url(#paint1_linear_748_607)"/>
<circle cx="33.6667" cy="95" r="2" fill="url(#paint2_linear_748_607)"/>
<circle cx="27.1667" cy="61.5" r="2.5" fill="white"/>
<circle cx="29.6667" cy="75" r="1" fill="#0055FF"/>
<circle cx="85.6667" cy="21" r="1" fill="#0055FF"/>
<circle cx="88.6667" cy="42" r="1" fill="white"/>
<g clip-path="url(#clip0_748_607)">
<path d="M77.4855 61.0187C77.2601 61.1924 76.9826 61.2849 76.698 61.2812C76.4942 61.2812 76.2933 61.2338 76.111 61.1426C75.9288 61.0515 75.7703 60.9192 75.648 60.7562C74.8569 59.6929 73.8272 58.8301 72.6418 58.2374C71.4564 57.6447 70.1483 57.3386 68.823 57.3437C68.4749 57.3437 68.1411 57.2054 67.8949 56.9593C67.6488 56.7131 67.5105 56.3793 67.5105 56.0312C67.5105 55.6831 67.6488 55.3493 67.8949 55.1031C68.1411 54.857 68.4749 54.7187 68.823 54.7187C69.57 54.7179 70.3013 54.5046 70.9317 54.1038C71.562 53.703 72.0653 53.1311 72.3828 52.455C72.7004 51.7788 72.819 51.0263 72.7249 50.2853C72.6309 49.5442 72.3279 48.8453 71.8515 48.2699C71.3751 47.6946 70.7448 47.2666 70.0343 47.036C69.3238 46.8054 68.5624 46.7817 67.8389 46.9676C67.1154 47.1535 66.4597 47.5413 65.9484 48.0859C65.4371 48.6304 65.0912 49.3092 64.9511 50.0429C64.9257 50.2184 64.8649 50.3869 64.7725 50.5382C64.6802 50.6895 64.5581 50.8206 64.4137 50.9234C64.2693 51.0263 64.1055 51.0988 63.9323 51.1366C63.7591 51.1745 63.58 51.1768 63.4059 51.1436C63.2318 51.1103 63.0662 51.0421 62.9191 50.943C62.7721 50.844 62.6466 50.7162 62.5503 50.5674C62.454 50.4185 62.3888 50.2517 62.3588 50.077C62.3287 49.9022 62.3343 49.7232 62.3753 49.5507C62.5701 48.53 63.0044 47.5701 63.6426 46.75C64.2808 45.9299 65.1047 45.2731 66.0463 44.8336C66.988 44.3942 68.0206 44.1846 69.059 44.2222C70.0975 44.2598 71.1122 44.5435 72.0196 45.0499C72.9271 45.5563 73.7013 46.2709 74.2785 47.135C74.8557 47.9991 75.2195 48.9879 75.3399 50.0201C75.4603 51.0523 75.3339 52.0983 74.971 53.072C74.6081 54.0457 74.0192 54.9194 73.2527 55.6211C75.0365 56.3945 76.5865 57.622 77.748 59.1812C77.8514 59.3191 77.9267 59.476 77.9694 59.643C78.0122 59.8099 78.0217 59.9837 77.9973 60.1543C77.9729 60.325 77.9152 60.4891 77.8274 60.6374C77.7396 60.7857 77.6234 60.9153 77.4855 61.0187ZM68.298 71.8632C68.4461 72.1772 68.4656 72.5366 68.3521 72.8646C68.2387 73.1927 68.0014 73.4633 67.691 73.6187C67.5099 73.6993 67.3149 73.7439 67.1168 73.75C66.8708 73.7483 66.6302 73.6783 66.4216 73.548C66.2131 73.4177 66.0448 73.232 65.9355 73.0117C65.1787 71.4635 64.0024 70.1589 62.5405 69.2463C61.0787 68.3338 59.39 67.85 57.6668 67.85C55.9435 67.85 54.2548 68.3338 52.793 69.2463C51.3311 70.1589 50.1548 71.4635 49.398 73.0117C49.3227 73.1669 49.2175 73.3057 49.0885 73.4202C48.9595 73.5348 48.8092 73.6227 48.6461 73.6791C48.4831 73.7355 48.3105 73.7592 48.1383 73.7488C47.9661 73.7385 47.7976 73.6942 47.6425 73.6187C47.3321 73.4633 47.0948 73.1927 46.9814 72.8646C46.868 72.5366 46.8874 72.1772 47.0355 71.8632C48.2553 69.3516 50.3242 67.3525 52.8761 66.2195C51.5699 65.2183 50.6102 63.833 50.1318 62.2583C49.6534 60.6836 49.6804 58.9985 50.209 57.4399C50.7376 55.8813 51.7412 54.5275 53.0789 53.5687C54.4165 52.6099 56.021 52.0942 57.6668 52.0942C59.3125 52.0942 60.917 52.6099 62.2546 53.5687C63.5923 54.5275 64.5959 55.8813 65.1245 57.4399C65.6531 58.9985 65.6801 60.6836 65.2017 62.2583C64.7233 63.833 63.7636 65.2183 62.4574 66.2195C65.0093 67.3525 67.0782 69.3516 68.298 71.8632ZM57.6668 65.2187C58.7051 65.2187 59.7201 64.9108 60.5835 64.3339C61.4469 63.757 62.1198 62.9371 62.5171 61.9778C62.9145 61.0185 63.0184 59.9629 62.8159 58.9445C62.6133 57.9261 62.1133 56.9906 61.3791 56.2564C60.6448 55.5222 59.7094 55.0222 58.691 54.8196C57.6726 54.617 56.617 54.721 55.6577 55.1183C54.6984 55.5157 53.8784 56.1886 53.3015 57.052C52.7247 57.9153 52.4168 58.9304 52.4168 59.9687C52.4211 61.3598 52.9756 62.6926 53.9592 63.6762C54.9429 64.6599 56.2757 65.2144 57.6668 65.2187ZM47.823 56.0312C47.823 55.6831 47.6847 55.3493 47.4386 55.1031C47.1924 54.857 46.8586 54.7187 46.5105 54.7187C45.7635 54.7179 45.0322 54.5046 44.4018 54.1038C43.7715 53.703 43.2682 53.1311 42.9507 52.455C42.6331 51.7788 42.5145 51.0263 42.6086 50.2853C42.7027 49.5442 43.0056 48.8453 43.482 48.2699C43.9584 47.6946 44.5887 47.2666 45.2992 47.036C46.0097 46.8054 46.7711 46.7817 47.4946 46.9676C48.2181 47.1535 48.8738 47.5413 49.3851 48.0859C49.8964 48.6304 50.2423 49.3092 50.3824 50.0429C50.4078 50.2184 50.4686 50.3869 50.561 50.5382C50.6533 50.6895 50.7754 50.8206 50.9198 50.9234C51.0642 51.0263 51.228 51.0988 51.4012 51.1366C51.5744 51.1745 51.7535 51.1768 51.9276 51.1436C52.1017 51.1103 52.2673 51.0421 52.4144 50.943C52.5615 50.844 52.6869 50.7162 52.7832 50.5674C52.8795 50.4185 52.9447 50.2517 52.9748 50.077C53.0048 49.9022 52.9992 49.7232 52.9582 49.5507C52.7634 48.53 52.3291 47.5701 51.6909 46.75C51.0527 45.9299 50.2288 45.2731 49.2872 44.8336C48.3455 44.3942 47.313 44.1846 46.2745 44.2222C45.236 44.2598 44.2213 44.5435 43.3139 45.0499C42.4064 45.5563 41.6322 46.2709 41.055 47.135C40.4778 47.9991 40.114 48.9879 39.9936 50.0201C39.8732 51.0523 39.9996 52.0983 40.3625 53.072C40.7254 54.0457 41.3143 54.9194 42.0808 55.6211C40.297 56.3945 38.747 57.622 37.5855 59.1812C37.3766 59.4597 37.287 59.8097 37.3362 60.1543C37.3854 60.4989 37.5695 60.8099 37.848 61.0187C38.0734 61.1924 38.3509 61.2849 38.6355 61.2812C38.8393 61.2812 39.0402 61.2338 39.2225 61.1426C39.4047 61.0515 39.5632 60.9192 39.6855 60.7562C40.4766 59.6929 41.5063 58.8301 42.6917 58.2374C43.8771 57.6447 45.1852 57.3386 46.5105 57.3437C46.8586 57.3437 47.1924 57.2054 47.4386 56.9593C47.6847 56.7131 47.823 56.3793 47.823 56.0312Z" fill="black"/>
</g>
<defs>
<filter id="filter0_dd_748_607" x="0.133413" y="0.466665" width="115.067" height="115.067" filterUnits="userSpaceOnUse" color-interpolation-filters="sRGB">
<feFlood flood-opacity="0" result="BackgroundImageFix"/>
<feColorMatrix in="SourceAlpha" type="matrix" values="0 0 0 0 0 0 0 0 0 0 0 0 0 0 0 0 0 0 127 0" result="hardAlpha"/>
<feOffset dx="5.13333" dy="5.13333"/>
<feGaussianBlur stdDeviation="7.7"/>
<feColorMatrix type="matrix" values="0 0 0 0 0.682353 0 0 0 0 0.682353 0 0 0 0 0.752941 0 0 0 0.7 0"/>
<feBlend mode="normal" in2="BackgroundImageFix" result="effect1_dropShadow_748_607"/>
<feColorMatrix in="SourceAlpha" type="matrix" values="0 0 0 0 0 0 0 0 0 0 0 0 0 0 0 0 0 0 127 0" result="hardAlpha"/>
<feOffset dx="-5.13333" dy="-5.13333"/>
<feGaussianBlur stdDeviation="7.7"/>
<feColorMatrix type="matrix" values="0 0 0 0 1 0 0 0 0 1 0 0 0 0 1 0 0 0 1 0"/>
<feBlend mode="normal" in2="effect1_dropShadow_748_607" result="effect2_dropShadow_748_607"/>
<feBlend mode="normal" in="SourceGraphic" in2="effect2_dropShadow_748_607" result="shape"/>
</filter>
<linearGradient id="paint0_linear_748_607" x1="95.6667" y1="30" x2="95.6667" y2="34" gradientUnits="userSpaceOnUse">
<stop stop-color="#FE983F"/>
<stop offset="1" stop-color="#FF551F"/>
</linearGradient>
<linearGradient id="paint1_linear_748_607" x1="21.6667" y1="35" x2="21.6667" y2="39" gradientUnits="userSpaceOnUse">
<stop stop-color="#FE983F"/>
<stop offset="1" stop-color="#FF551F"/>
</linearGradient>
<linearGradient id="paint2_linear_748_607" x1="33.6667" y1="93" x2="33.6667" y2="97" gradientUnits="userSpaceOnUse">
<stop stop-color="#FE983F"/>
<stop offset="1" stop-color="#FF551F"/>
</linearGradient>
<clipPath id="clip0_748_607">
<rect width="42" height="42" fill="white" transform="translate(36.6667 37)"/>
</clipPath>
</defs>
</svg>
