<svg width="56" height="61" viewBox="0 0 56 61" fill="none" xmlns="http://www.w3.org/2000/svg">
<path d="M48.2929 38.2979C48.1594 38.5373 47.9637 38.7363 47.7265 38.8738C47.4893 39.0113 47.2194 39.0822 46.9453 39.0791H9.05466C8.78052 39.0822 8.51062 39.0113 8.27343 38.8738C8.03624 38.7363 7.84055 38.5373 7.707 38.2979C7.56386 38.0624 7.48816 37.7922 7.48816 37.5166C7.48816 37.2411 7.56386 36.9708 7.707 36.7354C10.6225 31.713 15.2892 27.9434 20.8125 26.1494C18.165 24.5751 16.1077 22.1752 14.9565 19.3182C13.8054 16.4613 13.624 13.3055 14.4404 10.3355C15.2567 7.36548 17.0256 4.74566 19.4752 2.87846C21.9249 1.01127 24.9198 0 28 0C31.0801 0 34.0751 1.01127 36.5247 2.87846C38.9744 4.74566 40.7432 7.36548 41.5596 10.3355C42.3759 13.3055 42.1946 16.4613 41.0434 19.3182C39.8922 22.1752 37.8349 24.5751 35.1875 26.1494C40.7107 27.9434 45.3774 31.713 48.2929 36.7354C48.4361 36.9708 48.5118 37.2411 48.5118 37.5166C48.5118 37.7922 48.4361 38.0624 48.2929 38.2979Z" fill="url(#paint0_linear_748_701)"/>
<g filter="url(#filter0_b_748_701)">
<rect y="30.3292" width="56" height="30" rx="2" fill="url(#paint1_linear_748_701)" fill-opacity="0.16"/>
</g>
<defs>
<filter id="filter0_b_748_701" x="-7" y="23.3292" width="70" height="43.9999" filterUnits="userSpaceOnUse" color-interpolation-filters="sRGB">
<feFlood flood-opacity="0" result="BackgroundImageFix"/>
<feGaussianBlur in="BackgroundImageFix" stdDeviation="3.5"/>
<feComposite in2="SourceAlpha" operator="in" result="effect1_backgroundBlur_748_701"/>
<feBlend mode="normal" in="SourceGraphic" in2="effect1_backgroundBlur_748_701" result="shape"/>
</filter>
<linearGradient id="paint0_linear_748_701" x1="28" y1="0" x2="28" y2="39.0792" gradientUnits="userSpaceOnUse">
<stop stop-color="#FE983F"/>
<stop offset="1" stop-color="#FF551F"/>
</linearGradient>
<linearGradient id="paint1_linear_748_701" x1="28" y1="30.3292" x2="28" y2="60.3292" gradientUnits="userSpaceOnUse">
<stop stop-color="#FE983F"/>
<stop offset="1" stop-color="#FF551F"/>
</linearGradient>
</defs>
</svg>
