<svg width="45" height="50" viewBox="0 0 45 50" fill="none" xmlns="http://www.w3.org/2000/svg">
<path d="M34.25 36.25L34.25 3.75C34.25 3.08696 33.9866 2.45107 33.5178 1.98223C33.0489 1.51339 32.413 1.25 31.75 1.25L14.25 1.25C13.587 1.25 12.9511 1.51339 12.4822 1.98223C12.0134 2.45107 11.75 3.08696 11.75 3.75L11.75 36.25C11.75 36.913 12.0134 37.5489 12.4822 38.0178C12.9511 38.4866 13.587 38.75 14.25 38.75L31.75 38.75C32.413 38.75 33.0489 38.4866 33.5178 38.0178C33.9866 37.5489 34.25 36.913 34.25 36.25ZM14.25 11.7187L21.0781 3.75L24.9219 3.75L31.75 11.7187L31.75 28.2812L24.9219 36.25L21.0781 36.25L14.25 28.2812L14.25 11.7187ZM23 26.25C21.7639 26.25 20.5555 25.8834 19.5277 25.1967C18.4999 24.5099 17.6988 23.5338 17.2258 22.3918C16.7527 21.2497 16.6289 19.9931 16.8701 18.7807C17.1112 17.5683 17.7065 16.4547 18.5806 15.5806C19.4547 14.7065 20.5683 14.1112 21.7807 13.8701C22.9931 13.6289 24.2497 13.7527 25.3918 14.2258C26.5338 14.6988 27.5099 15.4999 28.1967 16.5277C28.8834 17.5555 29.25 18.7639 29.25 20C29.25 21.6576 28.5915 23.2473 27.4194 24.4194C26.2473 25.5915 24.6576 26.25 23 26.25Z" fill="#0055FF"/>
<g filter="url(#filter0_b_796_470)">
<rect y="20" width="45" height="30" rx="2" fill="#0055FF" fill-opacity="0.16"/>
</g>
<defs>
<filter id="filter0_b_796_470" x="-7" y="13" width="59" height="44" filterUnits="userSpaceOnUse" color-interpolation-filters="sRGB">
<feFlood flood-opacity="0" result="BackgroundImageFix"/>
<feGaussianBlur in="BackgroundImageFix" stdDeviation="3.5"/>
<feComposite in2="SourceAlpha" operator="in" result="effect1_backgroundBlur_796_470"/>
<feBlend mode="normal" in="SourceGraphic" in2="effect1_backgroundBlur_796_470" result="shape"/>
</filter>
</defs>
</svg>
