<svg width="116" height="116" viewBox="0 0 116 116" fill="none" xmlns="http://www.w3.org/2000/svg">
<g filter="url(#filter0_dd_748_576)">
<circle cx="58" cy="58" r="37" fill="#F0F0F3"/>
</g>
<circle cx="23.5" cy="70.5" r="4.5" fill="#0055FF"/>
<circle cx="92.5" cy="23.5" r="4.5" fill="#0055FF"/>
<circle cx="96" cy="32" r="2" fill="url(#paint0_linear_748_576)"/>
<circle cx="90" cy="84" r="2" fill="#0055FF"/>
<circle cx="22" cy="37" r="2" fill="url(#paint1_linear_748_576)"/>
<circle cx="34" cy="95" r="2" fill="url(#paint2_linear_748_576)"/>
<circle cx="27.5" cy="61.5" r="2.5" fill="white"/>
<circle cx="30" cy="75" r="1" fill="#0055FF"/>
<circle cx="86" cy="21" r="1" fill="#0055FF"/>
<circle cx="89" cy="42" r="1" fill="white"/>
<circle cx="23.5" cy="70.5" r="4.5" fill="#0055FF"/>
<circle cx="92.5" cy="23.5" r="4.5" fill="#0055FF"/>
<circle cx="96" cy="32" r="2" fill="url(#paint3_linear_748_576)"/>
<circle cx="90" cy="84" r="2" fill="#0055FF"/>
<circle cx="22" cy="37" r="2" fill="url(#paint4_linear_748_576)"/>
<circle cx="34" cy="95" r="2" fill="url(#paint5_linear_748_576)"/>
<circle cx="27.5" cy="61.5" r="2.5" fill="white"/>
<circle cx="30" cy="75" r="1" fill="#0055FF"/>
<circle cx="86" cy="21" r="1" fill="#0055FF"/>
<circle cx="89" cy="42" r="1" fill="white"/>
<path d="M75.0953 45.482V53.357C75.0953 53.7051 74.9571 54.0389 74.7109 54.2851C74.4648 54.5312 74.1309 54.6695 73.7828 54.6695H65.9078C65.5598 54.6695 65.2259 54.5312 64.9798 54.2851C64.7336 54.0389 64.5953 53.7051 64.5953 53.357C64.5953 53.0089 64.7336 52.6751 64.9798 52.4289C65.2259 52.1828 65.5598 52.0445 65.9078 52.0445H70.6164L67.286 48.714C64.8199 46.2575 61.4809 44.8782 58 44.8782C54.5192 44.8782 51.1802 46.2575 48.7141 48.714C48.5934 48.8375 48.4492 48.9357 48.29 49.0027C48.1308 49.0697 47.9599 49.1042 47.7871 49.1042C47.6144 49.1042 47.4435 49.0697 47.2843 49.0027C47.1251 48.9357 46.9809 48.8375 46.8602 48.714C46.6147 48.468 46.4769 48.1346 46.4769 47.7871C46.4769 47.4395 46.6147 47.1062 46.8602 46.8601C49.8184 43.9127 53.8241 42.2577 58 42.2577C62.176 42.2577 66.1817 43.9127 69.1399 46.8601L72.4703 50.1906V45.482C72.4703 45.1339 72.6086 44.8001 72.8548 44.5539C73.1009 44.3078 73.4347 44.1695 73.7828 44.1695C74.1309 44.1695 74.4648 44.3078 74.7109 44.5539C74.9571 44.8001 75.0953 45.1339 75.0953 45.482ZM67.286 67.2859C64.8199 69.7425 61.4809 71.1217 58 71.1217C54.5192 71.1217 51.1802 69.7425 48.7141 67.2859L45.3836 63.9554H50.0922C50.4403 63.9554 50.7742 63.8171 51.0203 63.571C51.2664 63.3249 51.4047 62.991 51.4047 62.6429C51.4047 62.2948 51.2664 61.961 51.0203 61.7149C50.7742 61.4687 50.4403 61.3304 50.0922 61.3304H42.2172C41.8691 61.3304 41.5353 61.4687 41.2891 61.7149C41.043 61.961 40.9047 62.2948 40.9047 62.6429V70.5179C40.9047 70.866 41.043 71.1999 41.2891 71.446C41.5353 71.6922 41.8691 71.8304 42.2172 71.8304C42.5653 71.8304 42.8992 71.6922 43.1453 71.446C43.3914 71.1999 43.5297 70.866 43.5297 70.5179V65.8093L46.8602 69.1398C49.8163 72.0913 53.8228 73.749 58 73.749C62.1773 73.749 66.1838 72.0913 69.1399 69.1398C69.3853 68.8938 69.5232 68.5604 69.5232 68.2129C69.5232 67.8653 69.3853 67.5319 69.1399 67.2859C69.0192 67.1624 68.875 67.0642 68.7158 66.9972C68.5566 66.9302 68.3856 66.8957 68.2129 66.8957C68.0402 66.8957 67.8692 66.9302 67.7101 66.9972C67.5509 67.0642 67.4067 67.1624 67.286 67.2859Z" fill="black"/>
<defs>
<filter id="filter0_dd_748_576" x="0.466665" y="0.466665" width="115.067" height="115.067" filterUnits="userSpaceOnUse" color-interpolation-filters="sRGB">
<feFlood flood-opacity="0" result="BackgroundImageFix"/>
<feColorMatrix in="SourceAlpha" type="matrix" values="0 0 0 0 0 0 0 0 0 0 0 0 0 0 0 0 0 0 127 0" result="hardAlpha"/>
<feOffset dx="5.13333" dy="5.13333"/>
<feGaussianBlur stdDeviation="7.7"/>
<feColorMatrix type="matrix" values="0 0 0 0 0.682353 0 0 0 0 0.682353 0 0 0 0 0.752941 0 0 0 0.7 0"/>
<feBlend mode="normal" in2="BackgroundImageFix" result="effect1_dropShadow_748_576"/>
<feColorMatrix in="SourceAlpha" type="matrix" values="0 0 0 0 0 0 0 0 0 0 0 0 0 0 0 0 0 0 127 0" result="hardAlpha"/>
<feOffset dx="-5.13333" dy="-5.13333"/>
<feGaussianBlur stdDeviation="7.7"/>
<feColorMatrix type="matrix" values="0 0 0 0 1 0 0 0 0 1 0 0 0 0 1 0 0 0 1 0"/>
<feBlend mode="normal" in2="effect1_dropShadow_748_576" result="effect2_dropShadow_748_576"/>
<feBlend mode="normal" in="SourceGraphic" in2="effect2_dropShadow_748_576" result="shape"/>
</filter>
<linearGradient id="paint0_linear_748_576" x1="96" y1="30" x2="96" y2="34" gradientUnits="userSpaceOnUse">
<stop stop-color="#FE983F"/>
<stop offset="1" stop-color="#FF551F"/>
</linearGradient>
<linearGradient id="paint1_linear_748_576" x1="22" y1="35" x2="22" y2="39" gradientUnits="userSpaceOnUse">
<stop stop-color="#FE983F"/>
<stop offset="1" stop-color="#FF551F"/>
</linearGradient>
<linearGradient id="paint2_linear_748_576" x1="34" y1="93" x2="34" y2="97" gradientUnits="userSpaceOnUse">
<stop stop-color="#FE983F"/>
<stop offset="1" stop-color="#FF551F"/>
</linearGradient>
<linearGradient id="paint3_linear_748_576" x1="96" y1="30" x2="96" y2="34" gradientUnits="userSpaceOnUse">
<stop stop-color="#FE983F"/>
<stop offset="1" stop-color="#FF551F"/>
</linearGradient>
<linearGradient id="paint4_linear_748_576" x1="22" y1="35" x2="22" y2="39" gradientUnits="userSpaceOnUse">
<stop stop-color="#FE983F"/>
<stop offset="1" stop-color="#FF551F"/>
</linearGradient>
<linearGradient id="paint5_linear_748_576" x1="34" y1="93" x2="34" y2="97" gradientUnits="userSpaceOnUse">
<stop stop-color="#FE983F"/>
<stop offset="1" stop-color="#FF551F"/>
</linearGradient>
</defs>
</svg>
