<svg width="359" height="359" viewBox="0 0 359 359" fill="none" xmlns="http://www.w3.org/2000/svg">
<g filter="url(#filter0_dd_748_772)">
<circle cx="179.5" cy="179.5" r="158.5" fill="#F0F0F3"/>
</g>
<g filter="url(#filter1_dd_748_772)">
<circle cx="181" cy="180" r="128" fill="#F0F0F3"/>
</g>
<g filter="url(#filter2_dd_748_772)">
<circle cx="181" cy="180" r="97" fill="#F0F0F3"/>
</g>
<path d="M154.266 180.663C154.187 180.87 153.757 181.666 153.296 182.461C152.293 184.196 148.76 190.292 148.043 191.533C145.322 196.292 144.59 197.534 144.223 198.138C143.969 198.536 143.603 199.173 143.38 199.571C143.173 199.969 142.855 200.542 142.68 200.844C140.658 204.298 139.926 205.651 140.006 205.778C140.117 205.969 177.806 206.001 177.806 205.81C177.806 205.746 177.456 205.46 177.042 205.173C173.174 202.452 165.551 195.019 161.97 190.451C161.715 190.117 161.285 189.576 161.015 189.242C159.121 186.854 157.672 184.833 155.81 182.016C155.19 181.077 154.617 180.313 154.537 180.313C154.457 180.313 154.346 180.472 154.266 180.663Z" fill="url(#paint0_linear_748_772)"/>
<path d="M154.405 147.139C154.358 147.282 155.042 148.539 157.557 152.884C157.732 153.171 158.002 153.664 158.178 153.967C158.973 155.351 159.117 155.606 159.594 156.402C159.865 156.863 160.087 157.277 160.087 157.325C160.087 157.373 160.231 157.627 160.406 157.866C160.581 158.121 160.931 158.694 161.186 159.171C161.806 160.333 162.332 161.256 162.475 161.447C162.682 161.702 164.257 164.423 164.592 165.108C164.767 165.458 165.037 165.919 165.181 166.142C165.34 166.365 165.706 166.986 165.992 167.495C166.279 168.02 166.549 168.482 166.597 168.53C166.645 168.577 166.804 168.816 166.931 169.087C167.059 169.341 167.647 170.344 168.252 171.315C168.857 172.27 169.43 173.209 169.526 173.384C169.637 173.543 169.987 174.068 170.321 174.53C170.64 174.992 170.91 175.405 170.91 175.437C170.91 175.485 171.149 175.835 171.435 176.217C171.706 176.599 172.088 177.108 172.263 177.347C173.202 178.684 175.048 181.008 176.131 182.265C176.799 183.045 177.499 183.857 177.674 184.079C178.55 185.146 182.035 188.663 183.802 190.239C186.874 192.976 188.322 194.122 191.362 196.16C193.415 197.544 194.625 198.276 196.248 199.152C198.811 200.521 199.479 200.839 199.75 200.839C199.909 200.839 200.036 200.903 200.036 200.998C200.036 201.078 200.164 201.157 200.307 201.157C200.45 201.157 200.689 201.253 200.816 201.38C200.959 201.491 201.469 201.714 201.946 201.889C202.424 202.048 202.885 202.239 202.965 202.303C203.06 202.367 203.283 202.43 203.474 202.43C203.665 202.43 203.904 202.542 204.015 202.669C204.127 202.796 204.302 202.908 204.413 202.908C204.684 202.908 206.243 203.369 206.594 203.56C206.753 203.64 207.055 203.704 207.262 203.704C207.485 203.704 207.708 203.767 207.755 203.863C207.803 203.942 208.09 204.022 208.392 204.022C208.694 204.022 208.965 204.086 209.013 204.165C209.108 204.293 209.586 204.404 210.939 204.595C211.289 204.659 211.639 204.754 211.734 204.834C211.814 204.913 212.148 204.977 212.466 204.977C212.785 204.977 213.31 205.088 213.612 205.216C213.931 205.343 214.456 205.454 214.79 205.439C215.124 205.439 216.621 205.55 218.101 205.677C221.857 205.996 222 205.996 222 205.63C222 205.454 221.952 205.295 221.889 205.263C221.809 205.232 221.602 204.897 221.395 204.499C221.204 204.102 220.87 203.497 220.647 203.147C220.424 202.796 220.17 202.335 220.074 202.112C219.995 201.889 219.836 201.635 219.724 201.555C219.613 201.46 219.294 200.918 218.992 200.361C218.69 199.788 218.403 199.295 218.355 199.247C218.308 199.2 218.085 198.786 217.878 198.34C217.671 197.878 217.384 197.369 217.241 197.21C217.098 197.051 216.748 196.462 216.445 195.889C216.143 195.332 215.857 194.839 215.809 194.791C215.761 194.743 215.506 194.297 215.252 193.772C214.997 193.263 214.711 192.77 214.615 192.658C214.52 192.563 214.281 192.165 214.074 191.767C213.485 190.637 212.323 188.568 212.1 188.281C211.989 188.138 211.75 187.74 211.575 187.39C211.4 187.04 211.209 186.721 211.161 186.674C211.114 186.626 210.939 186.34 210.779 186.037C210.62 185.735 210.27 185.082 209.984 184.605C209.697 184.127 209.045 183.013 208.535 182.138C208.026 181.262 207.533 180.498 207.453 180.435C207.357 180.371 207.326 180.307 207.389 180.307C207.453 180.307 207.294 179.941 207.039 179.512C206.769 179.066 206.562 178.636 206.562 178.557C206.562 178.461 206.498 178.398 206.403 178.398C206.323 178.398 206.243 178.318 206.243 178.238C206.243 178.143 205.941 177.586 205.591 176.997C205.225 176.408 204.731 175.564 204.493 175.135C204.254 174.689 203.904 174.084 203.729 173.782C203.538 173.48 203.299 173.05 203.188 172.827C203.076 172.604 202.79 172.127 202.551 171.761C202.312 171.395 202.105 171.06 202.105 171.013C202.105 170.981 201.898 170.599 201.66 170.169C200.689 168.546 200.068 167.463 199.686 166.779C199.352 166.206 196.996 162.1 195.405 159.33C195.23 159.06 194.975 158.582 194.8 158.296C194.641 158.025 194.131 157.134 193.67 156.354C193.208 155.558 192.651 154.603 192.428 154.205C192.206 153.808 191.696 152.932 191.298 152.248C190.901 151.547 190.439 150.768 190.28 150.497C190.105 150.211 189.818 149.701 189.643 149.351C189.452 149.001 189.261 148.683 189.213 148.635C189.166 148.587 188.943 148.221 188.736 147.807L188.338 147.043L171.404 147.011C159.419 146.98 154.453 147.011 154.405 147.139Z" fill="#0055FF"/>
<circle cx="83.2984" cy="216.798" r="5.29839" fill="#0055FF"/>
<circle cx="271.277" cy="109.709" r="5.70896" fill="#0055FF"/>
<circle cx="275.717" cy="120.493" r="2.53731" fill="url(#paint1_linear_748_772)"/>
<circle cx="268.105" cy="186.463" r="2.53731" fill="#0055FF"/>
<circle cx="81.5323" cy="177.355" r="2.35484" fill="url(#paint2_linear_748_772)"/>
<circle cx="95.6613" cy="245.645" r="2.35484" fill="url(#paint3_linear_748_772)"/>
<circle cx="88.0081" cy="206.202" r="2.94355" fill="white"/>
<circle cx="90.9516" cy="222.097" r="1.17742" fill="#0055FF"/>
<circle cx="263.03" cy="106.537" r="1.26866" fill="#0055FF"/>
<circle cx="266.836" cy="133.179" r="1.26866" fill="white"/>
<defs>
<filter id="filter0_dd_748_772" x="0.466665" y="0.466665" width="358.067" height="358.067" filterUnits="userSpaceOnUse" color-interpolation-filters="sRGB">
<feFlood flood-opacity="0" result="BackgroundImageFix"/>
<feColorMatrix in="SourceAlpha" type="matrix" values="0 0 0 0 0 0 0 0 0 0 0 0 0 0 0 0 0 0 127 0" result="hardAlpha"/>
<feOffset dx="5.13333" dy="5.13333"/>
<feGaussianBlur stdDeviation="7.7"/>
<feColorMatrix type="matrix" values="0 0 0 0 0.682353 0 0 0 0 0.682353 0 0 0 0 0.752941 0 0 0 0.7 0"/>
<feBlend mode="normal" in2="BackgroundImageFix" result="effect1_dropShadow_748_772"/>
<feColorMatrix in="SourceAlpha" type="matrix" values="0 0 0 0 0 0 0 0 0 0 0 0 0 0 0 0 0 0 127 0" result="hardAlpha"/>
<feOffset dx="-5.13333" dy="-5.13333"/>
<feGaussianBlur stdDeviation="7.7"/>
<feColorMatrix type="matrix" values="0 0 0 0 1 0 0 0 0 1 0 0 0 0 1 0 0 0 1 0"/>
<feBlend mode="normal" in2="effect1_dropShadow_748_772" result="effect2_dropShadow_748_772"/>
<feBlend mode="normal" in="SourceGraphic" in2="effect2_dropShadow_748_772" result="shape"/>
</filter>
<filter id="filter1_dd_748_772" x="32.4667" y="31.4667" width="297.067" height="297.067" filterUnits="userSpaceOnUse" color-interpolation-filters="sRGB">
<feFlood flood-opacity="0" result="BackgroundImageFix"/>
<feColorMatrix in="SourceAlpha" type="matrix" values="0 0 0 0 0 0 0 0 0 0 0 0 0 0 0 0 0 0 127 0" result="hardAlpha"/>
<feOffset dx="5.13333" dy="5.13333"/>
<feGaussianBlur stdDeviation="7.7"/>
<feColorMatrix type="matrix" values="0 0 0 0 0.682353 0 0 0 0 0.682353 0 0 0 0 0.752941 0 0 0 0.7 0"/>
<feBlend mode="normal" in2="BackgroundImageFix" result="effect1_dropShadow_748_772"/>
<feColorMatrix in="SourceAlpha" type="matrix" values="0 0 0 0 0 0 0 0 0 0 0 0 0 0 0 0 0 0 127 0" result="hardAlpha"/>
<feOffset dx="-5.13333" dy="-5.13333"/>
<feGaussianBlur stdDeviation="7.7"/>
<feColorMatrix type="matrix" values="0 0 0 0 1 0 0 0 0 1 0 0 0 0 1 0 0 0 1 0"/>
<feBlend mode="normal" in2="effect1_dropShadow_748_772" result="effect2_dropShadow_748_772"/>
<feBlend mode="normal" in="SourceGraphic" in2="effect2_dropShadow_748_772" result="shape"/>
</filter>
<filter id="filter2_dd_748_772" x="63.4667" y="62.4667" width="235.067" height="235.067" filterUnits="userSpaceOnUse" color-interpolation-filters="sRGB">
<feFlood flood-opacity="0" result="BackgroundImageFix"/>
<feColorMatrix in="SourceAlpha" type="matrix" values="0 0 0 0 0 0 0 0 0 0 0 0 0 0 0 0 0 0 127 0" result="hardAlpha"/>
<feOffset dx="5.13333" dy="5.13333"/>
<feGaussianBlur stdDeviation="7.7"/>
<feColorMatrix type="matrix" values="0 0 0 0 0.682353 0 0 0 0 0.682353 0 0 0 0 0.752941 0 0 0 0.7 0"/>
<feBlend mode="normal" in2="BackgroundImageFix" result="effect1_dropShadow_748_772"/>
<feColorMatrix in="SourceAlpha" type="matrix" values="0 0 0 0 0 0 0 0 0 0 0 0 0 0 0 0 0 0 127 0" result="hardAlpha"/>
<feOffset dx="-5.13333" dy="-5.13333"/>
<feGaussianBlur stdDeviation="7.7"/>
<feColorMatrix type="matrix" values="0 0 0 0 1 0 0 0 0 1 0 0 0 0 1 0 0 0 1 0"/>
<feBlend mode="normal" in2="effect1_dropShadow_748_772" result="effect2_dropShadow_748_772"/>
<feBlend mode="normal" in="SourceGraphic" in2="effect2_dropShadow_748_772" result="shape"/>
</filter>
<linearGradient id="paint0_linear_748_772" x1="158.903" y1="180.313" x2="158.903" y2="205.938" gradientUnits="userSpaceOnUse">
<stop stop-color="#FE983F"/>
<stop offset="1" stop-color="#FF551F"/>
</linearGradient>
<linearGradient id="paint1_linear_748_772" x1="275.717" y1="117.955" x2="275.717" y2="123.03" gradientUnits="userSpaceOnUse">
<stop stop-color="#FE983F"/>
<stop offset="1" stop-color="#FF551F"/>
</linearGradient>
<linearGradient id="paint2_linear_748_772" x1="81.5323" y1="175" x2="81.5323" y2="179.71" gradientUnits="userSpaceOnUse">
<stop stop-color="#FE983F"/>
<stop offset="1" stop-color="#FF551F"/>
</linearGradient>
<linearGradient id="paint3_linear_748_772" x1="95.6613" y1="243.29" x2="95.6613" y2="248" gradientUnits="userSpaceOnUse">
<stop stop-color="#FE983F"/>
<stop offset="1" stop-color="#FF551F"/>
</linearGradient>
</defs>
</svg>
