<svg width="265" height="265" fill="none" xmlns="http://www.w3.org/2000/svg"><g filter="url(#a)"><circle cx="132.5" cy="132.721" r="111.5" fill="#F0F0F3"/></g><path d="M88.848 128.206h9.834v9.834h-9.834v-9.834zm19.52 19.814h9.833v9.834h-9.833v-9.834zm0-19.814h9.833v9.834h-9.833v-9.834zm19.715 0h9.834v9.834h-9.834v-9.834zm19.716 0h9.834v9.834h-9.834v-9.834zm19.716 0h9.833v9.834h-9.833v-9.834zm-19.716-19.519h9.834v9.833h-9.834v-9.833zm-44.348 53.985h19.667v19.667h-19.667v-19.667zm39.432-78.568h19.666v19.666h-19.666V84.104z" fill="#05F"/><defs><filter id="a" x=".467" y=".688" width="264.067" height="264.067" filterUnits="userSpaceOnUse" color-interpolation-filters="sRGB"><feFlood flood-opacity="0" result="BackgroundImageFix"/><feColorMatrix in="SourceAlpha" values="0 0 0 0 0 0 0 0 0 0 0 0 0 0 0 0 0 0 127 0" result="hardAlpha"/><feOffset dx="5.133" dy="5.133"/><feGaussianBlur stdDeviation="7.7"/><feColorMatrix values="0 0 0 0 0.682353 0 0 0 0 0.682353 0 0 0 0 0.752941 0 0 0 0.4 0"/><feBlend in2="BackgroundImageFix" result="effect1_dropShadow_62_10"/><feColorMatrix in="SourceAlpha" values="0 0 0 0 0 0 0 0 0 0 0 0 0 0 0 0 0 0 127 0" result="hardAlpha"/><feOffset dx="-5.133" dy="-5.133"/><feGaussianBlur stdDeviation="7.7"/><feColorMatrix values="0 0 0 0 1 0 0 0 0 1 0 0 0 0 1 0 0 0 1 0"/><feBlend in2="effect1_dropShadow_62_10" result="effect2_dropShadow_62_10"/><feBlend in="SourceGraphic" in2="effect2_dropShadow_62_10" result="shape"/></filter></defs></svg>