<svg width="265" height="265" fill="none" xmlns="http://www.w3.org/2000/svg"><g filter="url(#a)"><circle cx="132.5" cy="132.721" r="111.5" fill="#F0F0F3"/></g><g clip-path="url(#b)"><path d="M182.167 74.221H83.833A9.833 9.833 0 0 0 74 84.055v98.333a9.833 9.833 0 0 0 9.833 9.833h98.334a9.833 9.833 0 0 0 9.833-9.833V84.054a9.834 9.834 0 0 0-9.833-9.833zM103.5 152.888a4.923 4.923 0 0 1-4.542-3.035 4.918 4.918 0 0 1 6.424-6.424 4.913 4.913 0 0 1 1.593 8.017 4.92 4.92 0 0 1-3.475 1.442zm78.667-49.167h-10.738a14.75 14.75 0 1 0 0 9.834h10.738v19.666H162.5v9.834h19.667v9.833h-9.834v9.833h9.834v19.667h-39.334v-5.821a14.745 14.745 0 0 0 7.806-6.444 14.748 14.748 0 0 0-22.229-18.74 14.744 14.744 0 0 0-3.216 18.74 14.752 14.752 0 0 0 7.806 6.444v5.821h-24.583v-20.571a14.752 14.752 0 0 0 4.59-25.184 14.749 14.749 0 0 0-22.23 18.74 14.749 14.749 0 0 0 7.806 6.444v20.571h-14.75V84.054H103.5v29.501h9.833v-29.5h9.834v49.166H133V84.055h49.167v19.666zm-19.667 4.917a4.913 4.913 0 0 1-5.876 4.822 4.912 4.912 0 0 1-2.517-1.346 4.912 4.912 0 0 1-1.066-5.358 4.913 4.913 0 0 1 4.542-3.035 4.921 4.921 0 0 1 4.917 4.917z" fill="#05F"/></g><defs><clipPath id="b"><path fill="#fff" transform="translate(74 74.221)" d="M0 0h118v118H0z"/></clipPath><filter id="a" x=".467" y=".688" width="264.067" height="264.067" filterUnits="userSpaceOnUse" color-interpolation-filters="sRGB"><feFlood flood-opacity="0" result="BackgroundImageFix"/><feColorMatrix in="SourceAlpha" values="0 0 0 0 0 0 0 0 0 0 0 0 0 0 0 0 0 0 127 0" result="hardAlpha"/><feOffset dx="5.133" dy="5.133"/><feGaussianBlur stdDeviation="7.7"/><feColorMatrix values="0 0 0 0 0.682353 0 0 0 0 0.682353 0 0 0 0 0.752941 0 0 0 0.4 0"/><feBlend in2="BackgroundImageFix" result="effect1_dropShadow_66_6"/><feColorMatrix in="SourceAlpha" values="0 0 0 0 0 0 0 0 0 0 0 0 0 0 0 0 0 0 127 0" result="hardAlpha"/><feOffset dx="-5.133" dy="-5.133"/><feGaussianBlur stdDeviation="7.7"/><feColorMatrix values="0 0 0 0 1 0 0 0 0 1 0 0 0 0 1 0 0 0 1 0"/><feBlend in2="effect1_dropShadow_66_6" result="effect2_dropShadow_66_6"/><feBlend in="SourceGraphic" in2="effect2_dropShadow_66_6" result="shape"/></filter></defs></svg>