<svg width="265" height="265" fill="none" xmlns="http://www.w3.org/2000/svg"><g filter="url(#a)"><circle cx="132.5" cy="132.221" r="111.5" fill="#F0F0F3"/></g><g clip-path="url(#b)"><path d="m133 113.055-14.75 8.604v17.208l14.75 8.604 14.75-8.604v-17.208L133 113.055zm7.459 10.03-7.523 4.385-7.458-4.351 7.522-4.386 7.459 4.352zm-17.342 4.336 7.297 4.258v8.604l-7.297-4.253v-8.609zm12.164 13.044v-8.688l7.601-4.435v8.688l-7.601 4.435zM88.75 73.721 74 82.325v17.209l14.75 8.604 14.75-8.604V82.325l-14.75-8.604zm7.459 10.03-7.523 4.386-7.459-4.351L88.75 79.4l7.459 4.351zm-17.341 4.332 7.296 4.258v8.604l-7.296-4.243v-8.62zm12.163 13.044v-8.683l7.601-4.435v8.688l-7.6 4.43zm-2.281 56.178L74 165.909v17.208l14.75 8.604 14.75-8.604v-17.208l-14.75-8.604zm7.459 10.03-7.523 4.385-7.459-4.351 7.523-4.386 7.459 4.352zm-17.341 4.336 7.296 4.258v8.604l-7.296-4.248v-8.614zm12.163 13.044v-8.688l7.601-4.435v8.688l-7.6 4.435zM177.25 73.721l-14.75 8.604v17.209l14.75 8.604L192 99.534V82.325l-14.75-8.604zm7.459 10.03-7.523 4.386-7.459-4.351 7.523-4.386 7.459 4.351zm-17.342 4.337 7.297 4.258v8.604l-7.297-4.253v-8.61zm12.164 13.044v-8.688l7.601-4.435v8.688l-7.601 4.435zm-2.281 56.173-14.75 8.604v17.208l14.75 8.604 14.75-8.604v-17.208l-14.75-8.604zm7.459 10.03-7.523 4.385-7.459-4.351 7.523-4.386 7.459 4.352zm-17.342 4.336 7.297 4.258v8.604l-7.297-4.253v-8.609zm12.164 13.044v-8.688l7.601-4.435v8.688l-7.601 4.435zM118.25 88.471h29.5v4.917h-29.5V88.47zm0 83.584h29.5v4.916h-29.5v-4.916zm-27.042-54.084v29.5h-4.916v-29.5h4.916zm18.649-.845-10.428-10.429 3.476-3.476 10.428 10.424-3.476 3.481zm42.81-2.631 10.428-10.428 3.476 3.476-10.428 10.428-3.476-3.476zm-38.704 32.381-10.429 10.429-3.476-3.477 10.429-10.428 3.476 3.476zm43.025-3.687 10.429 10.428-3.476 3.476-10.429-10.428 3.476-3.476zm22.72-25.218v29.5h-4.916v-29.5h4.916z" fill="#05F"/></g><defs><clipPath id="b"><path fill="#fff" transform="translate(74 73.721)" d="M0 0h118v118H0z"/></clipPath><filter id="a" x=".467" y=".188" width="264.067" height="264.067" filterUnits="userSpaceOnUse" color-interpolation-filters="sRGB"><feFlood flood-opacity="0" result="BackgroundImageFix"/><feColorMatrix in="SourceAlpha" values="0 0 0 0 0 0 0 0 0 0 0 0 0 0 0 0 0 0 127 0" result="hardAlpha"/><feOffset dx="5.133" dy="5.133"/><feGaussianBlur stdDeviation="7.7"/><feColorMatrix values="0 0 0 0 0.682353 0 0 0 0 0.682353 0 0 0 0 0.752941 0 0 0 0.4 0"/><feBlend in2="BackgroundImageFix" result="effect1_dropShadow_62_6"/><feColorMatrix in="SourceAlpha" values="0 0 0 0 0 0 0 0 0 0 0 0 0 0 0 0 0 0 127 0" result="hardAlpha"/><feOffset dx="-5.133" dy="-5.133"/><feGaussianBlur stdDeviation="7.7"/><feColorMatrix values="0 0 0 0 1 0 0 0 0 1 0 0 0 0 1 0 0 0 1 0"/><feBlend in2="effect1_dropShadow_62_6" result="effect2_dropShadow_62_6"/><feBlend in="SourceGraphic" in2="effect2_dropShadow_62_6" result="shape"/></filter></defs></svg>