<svg width="91" height="91" viewBox="0 0 91 91" fill="none" xmlns="http://www.w3.org/2000/svg">
<path d="M83.6063 1.67071C82.842 2.0084 81.8822 2.8793 81.4912 3.62578V3.62578C81.2718 4.0207 80.8556 4.26563 80.4038 4.26563H77.8477V4.26563C75.7423 4.26563 73.7232 5.10197 72.2345 6.59066L71.3604 7.46485C69.6008 9.22442 68.1256 10.6641 68.0723 10.6641C68.0012 10.6641 67.0592 10.1486 65.975 9.52656C60.5186 6.41621 54.991 4.74551 48.3082 4.15899V4.15899C47.5604 4.10146 46.9219 4.69274 46.9219 5.44277V9.82871V14.6571C46.9219 15.1971 47.3273 15.651 47.8639 15.7117V15.7117C52.5205 16.2805 55.5953 17.1869 59.1855 19.0354C62.0293 20.5105 64.2688 22.1457 66.5615 24.4385C68.9254 26.8023 70.525 29.024 72.0535 31.9922C73.7598 35.3514 74.7729 38.8705 75.2883 43.225V43.225C75.3388 43.7098 75.7474 44.0781 76.2349 44.0781H81.1535C86.6811 44.0781 86.9121 44.0604 86.9121 43.7404C86.9121 42.834 86.5033 39.5104 86.2012 37.8396C84.4061 28.2242 78.8252 18.982 71.2715 13.1168V13.1168C70.9396 12.8513 70.9122 12.3563 71.2127 12.0558L73.4043 9.86426L74.3997 8.8689C75.5254 7.74317 77.0555 7.11578 78.6475 7.12715V7.12715H80.1447C80.7621 7.12715 81.3368 7.44212 81.6689 7.9625V7.9625C82.5043 9.25996 83.4818 9.84649 84.957 9.91758C86.45 10.0064 87.2676 9.75762 88.2096 8.90449C89.1871 8.0336 89.5781 7.10938 89.5781 5.6875C89.5781 3.83907 88.6361 2.36387 87.0543 1.70625C86.2367 1.36856 84.3527 1.35078 83.6063 1.67071ZM86.2012 4.79883C86.3967 4.99434 86.5566 5.38535 86.5566 5.6875C86.5566 5.98965 86.3967 6.38067 86.2012 6.57617C86.0057 6.77168 85.6147 6.93164 85.3125 6.93164C85.0104 6.93164 84.6193 6.77168 84.4238 6.57617C84.2283 6.38067 84.0684 5.98965 84.0684 5.6875C84.0684 5.38535 84.2283 4.99434 84.4238 4.79883C84.6193 4.60332 85.0104 4.44336 85.3125 4.44336C85.6147 4.44336 86.0057 4.60332 86.2012 4.79883ZM51.8096 7.64258C61.8516 9.24219 71.5559 15.534 77.3855 24.2607C80.5137 28.9352 82.842 34.907 83.4996 40.0258V40.0258C83.5843 40.6659 83.0862 41.2344 82.4404 41.2344H80.8336C78.0965 41.2344 78.0254 41.2166 78.0254 40.8611C78.0254 40.0791 77.2789 36.8621 76.6746 35.0314C73.8842 26.6424 67.6457 19.6041 59.6299 15.8006C58.6523 15.3385 56.9994 14.6809 55.9686 14.3254C54.1557 13.7211 50.9209 12.9746 50.1389 12.9746C49.7834 12.9746 49.7656 12.9035 49.7656 10.1309V7.70204C49.7656 7.48538 49.961 7.32108 50.1744 7.35821V7.35821C50.3877 7.41153 51.1342 7.53594 51.8096 7.64258Z" fill="black"/>
<path d="M42.123 4.2123C41.7853 4.24785 40.5767 4.39004 39.457 4.55C29.806 5.88301 20.2795 11.1617 13.9166 18.751C8.17576 25.5937 4.90544 33.5918 4.15896 42.6029V42.6029C4.09201 43.3968 4.7183 44.0781 5.51498 44.0781H9.82869H14.7631C15.2542 44.0781 15.6685 43.7124 15.7295 43.225V43.225C16.3338 38.2662 17.1513 35.4758 19.0353 31.8145C20.5105 28.9707 22.1457 26.7312 24.4385 24.4385C26.7312 22.1457 28.9707 20.5105 31.8144 19.0354C35.4047 17.1869 38.4795 16.2805 43.1539 15.7117V15.7117C43.6806 15.6509 44.0781 15.2049 44.0781 14.6747V9.84648V4.74647C44.0781 4.38864 43.7778 4.10412 43.4205 4.12344V4.12344C43.0472 4.12344 42.4607 4.17676 42.123 4.2123ZM41.2344 10.0953V11.5184C41.2344 12.3157 40.6535 12.994 39.8658 13.1168V13.1168C39.1193 13.2412 38.4795 13.2945 38.4261 13.2412C38.3551 13.1701 37.3597 8.51348 37.3242 8.14023C37.3242 8.07402 37.7923 7.93735 38.5517 7.77306C40.2439 7.407 41.2288 8.16302 41.234 9.8943C41.2343 9.96067 41.2344 10.0277 41.2344 10.0953ZM34.907 11.4639C34.917 11.514 34.9269 11.5639 34.9367 11.6134C35.266 13.2864 34.1398 16.242 32.9342 15.0363V15.0363C32.8097 14.9119 30.9435 10.3975 30.9258 10.2197C30.9258 10.0242 33.6451 8.90449 34.125 8.88672C34.3383 8.88672 34.516 9.47324 34.907 11.4639ZM29.1306 13.9877C29.6283 15.1963 30.0371 16.2449 30.0371 16.3338C30.0371 16.4937 28.2064 17.5957 27.9398 17.5957C27.8154 17.5957 26.7845 16.1383 25.1672 13.6678V13.6678C25.0021 13.4056 25.0876 13.0589 25.3557 12.9035L26.4291 12.2814C27.531 11.6416 28.0109 11.4461 28.0998 11.6061C28.1709 11.7127 28.633 12.7969 29.1306 13.9877ZM23.8164 17.2402C24.5984 18.4133 25.2383 19.4086 25.2383 19.4619C25.2383 19.5686 24.6162 20.1195 23.7275 20.8305C23.3543 21.1148 23.301 21.0793 21.4347 19.2131L20.7367 18.515C20.0883 17.8667 20.1316 16.8029 20.8304 16.2094V16.2094V16.2094C21.7528 15.4485 22.6586 15.5541 23.339 16.5373C23.4915 16.7577 23.6524 16.9943 23.8164 17.2402ZM20.8304 23.7275C20.1195 24.6162 19.5685 25.2383 19.4619 25.2383C19.3019 25.2383 15.1074 22.3945 15.1074 22.2879C15.1074 22.2346 15.6051 21.5947 16.2094 20.866V20.866C16.8003 20.1511 17.8784 20.1001 18.5343 20.756L19.2131 21.4348C21.0793 23.301 21.1148 23.3543 20.8304 23.7275ZM15.4629 26.3225C16.6359 27.1223 17.5957 27.8332 17.5957 27.9221C17.5957 28.1887 16.5115 30.0371 16.3515 30.0371C16.2804 30.0371 15.1252 29.5928 13.7922 29.0418C11.0551 27.9043 11.1972 28.2598 12.4947 26.0736C12.8679 25.416 13.2234 24.8828 13.2767 24.8828C13.3123 24.8828 14.3076 25.5227 15.4629 26.3225ZM12.5836 31.85C13.8277 32.3477 14.8941 32.8098 14.983 32.8809C15.0896 32.9697 14.3609 35.1025 14.1476 35.3336C13.9521 35.5113 8.88669 34.4094 8.88669 34.1783C8.88669 33.7873 10.0242 30.9258 10.1842 30.9258C10.2552 30.9258 11.3394 31.3346 12.5836 31.85ZM10.7174 37.8396C12.0681 38.124 13.2056 38.3906 13.2412 38.4262C13.2945 38.4795 13.2412 39.1193 13.1168 39.8658V39.8658C12.994 40.6535 12.3156 41.2344 11.5184 41.2344H10.0953H7.70201C7.48536 41.2344 7.32106 41.039 7.35818 40.8256V40.8256C7.4115 40.6123 7.50037 40.1146 7.55369 39.7236V39.7236C7.80808 38.0913 8.95847 37.4922 10.5792 37.8124C10.625 37.8214 10.6711 37.8305 10.7174 37.8396Z" fill="black"/>
<path d="M47.3662 21.9859C46.3886 23.3011 45.5177 24.4208 45.4289 24.4741C45.3578 24.5275 44.4869 23.781 43.5271 22.8212V22.8212C42.4338 21.7389 40.8569 21.3019 39.3624 21.6671L37.8396 22.0392C37.5994 22.0987 37.363 22.1576 37.1324 22.2153C34.8737 22.7807 34.0154 24.2624 34.8016 26.4539C35.0872 27.2498 35.4221 28.159 35.7957 29.1486L37.7126 34.2706C37.8958 34.76 37.755 35.3118 37.3597 35.6536V35.6536C34.3027 38.2663 31.7611 40.6124 31.0502 41.5011C29.1839 43.7939 27.8865 46.6021 27.2644 49.6058C26.8201 51.8452 26.98 55.8976 27.6199 58.0304C28.5619 61.1585 30.0371 63.6468 32.2588 65.8507C34.516 68.1079 36.9509 69.5476 40.0791 70.4896C41.4832 70.9161 42.0697 70.9695 44.8246 71.0583C48.397 71.1472 49.8545 70.9339 52.4672 69.9564C57.0527 68.2323 61.1228 64.1622 62.8468 59.5767C63.6822 57.3195 63.9843 55.631 63.9843 53.0538C63.9843 48.6282 62.6513 44.8247 59.9498 41.5011C59.2388 40.6124 56.6972 38.2663 53.6402 35.6359V35.6359C53.2326 35.2926 53.076 34.7352 53.2454 34.2299L55.1865 28.4376C55.627 27.1224 56.0331 25.8898 56.3703 24.8485C57.0408 22.7774 56.2691 21.4053 54.1578 20.8744C53.8488 20.7966 53.5266 20.7164 53.1959 20.6351L51.9962 20.3312C50.2601 19.8915 48.4304 20.5454 47.3662 21.9859V21.9859ZM51.3652 23.2655C51.7029 23.3722 52.325 23.5321 52.7338 23.6388V23.6388C53.1264 23.7345 53.3537 24.1449 53.2267 24.5286L51.7562 28.9708L51.4755 29.8101C50.6134 32.3875 48.2 34.1251 45.4822 34.1251V34.1251V34.1251C42.7451 34.1251 40.2949 32.4279 39.3327 29.8655L39.297 29.7706C38.3906 27.3712 37.6974 25.345 37.7507 25.2739C37.8041 25.1851 38.4972 24.9718 39.2793 24.7941V24.7941C40.1744 24.5841 41.1144 24.8519 41.7645 25.502L43.1894 26.9269V26.9269C44.4827 28.2202 46.6224 28.0652 47.7158 26.599L47.9882 26.2337C49.2857 24.5097 50.441 23.1056 50.5476 23.1056C50.6543 23.1056 51.0275 23.1767 51.3652 23.2655ZM53.4625 39.5816C57.4615 43.1185 58.2791 44.0427 59.5054 46.4777C60.5007 48.4683 60.8207 49.8191 60.9095 52.4318C60.9806 54.4579 60.9451 55.08 60.6252 56.3952C59.2744 62.065 54.9554 66.3839 49.2857 67.7347C47.3306 68.1968 43.9359 68.2501 41.9808 67.8236C36.2756 66.5972 31.7433 62.1183 30.3748 56.3952C30.0548 55.08 30.0193 54.4579 30.0904 52.4318C30.1793 49.8191 30.4992 48.4683 31.4945 46.4777C32.7209 44.0427 33.4673 43.1896 37.3953 39.6882V39.6882C39.3531 37.9479 41.8815 36.9866 44.5009 36.9866H45.4644L46.5401 36.9828C49.0876 36.9738 51.5502 37.8983 53.4625 39.5816V39.5816Z" fill="black"/>
<path d="M44.0781 44.0781V44.9312C44.0781 45.2454 43.8235 45.5 43.5094 45.5V45.5C42.2297 45.5178 40.6479 46.673 40.0969 48.0238C39.7059 48.948 39.7414 50.7432 40.1502 51.6318C40.3279 52.0229 40.7545 52.5916 41.0744 52.9115C42.0342 53.818 42.7629 54.0312 44.8779 54.0312C47.6328 54.0312 48.4504 54.5111 48.0949 55.9152C47.8994 56.6262 47.0641 56.875 44.7002 56.875H43.3672C42.9745 56.875 42.6563 56.5567 42.6563 56.1641V56.1641V56.1641C42.6563 55.7714 42.338 55.4531 41.9453 55.4531H41.2344V55.4531C40.4491 55.4531 39.8125 56.0897 39.8125 56.875V57.5859V57.5859C39.8125 58.7639 40.7674 59.7187 41.9453 59.7187V59.7187H42.6563C43.4415 59.7187 44.0781 60.3553 44.0781 61.1406V61.1406V61.1406C44.0781 61.9259 44.7147 62.5625 45.5 62.5625V62.5625V62.5625C46.2853 62.5625 46.9219 61.9259 46.9219 61.1406V61.1406V60.252C46.9219 59.9575 47.1606 59.7187 47.4551 59.7187V59.7187C48.717 59.7187 50.2277 58.6346 50.8498 57.3193C51.0631 56.8572 51.1875 56.1996 51.1875 55.4531C51.1875 54.0846 50.7965 53.1426 49.9256 52.3072C48.9658 51.4008 48.2371 51.1875 46.1221 51.1875C43.3672 51.1875 42.5496 50.7076 42.9051 49.3035C43.1006 48.5926 43.9359 48.3437 46.2998 48.3437H47.6328C48.0255 48.3437 48.3438 48.662 48.3438 49.0547V49.0547V49.0547C48.3438 49.4473 48.662 49.7656 49.0547 49.7656H49.7656V49.7656C50.5509 49.7656 51.1875 49.129 51.1875 48.3437V47.6328V47.6328C51.1875 46.4549 50.2326 45.5 49.0547 45.5V45.5H48.3438C47.5585 45.5 46.9219 44.8634 46.9219 44.0781V44.0781V44.0781C46.9219 43.2928 46.2853 42.6562 45.5 42.6562V42.6562V42.6562C44.7147 42.6562 44.0781 43.2928 44.0781 44.0781V44.0781Z" fill="black"/>
<path d="M4.17676 48.3792C4.94102 57.8347 8.37129 65.9038 14.6453 73.0843C15.8717 74.4884 18.2711 76.7456 19.7285 77.8831V77.8831C20.0604 78.1486 20.0878 78.6436 19.7873 78.9441L17.5957 81.1357L16.6129 82.1185C15.4782 83.2531 13.9394 83.8906 12.3348 83.8906V83.8906C9.86426 83.8906 9.82871 83.8906 9.6332 83.464C9.29551 82.7175 8.28242 81.7044 7.55371 81.3845C6.66504 80.9757 4.85215 80.9402 3.9457 81.3312C2.36387 81.9888 1.42188 83.464 1.42188 85.3124C1.42188 87.1609 2.36387 88.6361 3.9457 89.2937C4.85215 89.6847 6.66504 89.6491 7.55371 89.2404C8.28242 88.9204 9.29551 87.9074 9.6332 87.1609V87.1609C9.75233 86.9009 10.012 86.7343 10.2979 86.7343H13.1346V86.7343C15.2519 86.7343 17.2831 85.8962 18.7844 84.4031L19.693 83.4995L22.4505 80.7269C22.7319 80.4439 23.1684 80.3856 23.5143 80.5847V80.5847C29.9838 84.4415 35.4047 86.2011 42.7096 86.8409V86.8409C43.4476 86.8985 44.0781 86.3151 44.0781 85.5749V81.1712V76.3252C44.0781 75.795 43.6806 75.349 43.1539 75.2882V75.2882C38.4795 74.7195 35.4047 73.813 31.8145 71.9646C28.9707 70.4894 26.7313 68.8542 24.4385 66.5615C22.1457 64.2687 20.5105 62.0292 19.0354 59.1855C17.1514 55.5242 16.3338 52.7337 15.7295 47.7572V47.7572C15.6685 47.2796 15.2621 46.9218 14.7807 46.9218H9.82871H5.51507C4.72818 46.9218 4.10983 47.5952 4.17676 48.3792V48.3792ZM12.9746 50.1388C12.9746 50.9208 13.7211 54.1556 14.3254 55.9685C16.6537 62.9001 21.1682 68.8009 27.3711 72.9599C29.3262 74.2751 32.6498 75.8747 35.0314 76.6745C36.8621 77.2788 40.0791 78.0253 40.8611 78.0253C41.2166 78.0253 41.2344 78.0964 41.2344 80.8691V83.3154C41.2344 83.5223 41.047 83.6787 40.8434 83.6417V83.6417C40.6123 83.5884 39.8836 83.464 39.1904 83.3574C27.4422 81.4911 16.6715 73.4931 11.1973 62.5624C9.31328 58.83 7.98027 54.5999 7.50039 50.9564V50.9564C7.41572 50.326 7.90595 49.7656 8.54195 49.7656H10.1664C12.9035 49.7656 12.9746 49.7833 12.9746 50.1388ZM6.57617 84.4238C6.77168 84.6193 6.93164 85.0103 6.93164 85.3124C6.93164 86.3966 5.56309 86.9654 4.79883 86.2011C4.03457 85.4368 4.60332 84.0683 5.6875 84.0683C5.98965 84.0683 6.38066 84.2283 6.57617 84.4238Z" fill="black"/>
<path d="M75.2883 47.7573C74.7728 52.1296 73.7598 55.6487 72.0535 59.0079C70.525 61.9761 68.9254 64.1978 66.5615 66.5616C64.2687 68.8544 62.0293 70.4896 59.1855 71.9647C55.5953 73.8132 52.5205 74.7196 47.8639 75.2884V75.2884C47.3273 75.3491 46.9219 75.803 46.9219 76.343V81.1714V85.4673C46.9219 86.264 47.6032 86.8903 48.3971 86.8233V86.8233C58.7057 85.9702 67.6102 81.8823 74.7373 74.7552C81.9 67.5925 85.9523 58.7235 86.841 48.2905V48.2905C86.8985 47.5525 86.3152 46.922 85.575 46.922H81.1713H76.2172C75.7395 46.922 75.3388 47.2823 75.2883 47.7573V47.7573ZM83.4996 50.9565C83.1441 53.7647 82.06 57.5327 80.7803 60.5187C78.7186 65.2819 75.9992 69.2099 72.1424 72.9778C66.1705 78.7897 58.7945 82.3978 50.441 83.5886V83.5886C50.0864 83.6446 49.7656 83.3705 49.7656 83.0115V80.887V79.0994C49.7656 78.5068 50.2082 78.0076 50.7965 77.9366V77.9366C53.5336 77.5989 57.9947 76.106 60.9096 74.5597C67.1303 71.2538 72.3023 65.8329 75.2527 59.5233C76.568 56.7151 78.0254 51.7741 78.0254 50.139C78.0254 49.7835 78.0965 49.7657 80.8336 49.7657H82.4581C83.094 49.7657 83.5843 50.3262 83.4996 50.9565V50.9565Z" fill="black"/>
</svg>
