<svg width="18" height="18" fill="none" xmlns="http://www.w3.org/2000/svg"><path d="M13.45 3.853a1 1 0 1 0 0 2 1 1 0 0 0 0-2zm3.833 2.016a6.326 6.326 0 0 0-.383-2.025 4.117 4.117 0 0 0-.967-1.475 3.916 3.916 0 0 0-1.475-.958 6.083 6.083 0 0 0-2.025-.392C11.55.97 11.267.97 9 .97s-2.55 0-3.433.05a6.083 6.083 0 0 0-2.025.392 3.983 3.983 0 0 0-1.475.958 3.917 3.917 0 0 0-.959 1.475A6.083 6.083 0 0 0 .717 5.87c-.05.884-.05 1.167-.05 3.434 0 2.266 0 2.55.05 3.433.014.692.147 1.377.391 2.025.204.558.532 1.063.959 1.475.414.425.918.753 1.475.959a6.086 6.086 0 0 0 2.025.391c.883.05 1.166.05 3.433.05s2.55 0 3.433-.05a6.086 6.086 0 0 0 2.025-.391 3.916 3.916 0 0 0 1.475-.959 4.04 4.04 0 0 0 .967-1.475c.238-.65.367-1.333.383-2.025 0-.883.05-1.167.05-3.433 0-2.267 0-2.55-.05-3.434zm-1.5 6.767a4.678 4.678 0 0 1-.283 1.55c-.133.363-.347.69-.625.959-.27.275-.597.488-.958.625a4.677 4.677 0 0 1-1.55.283c-.834.041-1.142.05-3.334.05-2.191 0-2.5 0-3.333-.05a4.775 4.775 0 0 1-1.617-.25 2.725 2.725 0 0 1-.916-.625 2.5 2.5 0 0 1-.617-.959 4.617 4.617 0 0 1-.333-1.583c0-.833-.05-1.141-.05-3.333s0-2.5.05-3.334c.003-.54.102-1.076.291-1.583a2.5 2.5 0 0 1 .659-.917c.253-.286.566-.514.916-.666a4.775 4.775 0 0 1 1.584-.284c.833 0 1.141-.05 3.333-.05s2.5 0 3.333.05a4.675 4.675 0 0 1 1.55.284c.38.14.719.369.992.666.273.256.486.57.625.917.185.508.281 1.043.283 1.583.042.834.05 1.142.05 3.334 0 2.191-.008 2.5-.05 3.333zM9 5.028a4.275 4.275 0 1 0 4.283 4.275A4.266 4.266 0 0 0 9 5.028zm0 7.05a2.774 2.774 0 1 1 0-5.549 2.774 2.774 0 0 1 0 5.549z" fill="#05F"/></svg>