<svg width="82" height="59" viewBox="0 0 82 59" fill="none" xmlns="http://www.w3.org/2000/svg">
<path d="M14.2664 33.6629C14.1868 33.8698 13.7571 34.6656 13.2955 35.4614C12.2928 37.1962 8.75951 43.292 8.04329 44.5334C5.32169 49.2922 4.58956 50.5337 4.22349 51.1385C3.96884 51.5364 3.60278 52.173 3.37995 52.5709C3.17305 52.9688 2.85473 53.5418 2.67966 53.8442C0.658346 57.2979 -0.0737828 58.6508 0.00579635 58.7781C0.117207 58.9691 37.8059 59.0009 37.8059 58.8099C37.8059 58.7463 37.4558 58.4598 37.042 58.1733C33.1744 55.4517 25.5507 48.019 21.9697 43.4511C21.715 43.1169 21.2853 42.5758 21.0147 42.2415C19.1207 39.8542 17.6724 37.8328 15.8102 35.0157C15.1895 34.0767 14.6165 33.3127 14.537 33.3127C14.4574 33.3127 14.346 33.4719 14.2664 33.6629Z" fill="url(#paint0_linear_762_977)"/>
<path d="M14.4055 0.138808C14.3577 0.28205 15.0421 1.5394 17.5568 5.88442C17.7319 6.17091 18.0025 6.6643 18.1776 6.9667C18.9733 8.35138 19.1166 8.60603 19.5941 9.40182C19.8646 9.86338 20.0875 10.2772 20.0875 10.3249C20.0875 10.3727 20.2307 10.6273 20.4058 10.8661C20.5808 11.1207 20.931 11.6937 21.1856 12.1712C21.8064 13.333 22.3316 14.2562 22.4748 14.4471C22.6817 14.7018 24.2574 17.4234 24.5916 18.1078C24.7667 18.4579 25.0373 18.9195 25.1805 19.1423C25.3397 19.3651 25.7057 19.9859 25.9922 20.4952C26.2787 21.0204 26.5493 21.4819 26.597 21.5297C26.6448 21.5774 26.8039 21.8162 26.9313 22.0867C27.0586 22.3414 27.6475 23.3441 28.2523 24.315C28.8571 25.2699 29.43 26.2089 29.5255 26.384C29.637 26.5432 29.9871 27.0684 30.3213 27.53C30.6397 27.9915 30.9102 28.4053 30.9102 28.4372C30.9102 28.4849 31.149 28.8351 31.4354 29.217C31.706 29.599 32.088 30.1083 32.2631 30.3471C33.2021 31.684 35.0483 34.0077 36.1306 35.2651C36.7991 36.0449 37.4994 36.8566 37.6745 37.0795C38.5498 38.1458 42.0354 41.6632 43.802 43.2389C46.8738 45.9764 48.3221 47.1224 51.3621 49.1596C53.4152 50.5443 54.6248 51.2764 56.2482 52.1518C58.8107 53.5205 59.4792 53.8388 59.7497 53.8388C59.9089 53.8388 60.0362 53.9025 60.0362 53.998C60.0362 54.0776 60.1635 54.1572 60.3068 54.1572C60.45 54.1572 60.6888 54.2527 60.8161 54.38C60.9593 54.4914 61.4686 54.7142 61.9461 54.8893C62.4236 55.0484 62.8851 55.2394 62.9647 55.3031C63.0602 55.3668 63.283 55.4304 63.474 55.4304C63.665 55.4304 63.9038 55.5418 64.0152 55.6692C64.1266 55.7965 64.3016 55.9079 64.4131 55.9079C64.6836 55.9079 66.2434 56.3695 66.5935 56.5604C66.7527 56.64 67.0551 56.7037 67.262 56.7037C67.4848 56.7037 67.7076 56.7674 67.7554 56.8628C67.8031 56.9424 68.0896 57.022 68.392 57.022C68.6944 57.022 68.965 57.0857 69.0127 57.1652C69.1082 57.2926 69.5857 57.404 70.9386 57.595C71.2887 57.6586 71.6389 57.7541 71.7343 57.8337C71.8139 57.9133 72.1482 57.977 72.4665 57.977C72.7848 57.977 73.31 58.0884 73.6124 58.2157C73.9307 58.343 74.456 58.4544 74.7902 58.4385C75.1244 58.4385 76.6205 58.5499 78.1007 58.6773C81.8568 58.9956 82.0001 58.9956 82.0001 58.6295C82.0001 58.4544 81.9523 58.2953 81.8887 58.2634C81.8091 58.2316 81.6022 57.8974 81.3953 57.4995C81.2043 57.1016 80.87 56.4968 80.6472 56.1466C80.4244 55.7965 80.1697 55.3349 80.0742 55.1121C79.9947 54.8893 79.8355 54.6346 79.7241 54.555C79.6127 54.4596 79.2944 53.9184 78.992 53.3614C78.6896 52.7884 78.4031 52.295 78.3553 52.2473C78.3076 52.1995 78.0848 51.7857 77.8779 51.3401C77.671 50.8785 77.3845 50.3692 77.2412 50.21C77.098 50.0509 76.7478 49.462 76.4454 48.889C76.143 48.332 75.8566 47.8386 75.8088 47.7908C75.7611 47.7431 75.5064 47.2974 75.2517 46.7722C74.9971 46.2629 74.7106 45.7695 74.6151 45.6581C74.5196 45.5626 74.2809 45.1647 74.074 44.7668C73.4851 43.6368 72.3232 41.5677 72.1004 41.2812C71.989 41.138 71.7503 40.7401 71.5752 40.39C71.4001 40.0398 71.2091 39.7215 71.1614 39.6737C71.1136 39.626 70.9386 39.3395 70.7794 39.0371C70.6202 38.7347 70.2701 38.0822 69.9836 37.6047C69.6971 37.1272 69.0446 36.0131 68.5353 35.1377C68.026 34.2624 67.5326 33.4984 67.453 33.4347C67.3575 33.3711 67.3257 33.3074 67.3893 33.3074C67.453 33.3074 67.2938 32.9413 67.0392 32.5116C66.7686 32.066 66.5617 31.6362 66.5617 31.5567C66.5617 31.4612 66.498 31.3975 66.4025 31.3975C66.323 31.3975 66.2434 31.3179 66.2434 31.2383C66.2434 31.1429 65.941 30.5858 65.5908 29.9969C65.2248 29.408 64.7314 28.5645 64.4926 28.1348C64.2539 27.6891 63.9038 27.0843 63.7287 26.7819C63.5377 26.4795 63.299 26.0498 63.1875 25.827C63.0761 25.6041 62.7896 25.1267 62.5509 24.7606C62.3122 24.3945 62.1053 24.0603 62.1053 24.0126C62.1053 23.9807 61.8984 23.5988 61.6596 23.169C60.6888 21.5456 60.068 20.4633 59.6861 19.7789C59.3518 19.206 56.9963 15.0997 55.4047 12.3303C55.2296 12.0598 54.975 11.5823 54.7999 11.2958C54.6407 11.0252 54.1314 10.134 53.6699 9.35408C53.2083 8.55828 52.6513 7.60333 52.4284 7.20544C52.2056 6.80754 51.6963 5.93217 51.2984 5.24779C50.9005 4.54749 50.439 3.76762 50.2798 3.49705C50.1047 3.21056 49.8182 2.70126 49.6432 2.35111C49.4522 2.00096 49.2612 1.68264 49.2134 1.6349C49.1657 1.58715 48.9429 1.22108 48.736 0.807273L48.3381 0.0433127L31.4036 0.011481C19.419 -0.0203506 14.4532 0.011481 14.4055 0.138808Z" fill="#0055FF"/>
<defs>
<linearGradient id="paint0_linear_762_977" x1="18.903" y1="33.3127" x2="18.903" y2="58.9382" gradientUnits="userSpaceOnUse">
<stop stop-color="#FE983F"/>
<stop offset="1" stop-color="#FF551F"/>
</linearGradient>
</defs>
</svg>
