<svg width="25" height="25" fill="none" xmlns="http://www.w3.org/2000/svg"><g clip-path="url(#a)"><path d="M13.275.482c-.156 0-.316.008-.48.02-4.227.336-3.106 4.809-3.169 6.3-.078 1.09-.3 1.953-1.05 3.02-.887 1.051-2.129 2.75-2.718 4.52-.277.831-.41 1.688-.285 2.492a.392.392 0 0 0-.114.132c-.258.27-.45.603-.66.84-.199.2-.484.267-.798.4-.312.135-.66.269-.863.683-.09.188-.137.39-.133.602 0 .195.028.398.055.535.06.398.117.726.04.969-.25.678-.278 1.143-.106 1.484.175.336.535.469.937.602.813.199 1.91.136 2.778.597.925.469 1.867.672 2.617.473a1.785 1.785 0 0 0 1.207-.945c.585-.003 1.23-.27 2.258-.336.699-.059 1.574.27 2.577.2.027.136.063.198.117.335v.004c.39.777 1.114 1.129 1.887 1.07.77-.062 1.59-.535 2.253-1.308.634-.762 1.684-1.083 2.38-1.5.348-.2.629-.469.648-.856.024-.398-.198-.812-.71-1.374v-.099l-.005-.003c-.171-.2-.25-.535-.34-.925-.085-.403-.18-.785-.491-1.047-.063-.055-.125-.067-.191-.133a.365.365 0 0 0-.189-.066c.43-1.278.262-2.547-.176-3.692-.531-1.41-1.465-2.64-2.172-3.484-.797-1.004-1.578-1.957-1.562-3.367.027-2.153.238-6.132-3.543-6.14l.001-.003zm.527 3.406h.016a.97.97 0 0 1 .582.196c.191.135.332.332.438.534.105.258.16.457.168.723 0-.02.003-.04.003-.058v.105c0-.008-.004-.015-.004-.023l-.003-.024c0 .243-.05.485-.148.707a.921.921 0 0 1-.215.336c-.027-.015-.055-.03-.086-.043-.106-.047-.2-.062-.286-.132a1.349 1.349 0 0 0-.218-.067c.047-.057.144-.132.183-.198.051-.126.078-.262.087-.402v-.02c.002-.136-.02-.27-.064-.399-.042-.133-.096-.2-.179-.332-.086-.067-.168-.133-.27-.133h-.015c-.094 0-.176.027-.261.133a.807.807 0 0 0-.204.332 1.104 1.104 0 0 0-.09.398v.02c0 .09.008.18.019.27-.195-.066-.437-.137-.609-.203a1.612 1.612 0 0 1-.016-.2v-.02a1.79 1.79 0 0 1 .15-.768 1.06 1.06 0 0 1 .43-.532.987.987 0 0 1 .592-.199v-.001zm-2.96.06h.035a.71.71 0 0 1 .399.132c.148.129.266.289.344.464.09.2.14.403.156.668v.004c.004.133.004.204-.004.266v.082l-.082.023c-.152.055-.272.133-.395.2.012-.09.012-.18.004-.266v-.015c-.011-.132-.039-.2-.082-.333a.627.627 0 0 0-.168-.269.25.25 0 0 0-.179-.063h-.024c-.07.004-.129.04-.183.133a.509.509 0 0 0-.12.27.926.926 0 0 0-.025.332v.011c.012.138.035.204.082.336.03.102.087.194.164.267.012.012.02.02.036.023-.07.06-.118.071-.175.137-.04.028-.082.063-.133.071a2.522 2.522 0 0 1-.274-.402 1.746 1.746 0 0 1-.156-.669 1.847 1.847 0 0 1 .078-.668c.06-.195.153-.379.285-.535.13-.132.258-.198.418-.198l-.002-.002zm1.37 1.706c.333 0 .732.062 1.216.398.293.2.524.27 1.055.465.258.138.405.27.48.403v-.133a.57.57 0 0 1 .016.468c-.126.313-.516.645-1.066.844v.004c-.267.133-.5.332-.774.465-.277.133-.59.293-1.012.266a1.194 1.194 0 0 1-.45-.067 2.793 2.793 0 0 1-.32-.198c-.194-.133-.362-.333-.612-.465V8.1h-.004c-.403-.246-.617-.512-.688-.711-.066-.27-.004-.468.196-.6.222-.134.378-.27.48-.337.105-.074.145-.102.176-.129h.004V6.32a1.83 1.83 0 0 1 .84-.602c.136-.035.293-.062.464-.062zm2.797 2.14c.36 1.418 1.2 3.477 1.74 4.473.285.535.855 1.66 1.1 3.024.157-.004.328.019.513.066.648-1.672-.543-3.469-1.086-3.97-.223-.198-.234-.331-.125-.331.59.53 1.362 1.57 1.643 2.754.13.534.162 1.106.024 1.671.066.027.133.063.204.066 1.031.537 1.414.939 1.23 1.54v-.043c-.058-.003-.121 0-.18 0h-.015c.153-.468-.183-.828-1.066-1.227-.914-.398-1.645-.336-1.77.465a.812.812 0 0 0-.015.138c-.071.023-.141.05-.21.062-.43.27-.662.672-.793 1.188-.13.535-.168 1.156-.204 1.871-.024.336-.171.84-.32 1.35-1.5 1.075-3.583 1.54-5.348.337a2.737 2.737 0 0 0-.402-.535 1.432 1.432 0 0 0-.277-.332c.183 0 .34-.03.465-.067a.643.643 0 0 0 .316-.335c.106-.266 0-.696-.348-1.165-.343-.464-.93-.992-1.785-1.519-.633-.398-.988-.87-1.152-1.395-.165-.534-.141-1.086-.016-1.644.246-1.07.875-2.112 1.278-2.766.105-.062.035.138-.41.978-.396.75-1.141 2.496-.123 3.85.04-.989.26-1.963.65-2.874.561-1.277 1.742-3.503 1.835-5.269.047.04.216.138.289.204.215.132.379.332.59.465.211.198.476.336.876.336.038.003.074.003.108.003.41 0 .732-.132.996-.266.289-.137.524-.336.742-.402h.004c.465-.133.836-.403 1.043-.7v-.001zm2.188 8.958c.039.6.344 1.246.883 1.378.586.132 1.433-.333 1.789-.765l.21-.009c.316-.008.578.009.847.267l.004.003c.207.2.305.531.39.876.087.402.153.78.41 1.065.485.528.645.906.637 1.141-.015.261-.188.394-.5.593-.629.403-1.746.711-2.457 1.572-.618.738-1.37 1.14-2.036 1.19-.664.055-1.238-.198-1.574-.897l-.004-.004c-.21-.399-.12-1.024.055-1.688.176-.668.43-1.347.465-1.898.035-.715.074-1.336.191-1.818.12-.465.309-.797.645-.98l.043-.024.002-.002zm-10.817.05h.012c.055 0 .106.004.156.016.375.055.708.332 1.024.75l.91 1.664.004.004c.242.53.753 1.062 1.187 1.637.434.597.77 1.132.731 1.57v.008c-.059.742-.48 1.144-1.125 1.293-.645.133-1.52 0-2.395-.465-.968-.535-2.12-.469-2.859-.602-.366-.066-.609-.203-.723-.402-.108-.199-.113-.602.126-1.23v-.004c.117-.336.032-.754-.027-1.121-.055-.4-.082-.708.042-.938.16-.336.399-.399.691-.535.293-.133.641-.199.914-.469h.004v-.004c.254-.264.446-.597.668-.836.189-.203.38-.336.66-.336zm7.161-9.074c-.434.199-.945.535-1.488.535s-.97-.265-1.278-.465c-.155-.136-.28-.27-.375-.336-.164-.132-.144-.336-.074-.336.109.015.13.136.199.204.098.066.215.198.36.332.293.199.683.468 1.167.468.485 0 1.055-.27 1.399-.468.195-.133.444-.332.648-.465.156-.137.149-.27.277-.27.129.016.036.133-.144.332a8.506 8.506 0 0 1-.691.469zM12.46 6.142v-.018c-.003-.02.011-.043.031-.051.07-.043.18-.028.258.003.062 0 .16.066.152.136-.008.047-.086.067-.137.067-.054 0-.094-.043-.14-.07-.051-.016-.15-.008-.164-.067zm-.551 0c-.02.06-.114.051-.164.067-.047.027-.086.07-.141.07-.051 0-.133-.02-.137-.07-.007-.067.086-.133.149-.133.082-.032.183-.047.26-.003.017.008.037.03.028.05v.02h.005z" fill="#05F"/></g><defs><clipPath id="a"><path fill="#fff" transform="translate(.771 .482)" d="M0 0h24v24H0z"/></clipPath></defs></svg>