<svg width="38" height="43" viewBox="0 0 38 43" fill="none" xmlns="http://www.w3.org/2000/svg">
<g clip-path="url(#clip0_802_205)">
<path d="M9.53599 5.58034L9.74173 6.41011L21.756 26.9536L22.0858 27.0397L28.3254 15.8261L9.53599 5.58034Z" fill="#343434"/>
<path d="M9.53606 5.58023L9.25338 26.9797L22.086 27.0397L16.2546 17.0685L9.53606 5.58023Z" fill="#8C8C8C"/>
<path d="M23.1418 28.8453L23.1081 29.057L27.3878 36.3751L27.7057 36.6493L29.3887 17.6312L23.1418 28.8453Z" fill="#3C3C3B"/>
<path d="M27.7057 36.6491L23.1418 28.8451L10.3109 28.7881L27.7057 36.6491Z" fill="#8C8C8C"/>
<path d="M22.0858 27.0397L28.3253 15.8262L16.2546 17.0686L22.0858 27.0397Z" fill="#141414"/>
<path d="M9.25352 26.9798L22.0859 27.0397L16.2546 17.0686L9.25352 26.9798Z" fill="#393939"/>
</g>
<defs>
<clipPath id="clip0_802_205">
<rect width="22.1007" height="36" fill="white" transform="translate(0 11.1571) rotate(-30.3199)"/>
</clipPath>
</defs>
</svg>
