<svg width="193" height="169" viewBox="0 0 193 169" fill="none" xmlns="http://www.w3.org/2000/svg">
<path fill-rule="evenodd" clip-rule="evenodd" d="M94.8105 0.306379C93.7792 0.646966 92.4487 1.37262 92.039 1.81678C91.7418 2.13999 89.6043 5.60008 89.6043 5.75855C89.6043 5.79261 92.8126 5.81972 96.7334 5.81972C100.655 5.81972 103.863 5.79122 103.863 5.75577C103.863 5.72032 103.544 5.14897 103.155 4.48587C101.102 0.991029 97.7771 -0.674373 94.8105 0.306379ZM85.5294 12.4417C85.3113 12.7232 83.5857 15.6418 83.4919 15.8858C83.4113 16.095 84.3988 16.1124 96.582 16.1124C103.829 16.1124 109.758 16.0776 109.758 16.0359C109.758 15.9935 109.28 15.1296 108.696 14.1154L107.633 12.2721L96.6473 12.2707C88.0196 12.27 85.6328 12.3069 85.5294 12.4417ZM78.4225 24.2434C77.8385 25.2436 77.3351 26.1076 77.3045 26.1646C77.2732 26.2209 80.7843 26.2661 85.1058 26.2647L92.9633 26.2612L93.991 24.4582C94.557 23.467 95.0403 22.6037 95.0653 22.5405C95.0903 22.4765 91.5952 22.4251 87.2981 22.4251H79.485L78.4225 24.2434ZM97.1674 22.5377C97.1931 22.5995 97.6764 23.4642 98.2417 24.4582L99.2701 26.2668H107.455L115.64 26.2674L114.533 24.3463L113.426 22.4251H105.274C100.79 22.4251 97.1424 22.4758 97.1674 22.5377ZM72.2136 34.5667C71.5983 35.5842 71.0949 36.4489 71.0949 36.4878C71.0949 36.5275 74.6913 36.5594 79.0864 36.5594H87.0779L88.1349 34.7098C88.7168 33.6929 89.1925 32.8283 89.1925 32.7886C89.1925 32.7497 85.6238 32.7171 81.2628 32.7171H73.3323L72.2136 34.5667ZM103.042 32.8199C103.042 32.8769 103.496 33.7256 104.049 34.7071L105.054 36.4913L113.233 36.5268C117.732 36.5462 121.412 36.5233 121.412 36.4767C121.412 36.4295 120.935 35.5648 120.352 34.5541L119.293 32.7171H111.166C106.697 32.7171 103.041 32.7636 103.042 32.8199ZM66.9262 43.3872C66.7429 43.6701 66.222 44.5194 65.7693 45.2736L64.945 46.6464L72.99 46.6818C77.4149 46.7013 81.1024 46.6915 81.185 46.6603C81.2669 46.6283 81.6954 45.9645 82.1364 45.1839C82.5773 44.4034 83.0558 43.5637 83.1995 43.3183L83.4613 42.8721H75.3608H67.2602L66.9262 43.3872ZM108.798 42.952C108.798 43.057 110.703 46.4754 110.837 46.613C110.894 46.67 114.615 46.7013 119.107 46.6818L127.276 46.6464L126.211 44.7933L125.146 42.9409L116.973 42.9055C112.477 42.886 108.798 42.9069 108.798 42.952ZM61.6908 53.6618C61.2124 56.2148 62.127 59.3801 64.3019 62.7026C65.8179 65.0165 68.9998 70.2803 71.6865 74.9158C74.4302 79.6499 78.9531 87.5286 80.5544 90.3631C82.8489 94.4245 83.8287 96.1566 85.0592 98.3266C86.246 100.419 86.2419 100.372 85.269 100.372C71.2969 100.372 51.2626 107.356 35.9274 117.571C33.0733 119.473 27.7699 123.485 26.5282 124.682C26.4192 124.787 25.6123 125.503 24.7345 126.272C16.4895 133.499 8.041 144.257 1.5043 155.85C-1.51509 161.207 0.19946 166.843 5.21605 168.052C6.55839 168.375 64.5234 168.371 65.2533 168.048C68.4644 166.626 70.4643 163.775 70.2247 160.96C70.072 159.168 69.6289 158.225 66.5477 153.137C65.679 151.704 62.8533 146.979 60.2673 142.639C54.725 133.337 54.9312 133.607 52.9778 133.094C48.5591 131.934 43.3863 135.492 43.3863 139.693C43.3863 141.623 43.3696 141.588 48.1869 149.775L50.8105 154.236L34.9489 154.27C26.2254 154.289 19.0575 154.275 19.02 154.238C18.6624 153.879 26.3671 144.881 30.6011 140.712C49.3001 122.303 68.8532 113.301 90.3272 113.219L94.2723 113.203L110.755 140.718L127.239 168.233L157.559 168.268L187.879 168.302L188.946 167.307C192.741 163.766 192.992 160.072 189.801 154.732C170.872 123.044 140.039 103.28 105.102 100.438C103.71 100.325 102.528 100.187 102.476 100.13C102.368 100.017 102.64 100.495 87.6154 74.0275L76.6719 54.7509L77.1107 53.9579L77.5496 53.1648H69.6671H61.7846L61.6908 53.6618ZM114.708 53.4727C114.884 53.807 119.758 62.3989 133.1 85.8889C143.009 103.335 142.494 102.508 144.286 103.836C150.219 108.232 158.355 101.943 155.148 95.44C154.941 95.0208 149.433 85.3523 142.909 73.9552L131.047 53.2336L122.796 53.1982L114.546 53.1627L114.708 53.4727ZM113.738 114.851C128.993 117.5 141.672 123.738 153.903 134.612C154.328 134.989 155.196 135.76 155.833 136.324C159.131 139.25 166.979 147.324 172.51 153.481L173.126 154.167H153.262H133.398L122.743 135.116C109.853 112.068 111.185 114.507 111.5 114.507C111.639 114.507 112.646 114.662 113.738 114.851Z" fill="#0553F8"/>
<path fill-rule="evenodd" clip-rule="evenodd" d="M34.6084 4.66896C35.7787 4.67689 37.6787 4.67689 38.8303 4.66896C39.9821 4.6613 39.0246 4.65469 36.7025 4.65469C34.3803 4.65469 33.4381 4.6613 34.6084 4.66896ZM29.4185 12.4425C30.2569 12.4504 31.6289 12.4504 32.4677 12.4425C33.3061 12.4343 32.62 12.4277 30.9431 12.4277C29.2659 12.4277 28.5798 12.4343 29.4185 12.4425ZM40.6804 12.4425C41.5498 12.4504 42.9571 12.4504 43.8077 12.4425C44.6586 12.4343 43.9474 12.4279 42.2275 12.4279C40.5075 12.4279 39.8113 12.4343 40.6804 12.4425ZM23.4714 20.216C23.4582 20.2374 24.8149 20.2551 26.4865 20.2551C28.1581 20.2551 29.5148 20.2374 29.5016 20.216C29.4882 20.1943 28.1315 20.1766 26.4865 20.1766C24.8415 20.1766 23.4848 20.1943 23.4714 20.216ZM43.5385 20.216C43.5166 20.2514 45.821 20.2509 48.7165 20.2147C49.333 20.207 48.4256 20.1954 46.7001 20.1888C44.9744 20.1821 43.5519 20.1943 43.5385 20.216ZM23.4019 20.9593C23.4019 21.1458 23.4114 21.2222 23.4231 21.1289C23.4344 21.0357 23.4344 20.8829 23.4231 20.7896C23.4114 20.6964 23.4019 20.7727 23.4019 20.9593ZM56.3923 40.091C56.4715 40.1032 56.589 40.1026 56.6529 40.0905C56.717 40.0781 56.6524 40.0683 56.509 40.0686C56.3657 40.0691 56.3131 40.0791 56.3923 40.091ZM34.6069 43.0661C34.8305 43.0759 35.1824 43.0759 35.3888 43.0661C35.5953 43.0561 35.4126 43.0482 34.9825 43.0482C34.5525 43.0484 34.3835 43.0564 34.6069 43.0661ZM64.2492 48.991C64.2492 49 64.3252 49.0763 64.4184 49.1606L64.5879 49.3139L64.4348 49.1443C64.292 48.9862 64.2492 48.9508 64.2492 48.991ZM7.33152 49.9922C7.20506 50.1212 7.11319 50.2269 7.12745 50.2269C7.1417 50.2269 7.25707 50.1212 7.38379 49.9922C7.51025 49.863 7.60212 49.7573 7.58786 49.7573C7.57361 49.7573 7.45824 49.863 7.33152 49.9922ZM20.7791 50.8692C20.7791 50.8782 20.8554 50.9546 20.9486 51.0389L21.1178 51.1921L20.965 51.0225C20.8221 50.8645 20.7791 50.8291 20.7791 50.8692ZM0 61.1306C0 61.3457 0.00897588 61.4337 0.0203278 61.3261C0.0316798 61.2186 0.0316798 61.0423 0.0203278 60.9348C0.00897588 60.8272 0 60.9152 0 61.1306Z" fill="#95BBFB"/>
<path fill-rule="evenodd" clip-rule="evenodd" d="M36.6639 0.0235607C36.7288 0.0362444 36.8225 0.0357165 36.8724 0.0225043C36.9223 0.00955638 36.8692 -0.000749871 36.7544 4.2858e-05C36.6398 0.000571344 36.5992 0.0111413 36.6639 0.0235607ZM35.4125 2.2691C36.1649 2.27729 37.3962 2.27729 38.1489 2.2691C38.9012 2.26091 38.2856 2.2543 36.7805 2.2543C35.2755 2.2543 34.6598 2.26091 35.4125 2.2691ZM30.8517 10.0426C31.6759 10.0505 33.0246 10.0505 33.8488 10.0426C34.6728 10.0344 33.9985 10.0278 32.3501 10.0278C30.702 10.0278 30.0275 10.0344 30.8517 10.0426ZM39.3252 10.0426C40.1946 10.0505 41.602 10.0505 42.4526 10.0426C43.3034 10.0344 42.5922 10.0281 40.8723 10.0281C39.152 10.0281 38.4562 10.0347 39.3252 10.0426ZM27.7895 17.777L24.6622 17.8042L27.7734 17.8166C29.8049 17.8248 30.8957 17.8108 30.9169 17.777C30.9346 17.7482 30.9417 17.7302 30.933 17.7371C30.924 17.744 29.5095 17.7619 27.7895 17.777ZM42.1418 17.7902C42.1635 17.8121 43.5872 17.8238 45.3056 17.8164L48.43 17.8029L45.266 17.7767C43.526 17.7625 42.1199 17.7685 42.1418 17.7902ZM59.2601 37.419C59.2606 37.5625 59.2706 37.6151 59.2828 37.5358C59.2946 37.4565 59.2944 37.3389 59.282 37.275C59.2696 37.2108 59.2598 37.2755 59.2601 37.419ZM33.6664 43.0653C33.7739 43.0767 33.9497 43.0767 34.0571 43.0653C34.1646 43.054 34.0767 43.045 33.8618 43.045C33.6466 43.045 33.5587 43.054 33.6664 43.0653ZM65.0308 49.7737C65.0308 49.7827 65.1071 49.859 65.2003 49.9433L65.3695 50.0963L65.2164 49.9269C65.0739 49.7689 65.0308 49.7332 65.0308 49.7737ZM60.0249 52.5876C60.2408 52.818 60.2878 52.8592 60.2878 52.8201C60.2878 52.8117 60.1764 52.7002 60.0402 52.5723L59.7925 52.3397L60.0249 52.5876ZM10.5111 54.6352C10.3843 54.7644 10.2925 54.8701 10.307 54.8701C10.3212 54.8701 10.4366 54.7644 10.5631 54.6352C10.6898 54.5063 10.7817 54.4006 10.7671 54.4006C10.7529 54.4006 10.6375 54.5063 10.5111 54.6352ZM62.4508 55.0266C62.592 55.17 62.7192 55.2874 62.7335 55.2874C62.7478 55.2874 62.644 55.17 62.503 55.0266C62.3618 54.8831 62.2345 54.7658 62.22 54.7658C62.2058 54.7658 62.3095 54.8831 62.4508 55.0266ZM7.22717 58.6393C7.22717 58.661 9.95402 58.6729 13.2865 58.666C16.6189 58.6591 18.3724 58.6475 17.1826 58.6401C11.4847 58.6041 7.22717 58.6039 7.22717 58.6393Z" fill="#74A4FC"/>
</svg>
