<svg width="26" height="26" viewBox="0 0 26 26" fill="none" xmlns="http://www.w3.org/2000/svg">
<g clip-path="url(#clip0_800_1348)">
<path d="M25.6111 16.1437C23.8742 23.1117 16.8145 27.3475 9.85642 25.6105C2.88822 23.8736 -1.34755 16.8142 0.389478 9.85622C2.1264 2.88822 9.17585 -1.34754 16.1441 0.389479C23.1021 2.11624 27.3481 9.17565 25.6111 16.1437Z" fill="#0055FF"/>
<path d="M13.732 18.168C13.0694 18.168 12.4534 18.0467 11.884 17.804C11.324 17.5614 10.8387 17.2254 10.428 16.796C10.0267 16.3574 9.73269 15.8487 9.54602 15.27L11.128 14.584C11.38 15.1814 11.744 15.6527 12.22 15.998C12.696 16.334 13.2327 16.502 13.83 16.502C14.166 16.502 14.4554 16.4507 14.698 16.348C14.95 16.236 15.1414 16.0867 15.272 15.9C15.412 15.7134 15.482 15.4894 15.482 15.228C15.482 14.92 15.3887 14.668 15.202 14.472C15.0247 14.2667 14.754 14.108 14.39 13.996L12.388 13.352C11.576 13.1 10.9647 12.722 10.554 12.218C10.1434 11.714 9.93802 11.1214 9.93802 10.44C9.93802 9.84271 10.0827 9.31538 10.372 8.85804C10.6707 8.40071 11.0814 8.04604 11.604 7.79404C12.136 7.53271 12.7427 7.40204 13.424 7.40204C14.0494 7.40204 14.6234 7.51404 15.146 7.73804C15.6687 7.95271 16.1167 8.25604 16.49 8.64804C16.8727 9.03071 17.1574 9.48338 17.344 10.006L15.776 10.706C15.5707 10.1834 15.2627 9.78204 14.852 9.50204C14.4414 9.21271 13.9654 9.06804 13.424 9.06804C13.1067 9.06804 12.8267 9.12404 12.584 9.23604C12.3414 9.33871 12.15 9.48804 12.01 9.68404C11.8794 9.87071 11.814 10.0947 11.814 10.356C11.814 10.6454 11.9074 10.902 12.094 11.126C12.2807 11.3407 12.5654 11.5087 12.948 11.63L14.866 12.232C15.6967 12.5027 16.3174 12.876 16.728 13.352C17.148 13.828 17.358 14.416 17.358 15.116C17.358 15.7134 17.204 16.2407 16.896 16.698C16.588 17.1554 16.1634 17.5147 15.622 17.776C15.0807 18.0374 14.4507 18.168 13.732 18.168ZM13.06 19.4V6.17004H14.25V19.4H13.06Z" fill="white"/>
</g>
<defs>
<clipPath id="clip0_800_1348">
<rect width="26" height="26" fill="white"/>
</clipPath>
</defs>
</svg>
