<svg width="280" height="91" viewBox="0 0 280 91" fill="none" xmlns="http://www.w3.org/2000/svg">
<path d="M101.377 28L108.366 6.83H116.051L123.301 28H118.371L112.513 10.107L114.021 10.716H110.28L111.846 10.107L106.133 28H101.377ZM106.684 22.751L108.134 18.807H116.428L117.907 22.751H106.684ZM136.996 28L131.979 20.576H129.746L136.213 12.108H141.085L134.995 19.996L135.053 17.734L142.216 28H136.996ZM125.802 28V6.83H130.442V28H125.802ZM145.077 28V12.108H149.717V28H145.077ZM142.96 15.53V12.108H149.717V15.53H142.96ZM146.875 10.542C146.005 10.542 145.357 10.3197 144.932 9.875C144.526 9.411 144.323 8.831 144.323 8.135C144.323 7.41966 144.526 6.83966 144.932 6.395C145.357 5.931 146.005 5.699 146.875 5.699C147.745 5.699 148.383 5.931 148.789 6.395C149.214 6.83966 149.427 7.41966 149.427 8.135C149.427 8.831 149.214 9.411 148.789 9.875C148.383 10.3197 147.745 10.542 146.875 10.542ZM154.212 28V6.83H158.881V28H154.212ZM152.327 10.252V6.83H158.881V10.252H152.327ZM172.755 28V23.302H171.972V18.198C171.972 17.386 171.779 16.777 171.392 16.371C171.005 15.965 170.387 15.762 169.536 15.762C169.111 15.762 168.55 15.7717 167.854 15.791C167.158 15.8103 166.443 15.8393 165.708 15.878C164.973 15.9167 164.306 15.9553 163.707 15.994V12.079C164.152 12.0403 164.674 12.0017 165.273 11.963C165.872 11.9243 166.491 11.8953 167.129 11.876C167.767 11.8567 168.366 11.847 168.927 11.847C170.551 11.847 171.914 12.079 173.016 12.543C174.137 13.007 174.988 13.7127 175.568 14.66C176.148 15.588 176.438 16.7867 176.438 18.256V28H172.755ZM167.68 28.406C166.539 28.406 165.534 28.203 164.664 27.797C163.813 27.391 163.146 26.811 162.663 26.057C162.18 25.2837 161.938 24.3653 161.938 23.302C161.938 22.142 162.238 21.1947 162.837 20.46C163.436 19.706 164.277 19.155 165.36 18.807C166.443 18.4397 167.69 18.256 169.101 18.256H172.494V20.837H169.072C168.26 20.837 167.632 21.04 167.187 21.446C166.762 21.8327 166.549 22.3643 166.549 23.041C166.549 23.679 166.762 24.201 167.187 24.607C167.632 24.9937 168.26 25.187 169.072 25.187C169.594 25.187 170.058 25.1 170.464 24.926C170.889 24.7327 171.237 24.4137 171.508 23.969C171.779 23.5243 171.933 22.9057 171.972 22.113L173.074 23.273C172.977 24.375 172.707 25.303 172.262 26.057C171.837 26.811 171.237 27.391 170.464 27.797C169.71 28.203 168.782 28.406 167.68 28.406Z" fill="black"/>
<path d="M7.192 82V62.802H10.034V82H7.192ZM0.754 63.382V60.83H16.472V63.382H0.754ZM25.1516 82.522C23.7983 82.522 22.6093 82.29 21.5846 81.826C20.5599 81.362 19.6899 80.753 18.9746 79.999C18.2786 79.2257 17.7469 78.3653 17.3796 77.418C17.0316 76.4707 16.8576 75.504 16.8576 74.518V73.996C16.8576 73.01 17.0413 72.0433 17.4086 71.096C17.7759 70.1293 18.3173 69.269 19.0326 68.515C19.7479 67.7417 20.6179 67.1327 21.6426 66.688C22.6673 66.224 23.8369 65.992 25.1516 65.992C26.4663 65.992 27.6359 66.224 28.6606 66.688C29.6853 67.1327 30.5553 67.7417 31.2706 68.515C31.9859 69.269 32.5273 70.1293 32.8946 71.096C33.2619 72.0433 33.4456 73.01 33.4456 73.996V74.518C33.4456 75.504 33.2619 76.4707 32.8946 77.418C32.5466 78.3653 32.0149 79.2257 31.2996 79.999C30.6036 80.753 29.7433 81.362 28.7186 81.826C27.6939 82.29 26.5049 82.522 25.1516 82.522ZM25.1516 80.028C26.3116 80.028 27.2976 79.7767 28.1096 79.274C28.9409 78.752 29.5693 78.056 29.9946 77.186C30.4393 76.316 30.6616 75.3397 30.6616 74.257C30.6616 73.155 30.4393 72.169 29.9946 71.299C29.5499 70.429 28.9119 69.7427 28.0806 69.24C27.2686 68.7373 26.2923 68.486 25.1516 68.486C24.0303 68.486 23.0539 68.7373 22.2226 69.24C21.3913 69.7427 20.7533 70.429 20.3086 71.299C19.8639 72.169 19.6416 73.155 19.6416 74.257C19.6416 75.3397 19.8543 76.316 20.2796 77.186C20.7243 78.056 21.3526 78.752 22.1646 79.274C22.9959 79.7767 23.9916 80.028 25.1516 80.028ZM48.2873 82L42.4583 74.779H39.9063L47.0113 66.514H49.9403L43.5023 73.967L43.7053 72.488L51.5063 82H48.2873ZM37.6153 82V60.83H40.3993V82H37.6153ZM60.4824 82.522C59.1291 82.522 57.9594 82.29 56.9734 81.826C55.9874 81.362 55.1851 80.753 54.5664 79.999C53.9478 79.2257 53.4838 78.3653 53.1744 77.418C52.8844 76.4707 52.7394 75.504 52.7394 74.518V73.996C52.7394 72.9907 52.8844 72.0143 53.1744 71.067C53.4838 70.1197 53.9478 69.269 54.5664 68.515C55.1851 67.7417 55.9681 67.1327 56.9154 66.688C57.8821 66.224 59.0131 65.992 60.3084 65.992C61.9904 65.992 63.3728 66.3593 64.4554 67.094C65.5574 67.8093 66.3694 68.7373 66.8914 69.878C67.4328 71.0187 67.7034 72.2367 67.7034 73.532V74.779H53.9574V72.691H65.6734L65.0354 73.822C65.0354 72.72 64.8614 71.7727 64.5134 70.98C64.1654 70.168 63.6434 69.5397 62.9474 69.095C62.2514 68.6503 61.3718 68.428 60.3084 68.428C59.2064 68.428 58.2881 68.6793 57.5534 69.182C56.8381 69.6847 56.2968 70.371 55.9294 71.241C55.5814 72.111 55.4074 73.1163 55.4074 74.257C55.4074 75.359 55.5814 76.3547 55.9294 77.244C56.2968 78.114 56.8574 78.81 57.6114 79.332C58.3654 79.8347 59.3224 80.086 60.4824 80.086C61.7004 80.086 62.6864 79.8153 63.4404 79.274C64.2138 78.7327 64.6778 78.1043 64.8324 77.389H67.4424C67.2298 78.4523 66.8044 79.3707 66.1664 80.144C65.5284 80.9173 64.7261 81.507 63.7594 81.913C62.7928 82.319 61.7004 82.522 60.4824 82.522ZM71.6563 82V66.514H73.8603V73.155H73.5123C73.5123 71.6277 73.7153 70.342 74.1213 69.298C74.5466 68.2347 75.1846 67.4323 76.0353 66.891C76.8859 66.3303 77.9589 66.05 79.2543 66.05H79.3703C81.3229 66.05 82.7633 66.659 83.6913 67.877C84.6386 69.095 85.1123 70.8543 85.1123 73.155V82H82.3283V72.575C82.3283 71.3763 81.9899 70.4193 81.3133 69.704C80.6366 68.9693 79.7086 68.602 78.5293 68.602C77.3113 68.602 76.3253 68.979 75.5713 69.733C74.8173 70.487 74.4403 71.4923 74.4403 72.749V82H71.6563ZM90.9601 82V66.514H93.7441V82H90.9601ZM88.5821 68.718V66.514H93.7441V68.718H88.5821ZM91.7431 64.02C91.1244 64.02 90.6604 63.8557 90.3511 63.527C90.0611 63.1983 89.9161 62.7827 89.9161 62.28C89.9161 61.7773 90.0611 61.3617 90.3511 61.033C90.6604 60.7043 91.1244 60.54 91.7431 60.54C92.3618 60.54 92.8161 60.7043 93.1061 61.033C93.4154 61.3617 93.5701 61.7773 93.5701 62.28C93.5701 62.7827 93.4154 63.1983 93.1061 63.527C92.8161 63.8557 92.3618 64.02 91.7431 64.02ZM98.141 82V78.897L106.58 68.776V69.24L106.116 68.544L106.493 68.718H98.025V66.514H109.045V69.617L100.606 79.738V79.332L101.128 80.057L100.722 79.796H109.509V82H98.141ZM119.729 82.522C118.375 82.522 117.206 82.29 116.22 81.826C115.234 81.362 114.431 80.753 113.813 79.999C113.194 79.2257 112.73 78.3653 112.421 77.418C112.131 76.4707 111.986 75.504 111.986 74.518V73.996C111.986 72.9907 112.131 72.0143 112.421 71.067C112.73 70.1197 113.194 69.269 113.813 68.515C114.431 67.7417 115.214 67.1327 116.162 66.688C117.128 66.224 118.259 65.992 119.555 65.992C121.237 65.992 122.619 66.3593 123.702 67.094C124.804 67.8093 125.616 68.7373 126.138 69.878C126.679 71.0187 126.95 72.2367 126.95 73.532V74.779H113.204V72.691H124.92L124.282 73.822C124.282 72.72 124.108 71.7727 123.76 70.98C123.412 70.168 122.89 69.5397 122.194 69.095C121.498 68.6503 120.618 68.428 119.555 68.428C118.453 68.428 117.534 68.6793 116.8 69.182C116.084 69.6847 115.543 70.371 115.176 71.241C114.828 72.111 114.654 73.1163 114.654 74.257C114.654 75.359 114.828 76.3547 115.176 77.244C115.543 78.114 116.104 78.81 116.858 79.332C117.612 79.8347 118.569 80.086 119.729 80.086C120.947 80.086 121.933 79.8153 122.687 79.274C123.46 78.7327 123.924 78.1043 124.079 77.389H126.689C126.476 78.4523 126.051 79.3707 125.413 80.144C124.775 80.9173 123.972 81.507 123.006 81.913C122.039 82.319 120.947 82.522 119.729 82.522ZM143.533 82.174C142.373 82.174 141.368 82.0097 140.517 81.681C139.686 81.3523 139.038 80.7917 138.574 79.999C138.129 79.187 137.907 78.0947 137.907 76.722V61.816H140.575V77.07C140.575 77.9013 140.797 78.549 141.242 79.013C141.706 79.4577 142.354 79.68 143.185 79.68H145.911V82.174H143.533ZM135.239 68.602V66.514H145.911V68.602H135.239ZM149.849 82V60.83H152.633V73.474H151.937C151.937 71.9467 152.13 70.632 152.517 69.53C152.923 68.4087 153.541 67.5483 154.373 66.949C155.204 66.3497 156.267 66.05 157.563 66.05H157.679C159.535 66.05 160.936 66.6687 161.884 67.906C162.831 69.124 163.305 70.8737 163.305 73.155V82H160.521V72.575C160.521 71.3183 160.163 70.342 159.448 69.646C158.752 68.95 157.843 68.602 156.722 68.602C155.484 68.602 154.489 69.0177 153.735 69.849C153 70.661 152.633 71.734 152.633 73.068V82H149.849ZM174.981 82.522C173.628 82.522 172.458 82.29 171.472 81.826C170.486 81.362 169.684 80.753 169.065 79.999C168.447 79.2257 167.983 78.3653 167.673 77.418C167.383 76.4707 167.238 75.504 167.238 74.518V73.996C167.238 72.9907 167.383 72.0143 167.673 71.067C167.983 70.1197 168.447 69.269 169.065 68.515C169.684 67.7417 170.467 67.1327 171.414 66.688C172.381 66.224 173.512 65.992 174.807 65.992C176.489 65.992 177.872 66.3593 178.954 67.094C180.056 67.8093 180.868 68.7373 181.39 69.878C181.932 71.0187 182.202 72.2367 182.202 73.532V74.779H168.456V72.691H180.172L179.534 73.822C179.534 72.72 179.36 71.7727 179.012 70.98C178.664 70.168 178.142 69.5397 177.446 69.095C176.75 68.6503 175.871 68.428 174.807 68.428C173.705 68.428 172.787 68.6793 172.052 69.182C171.337 69.6847 170.796 70.371 170.428 71.241C170.08 72.111 169.906 73.1163 169.906 74.257C169.906 75.359 170.08 76.3547 170.428 77.244C170.796 78.114 171.356 78.81 172.11 79.332C172.864 79.8347 173.821 80.086 174.981 80.086C176.199 80.086 177.185 79.8153 177.939 79.274C178.713 78.7327 179.177 78.1043 179.331 77.389H181.941C181.729 78.4523 181.303 79.3707 180.665 80.144C180.027 80.9173 179.225 81.507 178.258 81.913C177.292 82.319 176.199 82.522 174.981 82.522ZM196.669 82L190.956 60.83H193.885L198.844 80.144L197.481 79.448H200.932L199.424 80.144L203.455 61.7H206.123L201.512 82H196.669ZM209.4 82L204.325 61.7H207.08L211.633 80.144L210.183 79.448H213.663L212.184 80.144L216.621 60.83H219.463L214.272 82H209.4ZM229.426 82.522C228.073 82.522 226.884 82.29 225.859 81.826C224.834 81.362 223.964 80.753 223.249 79.999C222.553 79.2257 222.021 78.3653 221.654 77.418C221.306 76.4707 221.132 75.504 221.132 74.518V73.996C221.132 73.01 221.316 72.0433 221.683 71.096C222.05 70.1293 222.592 69.269 223.307 68.515C224.022 67.7417 224.892 67.1327 225.917 66.688C226.942 66.224 228.111 65.992 229.426 65.992C230.741 65.992 231.91 66.224 232.935 66.688C233.96 67.1327 234.83 67.7417 235.545 68.515C236.26 69.269 236.802 70.1293 237.169 71.096C237.536 72.0433 237.72 73.01 237.72 73.996V74.518C237.72 75.504 237.536 76.4707 237.169 77.418C236.821 78.3653 236.289 79.2257 235.574 79.999C234.878 80.753 234.018 81.362 232.993 81.826C231.968 82.29 230.779 82.522 229.426 82.522ZM229.426 80.028C230.586 80.028 231.572 79.7767 232.384 79.274C233.215 78.752 233.844 78.056 234.269 77.186C234.714 76.316 234.936 75.3397 234.936 74.257C234.936 73.155 234.714 72.169 234.269 71.299C233.824 70.429 233.186 69.7427 232.355 69.24C231.543 68.7373 230.567 68.486 229.426 68.486C228.305 68.486 227.328 68.7373 226.497 69.24C225.666 69.7427 225.028 70.429 224.583 71.299C224.138 72.169 223.916 73.155 223.916 74.257C223.916 75.3397 224.129 76.316 224.554 77.186C224.999 78.056 225.627 78.752 226.439 79.274C227.27 79.7767 228.266 80.028 229.426 80.028ZM241.89 82V66.514H244.094V72.894H243.978C243.978 70.632 244.471 68.979 245.457 67.935C246.462 66.8717 247.96 66.34 249.952 66.34H250.474V68.834H249.488C247.941 68.834 246.752 69.2497 245.921 70.081C245.089 70.893 244.674 72.0723 244.674 73.619V82H241.89ZM253.958 82V60.83H256.742V82H253.958ZM251.812 63.034V60.83H256.742V63.034H251.812ZM268.549 82.522C267.447 82.522 266.432 82.319 265.504 81.913C264.576 81.507 263.764 80.9367 263.068 80.202C262.391 79.4673 261.86 78.6167 261.473 77.65C261.106 76.6833 260.922 75.6393 260.922 74.518V73.996C260.922 72.894 261.106 71.8597 261.473 70.893C261.84 69.9263 262.353 69.0757 263.01 68.341C263.687 67.6063 264.479 67.036 265.388 66.63C266.316 66.2047 267.341 65.992 268.462 65.992C269.641 65.992 270.714 66.2433 271.681 66.746C272.648 67.2293 273.44 67.993 274.059 69.037C274.678 70.081 275.026 71.4343 275.103 73.097L273.943 71.241V60.83H276.727V82H274.523V75.127H275.335C275.258 76.8863 274.89 78.317 274.233 79.419C273.576 80.5017 272.744 81.2943 271.739 81.797C270.753 82.2803 269.69 82.522 268.549 82.522ZM268.926 80.086C269.873 80.086 270.734 79.8733 271.507 79.448C272.28 79.0227 272.899 78.4137 273.363 77.621C273.827 76.809 274.059 75.8617 274.059 74.779V73.445C274.059 72.3817 273.817 71.4827 273.334 70.748C272.87 69.994 272.242 69.4237 271.449 69.037C270.676 68.631 269.825 68.428 268.897 68.428C267.872 68.428 266.964 68.6697 266.171 69.153C265.398 69.6363 264.789 70.313 264.344 71.183C263.919 72.053 263.706 73.0777 263.706 74.257C263.706 75.4363 263.928 76.4707 264.373 77.36C264.818 78.23 265.436 78.9067 266.229 79.39C267.022 79.854 267.921 80.086 268.926 80.086Z" fill="black"/>
<path d="M58.7852 20.4637C58.7474 20.5621 58.543 20.9406 58.3235 21.3191C57.8466 22.1442 56.1661 25.0434 55.8255 25.6339C54.531 27.8972 54.1828 28.4876 54.0087 28.7753C53.8876 28.9645 53.7135 29.2673 53.6075 29.4566C53.5091 29.6458 53.3577 29.9183 53.2745 30.0621C52.3131 31.7048 51.9649 32.3482 52.0028 32.4088C52.0557 32.4996 69.9809 32.5147 69.9809 32.4239C69.9809 32.3936 69.8143 32.2574 69.6175 32.1211C67.7781 30.8267 64.1522 27.2916 62.449 25.1191C62.3279 24.9601 62.1235 24.7028 61.9948 24.5438C61.094 23.4084 60.4052 22.447 59.5195 21.1072C59.2243 20.6605 58.9518 20.2972 58.9139 20.2972C58.8761 20.2972 58.8231 20.3729 58.7852 20.4637Z" fill="url(#paint0_linear_946_142)"/>
<path d="M58.8514 4.5193C58.8287 4.58742 59.1542 5.18543 60.3502 7.25197C60.4335 7.38822 60.5622 7.62288 60.6455 7.76671C61.0239 8.42527 61.0921 8.54639 61.3192 8.92488C61.4479 9.1444 61.5538 9.34121 61.5538 9.36392C61.5538 9.38663 61.622 9.50775 61.7052 9.62129C61.7885 9.74241 61.955 10.0149 62.0761 10.242C62.3714 10.7946 62.6212 11.2336 62.6893 11.3245C62.7877 11.4456 63.5371 12.74 63.6961 13.0655C63.7793 13.2321 63.908 13.4516 63.9761 13.5575C64.0518 13.6635 64.2259 13.9587 64.3622 14.201C64.4985 14.4508 64.6271 14.6703 64.6498 14.693C64.6726 14.7157 64.7483 14.8293 64.8088 14.9579C64.8694 15.0791 65.1494 15.556 65.4371 16.0177C65.7247 16.4719 65.9973 16.9185 66.0427 17.0018C66.0957 17.0775 66.2622 17.3273 66.4212 17.5468C66.5726 17.7663 66.7012 17.9631 66.7012 17.9783C66.7012 18.001 66.8148 18.1675 66.951 18.3492C67.0797 18.5309 67.2614 18.7731 67.3447 18.8866C67.7913 19.5225 68.6694 20.6277 69.1841 21.2257C69.502 21.5966 69.8351 21.9827 69.9184 22.0886C70.3347 22.5958 71.9925 24.2687 72.8327 25.0181C74.2937 26.3201 74.9825 26.8651 76.4283 27.8341C77.4048 28.4926 77.9801 28.8408 78.7523 29.2572C79.971 29.9082 80.2889 30.0596 80.4176 30.0596C80.4933 30.0596 80.5538 30.0898 80.5538 30.1352C80.5538 30.1731 80.6144 30.2109 80.6825 30.2109C80.7507 30.2109 80.8642 30.2564 80.9248 30.3169C80.9929 30.3699 81.2351 30.4759 81.4622 30.5592C81.6893 30.6349 81.9088 30.7257 81.9467 30.756C81.9921 30.7862 82.0981 30.8165 82.1889 30.8165C82.2797 30.8165 82.3933 30.8695 82.4463 30.9301C82.4993 30.9906 82.5825 31.0436 82.6355 31.0436C82.7642 31.0436 83.506 31.2631 83.6726 31.354C83.7483 31.3918 83.8921 31.4221 83.9905 31.4221C84.0965 31.4221 84.2025 31.4524 84.2252 31.4978C84.2479 31.5357 84.3841 31.5735 84.528 31.5735C84.6718 31.5735 84.8005 31.6038 84.8232 31.6416C84.8686 31.7022 85.0957 31.7552 85.7391 31.846C85.9056 31.8763 86.0722 31.9217 86.1176 31.9596C86.1554 31.9974 86.3144 32.0277 86.4658 32.0277C86.6172 32.0277 86.867 32.0807 87.0108 32.1412C87.1622 32.2018 87.412 32.2548 87.571 32.2472C87.7299 32.2472 88.4415 32.3002 89.1455 32.3608C90.9319 32.5121 91.0001 32.5121 91.0001 32.338C91.0001 32.2548 90.9774 32.1791 90.9471 32.1639C90.9092 32.1488 90.8108 31.9898 90.7124 31.8006C90.6216 31.6113 90.4626 31.3237 90.3566 31.1572C90.2507 30.9906 90.1296 30.7711 90.0841 30.6651C90.0463 30.5592 89.9706 30.438 89.9176 30.4002C89.8646 30.3548 89.7132 30.0974 89.5694 29.8325C89.4256 29.56 89.2893 29.3253 89.2666 29.3026C89.2439 29.2799 89.1379 29.0831 89.0395 28.8711C88.9411 28.6516 88.8048 28.4094 88.7367 28.3337C88.6686 28.258 88.5021 27.9779 88.3582 27.7054C88.2144 27.4404 88.0782 27.2058 88.0554 27.1831C88.0327 27.1603 87.9116 26.9484 87.7905 26.6986C87.6694 26.4564 87.5331 26.2217 87.4877 26.1687C87.4423 26.1233 87.3288 25.9341 87.2303 25.7448C86.9503 25.2074 86.3977 24.2233 86.2917 24.087C86.2387 24.0189 86.1252 23.8297 86.0419 23.6631C85.9586 23.4966 85.8678 23.3452 85.8451 23.3225C85.8224 23.2998 85.7391 23.1635 85.6634 23.0197C85.5877 22.8759 85.4212 22.5655 85.2849 22.3384C85.1487 22.1113 84.8383 21.5815 84.5961 21.1651C84.3538 20.7488 84.1192 20.3854 84.0813 20.3552C84.0359 20.3249 84.0208 20.2946 84.0511 20.2946C84.0813 20.2946 84.0056 20.1205 83.8845 19.9161C83.7558 19.7042 83.6574 19.4998 83.6574 19.4619C83.6574 19.4165 83.6272 19.3862 83.5817 19.3862C83.5439 19.3862 83.506 19.3484 83.506 19.3105C83.506 19.2651 83.3622 19.0002 83.1957 18.7201C83.0216 18.44 82.7869 18.0388 82.6734 17.8344C82.5598 17.6225 82.3933 17.3348 82.31 17.191C82.2192 17.0472 82.1056 16.8428 82.0527 16.7368C81.9997 16.6309 81.8634 16.4038 81.7499 16.2297C81.6363 16.0556 81.5379 15.8966 81.5379 15.8739C81.5379 15.8587 81.4395 15.6771 81.326 15.4727C80.8642 14.7006 80.569 14.1858 80.3873 13.8603C80.2283 13.5878 79.108 11.6348 78.3511 10.3177C78.2678 10.189 78.1467 9.96193 78.0634 9.82567C77.9877 9.69699 77.7455 9.27308 77.526 8.90217C77.3064 8.52368 77.0415 8.0695 76.9355 7.88025C76.8295 7.69101 76.5873 7.27468 76.3981 6.94918C76.2088 6.61611 75.9893 6.24519 75.9136 6.11651C75.8303 5.98025 75.6941 5.73802 75.6108 5.57149C75.52 5.40495 75.4291 5.25356 75.4064 5.23085C75.3837 5.20814 75.2777 5.03404 75.1793 4.83722L74.9901 4.47388L66.9359 4.45874C61.2359 4.4436 58.8741 4.45874 58.8514 4.5193Z" fill="#0055FF"/>
<defs>
<linearGradient id="paint0_linear_946_142" x1="60.9904" y1="20.2972" x2="60.9904" y2="32.4849" gradientUnits="userSpaceOnUse">
<stop stop-color="#FE983F"/>
<stop offset="1" stop-color="#FF551F"/>
</linearGradient>
</defs>
</svg>
