<svg width="127" height="37" viewBox="0 0 127 37" fill="none" xmlns="http://www.w3.org/2000/svg">
<path d="M49.377 28L56.366 6.83H64.051L71.301 28H66.371L60.513 10.107L62.021 10.716H58.28L59.846 10.107L54.133 28H49.377ZM54.684 22.751L56.134 18.807H64.428L65.907 22.751H54.684ZM84.9956 28L79.9786 20.576H77.7456L84.2126 12.108H89.0846L82.9946 19.996L83.0526 17.734L90.2156 28H84.9956ZM73.8016 28V6.83H78.4416V28H73.8016ZM93.0771 28V12.108H97.7171V28H93.0771ZM90.9601 15.53V12.108H97.7171V15.53H90.9601ZM94.8751 10.542C94.0051 10.542 93.3574 10.3197 92.9321 9.875C92.5261 9.411 92.3231 8.831 92.3231 8.135C92.3231 7.41966 92.5261 6.83966 92.9321 6.395C93.3574 5.931 94.0051 5.699 94.8751 5.699C95.7451 5.699 96.3831 5.931 96.7891 6.395C97.2144 6.83966 97.4271 7.41966 97.4271 8.135C97.4271 8.831 97.2144 9.411 96.7891 9.875C96.3831 10.3197 95.7451 10.542 94.8751 10.542ZM102.212 28V6.83H106.881V28H102.212ZM100.327 10.252V6.83H106.881V10.252H100.327ZM120.755 28V23.302H119.972V18.198C119.972 17.386 119.779 16.777 119.392 16.371C119.005 15.965 118.387 15.762 117.536 15.762C117.111 15.762 116.55 15.7717 115.854 15.791C115.158 15.8103 114.443 15.8393 113.708 15.878C112.973 15.9167 112.306 15.9553 111.707 15.994V12.079C112.152 12.0403 112.674 12.0017 113.273 11.963C113.872 11.9243 114.491 11.8953 115.129 11.876C115.767 11.8567 116.366 11.847 116.927 11.847C118.551 11.847 119.914 12.079 121.016 12.543C122.137 13.007 122.988 13.7127 123.568 14.66C124.148 15.588 124.438 16.7867 124.438 18.256V28H120.755ZM115.68 28.406C114.539 28.406 113.534 28.203 112.664 27.797C111.813 27.391 111.146 26.811 110.663 26.057C110.18 25.2837 109.938 24.3653 109.938 23.302C109.938 22.142 110.238 21.1947 110.837 20.46C111.436 19.706 112.277 19.155 113.36 18.807C114.443 18.4397 115.69 18.256 117.101 18.256H120.494V20.837H117.072C116.26 20.837 115.632 21.04 115.187 21.446C114.762 21.8327 114.549 22.3643 114.549 23.041C114.549 23.679 114.762 24.201 115.187 24.607C115.632 24.9937 116.26 25.187 117.072 25.187C117.594 25.187 118.058 25.1 118.464 24.926C118.889 24.7327 119.237 24.4137 119.508 23.969C119.779 23.5243 119.933 22.9057 119.972 22.113L121.074 23.273C120.977 24.375 120.707 25.303 120.262 26.057C119.837 26.811 119.237 27.391 118.464 27.797C117.71 28.203 116.782 28.406 115.68 28.406Z" fill="black"/>
<path d="M6.78523 20.4637C6.74738 20.5621 6.543 20.9406 6.32348 21.3191C5.84659 22.1442 4.16611 25.0434 3.82547 25.6338C2.53105 27.8972 2.18284 28.4876 2.00873 28.7753C1.88762 28.9645 1.71352 29.2673 1.60754 29.4566C1.50913 29.6458 1.35774 29.9183 1.27447 30.0621C0.313116 31.7048 -0.0350918 32.3482 0.0027568 32.4087C0.0557449 32.4996 17.9809 32.5147 17.9809 32.4239C17.9809 32.3936 17.8143 32.2573 17.6175 32.1211C15.7781 30.8267 12.1522 27.2916 10.449 25.1191C10.3279 24.9601 10.1235 24.7028 9.9948 24.5438C9.094 23.4083 8.40515 22.447 7.5195 21.1071C7.22428 20.6605 6.95177 20.2972 6.91392 20.2972C6.87607 20.2972 6.82308 20.3729 6.78523 20.4637Z" fill="url(#paint0_linear_748_180)"/>
<path d="M6.85144 4.51928C6.82873 4.58741 7.15422 5.18542 8.35024 7.25195C8.43351 7.38821 8.56219 7.62287 8.64546 7.76669C9.02395 8.42526 9.09207 8.54638 9.31917 8.92486C9.44785 9.14438 9.55383 9.3412 9.55383 9.36391C9.55383 9.38661 9.62196 9.50773 9.70522 9.62128C9.78849 9.74239 9.95502 10.0149 10.0761 10.242C10.3714 10.7946 10.6212 11.2336 10.6893 11.3245C10.7877 11.4456 11.5371 12.74 11.6961 13.0655C11.7793 13.232 11.908 13.4516 11.9761 13.5575C12.0518 13.6635 12.2259 13.9587 12.3622 14.201C12.4985 14.4508 12.6271 14.6703 12.6498 14.693C12.6726 14.7157 12.7483 14.8292 12.8088 14.9579C12.8694 15.079 13.1494 15.5559 13.4371 16.0177C13.7247 16.4719 13.9973 16.9185 14.0427 17.0018C14.0957 17.0775 14.2622 17.3273 14.4212 17.5468C14.5726 17.7663 14.7012 17.9631 14.7012 17.9783C14.7012 18.001 14.8148 18.1675 14.951 18.3492C15.0797 18.5308 15.2614 18.7731 15.3447 18.8866C15.7913 19.5225 16.6694 20.6277 17.1841 21.2257C17.502 21.5966 17.8351 21.9826 17.9184 22.0886C18.3347 22.5958 19.9925 24.2687 20.8327 25.0181C22.2937 26.3201 22.9825 26.8651 24.4283 27.834C25.4048 28.4926 25.9801 28.8408 26.7523 29.2571C27.971 29.9081 28.2889 30.0595 28.4176 30.0595C28.4933 30.0595 28.5538 30.0898 28.5538 30.1352C28.5538 30.1731 28.6144 30.2109 28.6825 30.2109C28.7507 30.2109 28.8642 30.2564 28.9248 30.3169C28.9929 30.3699 29.2351 30.4759 29.4622 30.5591C29.6893 30.6348 29.9088 30.7257 29.9467 30.756C29.9921 30.7862 30.0981 30.8165 30.1889 30.8165C30.2797 30.8165 30.3933 30.8695 30.4463 30.9301C30.4993 30.9906 30.5825 31.0436 30.6355 31.0436C30.7642 31.0436 31.506 31.2631 31.6726 31.354C31.7483 31.3918 31.8921 31.4221 31.9905 31.4221C32.0965 31.4221 32.2025 31.4524 32.2252 31.4978C32.2479 31.5356 32.3841 31.5735 32.528 31.5735C32.6718 31.5735 32.8005 31.6038 32.8232 31.6416C32.8686 31.7022 33.0957 31.7552 33.7391 31.846C33.9056 31.8763 34.0722 31.9217 34.1176 31.9595C34.1554 31.9974 34.3144 32.0277 34.4658 32.0277C34.6172 32.0277 34.867 32.0807 35.0108 32.1412C35.1622 32.2018 35.412 32.2548 35.571 32.2472C35.7299 32.2472 36.4415 32.3002 37.1455 32.3607C38.9319 32.5121 39.0001 32.5121 39.0001 32.338C39.0001 32.2548 38.9774 32.1791 38.9471 32.1639C38.9092 32.1488 38.8108 31.9898 38.7124 31.8006C38.6216 31.6113 38.4626 31.3237 38.3566 31.1571C38.2507 30.9906 38.1296 30.7711 38.0841 30.6651C38.0463 30.5591 37.9706 30.438 37.9176 30.4002C37.8646 30.3548 37.7132 30.0974 37.5694 29.8324C37.4256 29.5599 37.2893 29.3253 37.2666 29.3026C37.2439 29.2799 37.1379 29.083 37.0395 28.8711C36.9411 28.6516 36.8048 28.4093 36.7367 28.3336C36.6686 28.2579 36.5021 27.9779 36.3582 27.7054C36.2144 27.4404 36.0782 27.2057 36.0554 27.183C36.0327 27.1603 35.9116 26.9484 35.7905 26.6986C35.6694 26.4563 35.5331 26.2217 35.4877 26.1687C35.4423 26.1233 35.3288 25.934 35.2303 25.7448C34.9503 25.2073 34.3977 24.2233 34.2917 24.087C34.2387 24.0189 34.1252 23.8297 34.0419 23.6631C33.9586 23.4966 33.8678 23.3452 33.8451 23.3225C33.8224 23.2998 33.7391 23.1635 33.6634 23.0197C33.5877 22.8759 33.4212 22.5655 33.2849 22.3384C33.1487 22.1113 32.8383 21.5814 32.5961 21.1651C32.3538 20.7488 32.1192 20.3854 32.0813 20.3551C32.0359 20.3249 32.0208 20.2946 32.0511 20.2946C32.0813 20.2946 32.0056 20.1205 31.8845 19.9161C31.7558 19.7042 31.6574 19.4998 31.6574 19.4619C31.6574 19.4165 31.6272 19.3862 31.5817 19.3862C31.5439 19.3862 31.506 19.3484 31.506 19.3105C31.506 19.2651 31.3622 19.0002 31.1957 18.7201C31.0216 18.44 30.7869 18.0388 30.6734 17.8344C30.5598 17.6225 30.3933 17.3348 30.31 17.191C30.2192 17.0472 30.1056 16.8428 30.0527 16.7368C29.9997 16.6308 29.8634 16.4038 29.7499 16.2296C29.6363 16.0555 29.5379 15.8966 29.5379 15.8739C29.5379 15.8587 29.4395 15.6771 29.326 15.4727C28.8642 14.7006 28.569 14.1858 28.3873 13.8603C28.2283 13.5878 27.108 11.6348 26.3511 10.3177C26.2678 10.189 26.1467 9.96191 26.0634 9.82566C25.9877 9.69697 25.7455 9.27307 25.526 8.90215C25.3064 8.52367 25.0415 8.06948 24.9355 7.88024C24.8295 7.691 24.5873 7.27466 24.3981 6.94916C24.2088 6.61609 23.9893 6.24518 23.9136 6.11649C23.8303 5.98024 23.6941 5.73801 23.6108 5.57147C23.52 5.40494 23.4291 5.25354 23.4064 5.23083C23.3837 5.20813 23.2777 5.03402 23.1793 4.83721L22.9901 4.47386L14.9359 4.45872C9.2359 4.44358 6.87414 4.45872 6.85144 4.51928Z" fill="#0055FF"/>
<defs>
<linearGradient id="paint0_linear_748_180" x1="8.99043" y1="20.2972" x2="8.99043" y2="32.4849" gradientUnits="userSpaceOnUse">
<stop stop-color="#FE983F"/>
<stop offset="1" stop-color="#FF551F"/>
</linearGradient>
</defs>
</svg>
