<svg width="51" height="51" viewBox="0 0 51 51" fill="none" xmlns="http://www.w3.org/2000/svg">
<g clip-path="url(#clip0_802_212)">
<path d="M40.0097 14.9024C45.7958 22.9887 43.9234 34.2333 35.846 40.0089C27.7595 45.7953 16.5152 43.9232 10.7397 35.8458C4.95357 27.7595 6.81676 16.5257 14.9033 10.7394C22.97 4.95464 34.2235 6.81596 40.0097 14.9024Z" fill="url(#paint0_linear_802_212)"/>
<path d="M29.2234 17.3952C27.6313 15.5776 25.4701 16.1199 23.1941 17.4695L21.2498 14.7424L19.5986 15.9222L21.497 18.5731C21.0633 18.8872 20.6204 19.212 20.1883 19.5459L18.2793 16.8858L16.6281 18.0656L18.5709 20.7729C18.2133 21.041 17.8648 21.2983 17.5255 21.545L17.5148 21.5359L15.2321 23.1753L16.5007 24.939C16.5007 24.939 17.7059 24.0444 17.6983 24.0749C18.3679 23.5923 18.8659 23.8317 19.1689 24.1266L21.3829 27.2311C21.4301 27.1974 21.4864 27.153 21.5732 27.1161C21.5169 27.1605 21.4606 27.2049 21.3936 27.2402L24.4948 31.5804C24.613 31.8104 24.7272 32.2401 24.2646 32.5665C24.2951 32.574 23.0669 33.4306 23.0669 33.4306L24.1524 35.648L26.3134 34.1081C26.7198 33.8262 27.1063 33.5458 27.5035 33.2745L29.4693 36.0199L31.1205 34.8401L29.1761 32.113C29.6296 31.7973 30.0831 31.4816 30.5077 31.1783L32.4505 33.8855L34.1017 32.7058L32.1359 29.9604C34.8059 27.8012 36.2543 25.7099 34.6148 22.9285C33.3081 20.6889 31.6432 20.4533 29.7878 21.2005C30.4109 20.0134 30.3869 18.7185 29.2234 17.3952ZM31.1146 24.9348C32.5854 26.9816 28.8985 29.2722 27.7754 30.0705L25.1692 26.4289C26.2923 25.6306 29.5854 22.7829 31.1146 24.9348ZM26.6658 20.3335C28.0034 22.2115 24.9115 24.0853 23.9771 24.7488L21.6175 21.4464C22.5519 20.783 25.273 18.3902 26.6658 20.3335Z" fill="white"/>
</g>
<defs>
<linearGradient id="paint0_linear_802_212" x1="11.6703" y1="13.7042" x2="39.0786" y2="37.0447" gradientUnits="userSpaceOnUse">
<stop stop-color="#FE983F"/>
<stop offset="1" stop-color="#FF551F"/>
</linearGradient>
<clipPath id="clip0_802_212">
<rect width="36" height="36" fill="white" transform="translate(0 27.4083) rotate(-49.5827)"/>
</clipPath>
</defs>
</svg>
