<svg width="512" height="449" viewBox="0 0 512 449" fill="none" xmlns="http://www.w3.org/2000/svg">
<path fill-rule="evenodd" clip-rule="evenodd" d="M252.815 0.816967C250.065 1.72515 246.517 3.66015 245.425 4.84449C244.632 5.70634 238.933 14.9328 238.933 15.3554C238.933 15.4462 247.488 15.5185 257.942 15.5185C268.399 15.5185 276.954 15.4425 276.954 15.3479C276.954 15.2534 276.104 13.7299 275.065 11.9617C269.592 2.64261 260.726 -1.79824 252.815 0.816967ZM228.067 33.1762C227.485 33.9268 222.884 41.7094 222.634 42.36C222.419 42.9179 225.052 42.9642 257.539 42.9642C276.863 42.9642 292.674 42.8715 292.674 42.7603C292.674 42.6473 291.4 40.3434 289.84 37.6393L287.007 32.724L257.713 32.7202C234.707 32.7184 228.343 32.8166 228.067 33.1762ZM209.116 64.6458C207.559 67.3129 206.216 69.6167 206.135 69.7687C206.052 69.9188 215.414 70.0393 226.937 70.0356L247.889 70.0263L250.63 65.2185C252.139 62.5755 253.428 60.2735 253.495 60.1048C253.561 59.9343 244.242 59.7972 232.783 59.7972H211.949L209.116 64.6458ZM259.1 60.0974C259.168 60.2624 260.457 62.5681 261.964 65.2185L264.707 70.0411H286.531L308.358 70.043L305.406 64.9201L302.454 59.7972H280.717C268.76 59.7972 259.033 59.9325 259.1 60.0974ZM192.56 92.1731C190.919 94.8865 189.577 97.1922 189.577 97.296C189.577 97.4016 199.167 97.4869 210.886 97.4869H232.196L235.014 92.5549C236.566 89.8433 237.835 87.5376 237.835 87.432C237.835 87.3282 228.319 87.241 216.69 87.241H195.543L192.56 92.1731ZM274.764 87.5154C274.765 87.6673 275.975 89.9304 277.449 92.5475L280.13 97.3052L301.94 97.3998C313.935 97.4517 323.749 97.3905 323.749 97.2663C323.749 97.1403 322.477 94.8346 320.923 92.1397L318.098 87.241H296.429C284.511 87.241 274.762 87.3652 274.764 87.5154ZM178.461 115.693C177.972 116.448 176.583 118.712 175.376 120.723L173.178 124.384L194.63 124.479C206.429 124.53 216.262 124.504 216.482 124.421C216.701 124.336 217.843 122.566 219.019 120.484C220.195 118.403 221.471 116.164 221.854 115.51L222.552 114.32H200.952H179.351L178.461 115.693ZM290.114 114.533C290.114 114.813 295.192 123.928 295.551 124.295C295.701 124.447 305.625 124.53 317.603 124.479L339.385 124.384L336.545 119.443L333.706 114.503L311.911 114.409C299.923 114.357 290.114 114.412 290.114 114.533ZM164.501 143.091C163.225 149.898 165.663 158.339 171.463 167.198C175.505 173.369 183.99 187.405 191.154 199.765C198.471 212.389 210.531 233.398 214.801 240.956C220.919 251.786 223.532 256.405 226.813 262.191C229.978 267.772 229.967 267.646 227.372 267.646C190.116 267.646 136.693 286.267 95.8014 313.507C88.1908 318.578 74.0492 329.276 70.7383 332.468C70.4476 332.75 68.2958 334.657 65.9553 336.709C43.9697 355.979 21.4416 384.665 4.01123 415.578C-4.04009 429.863 0.531826 444.892 13.9087 448.115C17.4881 448.977 172.054 448.966 174 448.104C182.562 444.314 187.895 436.711 187.256 429.205C186.849 424.426 185.668 421.913 177.452 408.346C175.135 404.522 167.6 391.924 160.705 380.352C145.926 355.547 146.476 356.266 141.267 354.898C129.484 351.805 115.691 361.294 115.691 372.495C115.691 377.642 115.646 377.549 128.492 399.381L135.488 411.274L93.1923 411.367C69.9309 411.417 50.8174 411.378 50.7174 411.28C49.7638 410.324 70.3087 386.329 81.5987 375.214C131.46 326.124 183.599 302.122 240.86 301.901L251.38 301.86L295.333 375.229L339.287 448.599L420.137 448.692L500.986 448.782L503.83 446.13C513.95 436.687 514.62 426.838 506.111 412.598C455.635 328.101 373.418 275.401 280.258 267.822C276.547 267.52 273.395 267.151 273.254 267.001C272.967 266.699 273.693 267.972 233.629 197.397L204.448 145.995L205.618 143.88L206.788 141.766H185.77H164.751L164.501 143.091ZM305.873 142.587C306.341 143.478 319.338 166.389 354.916 229.026C381.338 275.545 379.964 273.339 384.743 276.881C400.564 288.604 422.259 271.834 413.706 254.494C413.154 253.376 398.468 227.595 381.071 197.204L349.44 141.949L327.44 141.855L305.441 141.76L305.873 142.587ZM303.286 306.255C343.963 313.316 377.772 329.951 410.388 358.946C411.521 359.953 413.836 362.008 415.534 363.513C424.328 371.314 445.256 392.844 460.003 409.262L461.646 411.091H408.679H355.71L327.299 360.29C292.927 298.832 296.477 305.337 297.318 305.337C297.69 305.337 300.375 305.751 303.286 306.255Z" fill="#0553F8"/>
<path fill-rule="evenodd" clip-rule="evenodd" d="M92.2845 12.4499C95.4051 12.4711 100.472 12.4711 103.542 12.4499C106.614 12.4295 104.06 12.4119 97.8683 12.4119C91.6763 12.4119 89.1638 12.4295 92.2845 12.4499ZM78.4453 33.1782C80.6811 33.1994 84.3396 33.1994 86.576 33.1782C88.8118 33.1564 86.9822 33.1388 82.5107 33.1388C78.0384 33.1388 76.2088 33.1564 78.4453 33.1782ZM108.476 33.1782C110.794 33.1994 114.547 33.1994 116.815 33.1782C119.084 33.1564 117.187 33.1395 112.601 33.1395C108.015 33.1395 106.158 33.1564 108.476 33.1782ZM62.5871 53.9065C62.5519 53.9636 66.1696 54.0108 70.6271 54.0108C75.0846 54.0108 78.7022 53.9636 78.667 53.9065C78.6311 53.8487 75.0135 53.8015 70.6271 53.8015C66.2407 53.8015 62.623 53.8487 62.5871 53.9065ZM116.097 53.9065C116.038 54.0009 122.183 53.9995 129.904 53.903C131.548 53.8826 129.128 53.8516 124.527 53.8339C119.926 53.8163 116.133 53.8487 116.097 53.9065ZM62.402 55.8886C62.402 56.3861 62.4273 56.5897 62.4583 56.341C62.4886 56.0922 62.4886 55.685 62.4583 55.4362C62.4273 55.1875 62.402 55.3911 62.402 55.8886ZM150.372 106.904C150.583 106.936 150.896 106.935 151.067 106.903C151.238 106.869 151.065 106.843 150.683 106.844C150.301 106.845 150.161 106.872 150.372 106.904ZM92.2803 114.837C92.8765 114.863 93.8149 114.863 94.3654 114.837C94.9159 114.81 94.4287 114.789 93.282 114.789C92.1352 114.79 91.6847 114.811 92.2803 114.837ZM171.323 130.636C171.323 130.66 171.525 130.864 171.774 131.088L172.226 131.497L171.817 131.045C171.437 130.623 171.323 130.529 171.323 130.636ZM19.5497 133.306C19.2125 133.65 18.9676 133.931 19.0056 133.931C19.0436 133.931 19.3512 133.65 19.6891 133.306C20.0263 132.961 20.2713 132.679 20.2333 132.679C20.1953 132.679 19.8876 132.961 19.5497 133.306ZM55.4081 135.644C55.4081 135.668 55.6116 135.872 55.8601 136.097L56.3113 136.505L55.9037 136.053C55.5229 135.632 55.4081 135.537 55.4081 135.644ZM0 163.007C0 163.58 0.0239345 163.815 0.0542048 163.528C0.0844752 163.241 0.0844752 162.771 0.0542048 162.485C0.0239345 162.198 0 162.432 0 163.007Z" fill="#95BBFB"/>
<path fill-rule="evenodd" clip-rule="evenodd" d="M97.7653 0.0628253C97.9385 0.0966467 98.1884 0.095239 98.3215 0.0600084C98.4545 0.0254824 98.313 -0.00199956 98.0068 0.000114282C97.7013 0.00152351 97.5929 0.0297085 97.7653 0.0628253ZM94.4286 6.05062C96.4348 6.07247 99.7181 6.07247 101.725 6.05062C103.731 6.02878 102.09 6.01117 98.0765 6.01117C94.0632 6.01117 92.4216 6.02878 94.4286 6.05062ZM82.2669 26.7789C84.4647 26.8001 88.0612 26.8001 90.259 26.7789C92.4561 26.7571 90.6581 26.7395 86.2626 26.7395C81.8678 26.7395 80.0691 26.7571 82.2669 26.7789ZM104.862 26.7789C107.18 26.8001 110.933 26.8001 113.201 26.7789C115.47 26.7571 113.573 26.7402 108.987 26.7402C104.4 26.7402 102.545 26.7578 104.862 26.7789ZM74.1017 47.4029L65.7625 47.4755L74.0587 47.5086C79.4757 47.5305 82.3845 47.4931 82.4408 47.4029C82.488 47.3261 82.507 47.2782 82.4837 47.2965C82.4598 47.3149 78.688 47.3628 74.1017 47.4029ZM112.373 47.4382C112.43 47.4966 116.227 47.5276 120.809 47.5079L129.14 47.472L120.703 47.4022C116.063 47.3642 112.314 47.3804 112.373 47.4382ZM158.019 99.7789C158.02 100.162 158.047 100.302 158.079 100.09C158.111 99.879 158.11 99.5654 158.077 99.3949C158.044 99.2237 158.018 99.3963 158.019 99.7789ZM89.7725 114.835C90.0591 114.865 90.5279 114.865 90.8144 114.835C91.1009 114.805 90.8665 114.781 90.2935 114.781C89.7198 114.781 89.4853 114.805 89.7725 114.835ZM173.407 132.723C173.407 132.747 173.61 132.951 173.859 133.175L174.31 133.583L173.902 133.132C173.521 132.71 173.407 132.615 173.407 132.723ZM160.058 140.226C160.634 140.841 160.759 140.951 160.759 140.847C160.759 140.824 160.462 140.527 160.099 140.186L159.439 139.566L160.058 140.226ZM28.0281 145.687C27.6902 146.031 27.4452 146.313 27.4839 146.313C27.5219 146.313 27.8295 146.031 28.1667 145.687C28.5046 145.343 28.7496 145.061 28.7109 145.061C28.6729 145.061 28.3653 145.343 28.0281 145.687ZM166.527 146.73C166.904 147.113 167.243 147.426 167.281 147.426C167.319 147.426 167.042 147.113 166.666 146.73C166.29 146.347 165.95 146.035 165.912 146.035C165.874 146.035 166.15 146.347 166.527 146.73ZM19.2715 156.364C19.2715 156.421 26.5427 156.453 35.4288 156.435C44.3149 156.416 48.9906 156.385 45.8179 156.366C30.6243 156.27 19.2715 156.269 19.2715 156.364Z" fill="#74A4FC"/>
</svg>
