<svg width="39" height="29" viewBox="0 0 39 29" fill="none" xmlns="http://www.w3.org/2000/svg">
<path d="M6.78523 16.4637C6.74738 16.5621 6.543 16.9406 6.32348 17.3191C5.84659 18.1442 4.16611 21.0434 3.82547 21.6338C2.53105 23.8972 2.18284 24.4876 2.00873 24.7753C1.88762 24.9645 1.71352 25.2673 1.60754 25.4566C1.50913 25.6458 1.35774 25.9183 1.27447 26.0621C0.313116 27.7048 -0.0350918 28.3482 0.0027568 28.4087C0.0557449 28.4996 17.9809 28.5147 17.9809 28.4239C17.9809 28.3936 17.8143 28.2573 17.6175 28.1211C15.7781 26.8267 12.1522 23.2916 10.449 21.1191C10.3279 20.9601 10.1235 20.7028 9.9948 20.5438C9.094 19.4083 8.40515 18.447 7.5195 17.1071C7.22428 16.6605 6.95177 16.2972 6.91392 16.2972C6.87607 16.2972 6.82308 16.3729 6.78523 16.4637Z" fill="url(#paint0_linear_762_980)"/>
<path d="M6.85144 0.519281C6.82873 0.587408 7.15422 1.18542 8.35024 3.25195C8.43351 3.38821 8.56219 3.62287 8.64546 3.76669C9.02395 4.42526 9.09207 4.54638 9.31917 4.92486C9.44785 5.14438 9.55383 5.3412 9.55383 5.36391C9.55383 5.38661 9.62196 5.50773 9.70522 5.62128C9.78849 5.74239 9.95502 6.0149 10.0761 6.24199C10.3714 6.79458 10.6212 7.23363 10.6893 7.32446C10.7877 7.44558 11.5371 8.74 11.6961 9.0655C11.7793 9.23204 11.908 9.45156 11.9761 9.55753C12.0518 9.66351 12.2259 9.95873 12.3622 10.201C12.4985 10.4508 12.6271 10.6703 12.6498 10.693C12.6726 10.7157 12.7483 10.8292 12.8088 10.9579C12.8694 11.079 13.1494 11.5559 13.4371 12.0177C13.7247 12.4719 13.9973 12.9185 14.0427 13.0018C14.0957 13.0775 14.2622 13.3273 14.4212 13.5468C14.5726 13.7663 14.7012 13.9631 14.7012 13.9783C14.7012 14.001 14.8148 14.1675 14.951 14.3492C15.0797 14.5308 15.2614 14.7731 15.3447 14.8866C15.7913 15.5225 16.6694 16.6277 17.1841 17.2257C17.502 17.5966 17.8351 17.9826 17.9184 18.0886C18.3347 18.5958 19.9925 20.2687 20.8327 21.0181C22.2937 22.3201 22.9825 22.8651 24.4283 23.834C25.4048 24.4926 25.9801 24.8408 26.7523 25.2571C27.971 25.9081 28.2889 26.0595 28.4176 26.0595C28.4933 26.0595 28.5538 26.0898 28.5538 26.1352C28.5538 26.1731 28.6144 26.2109 28.6825 26.2109C28.7507 26.2109 28.8642 26.2564 28.9248 26.3169C28.9929 26.3699 29.2351 26.4759 29.4622 26.5591C29.6893 26.6348 29.9088 26.7257 29.9467 26.756C29.9921 26.7862 30.0981 26.8165 30.1889 26.8165C30.2797 26.8165 30.3933 26.8695 30.4463 26.9301C30.4993 26.9906 30.5825 27.0436 30.6355 27.0436C30.7642 27.0436 31.506 27.2631 31.6726 27.354C31.7483 27.3918 31.8921 27.4221 31.9905 27.4221C32.0965 27.4221 32.2025 27.4524 32.2252 27.4978C32.2479 27.5356 32.3841 27.5735 32.528 27.5735C32.6718 27.5735 32.8005 27.6038 32.8232 27.6416C32.8686 27.7022 33.0957 27.7552 33.7391 27.846C33.9056 27.8763 34.0722 27.9217 34.1176 27.9595C34.1554 27.9974 34.3144 28.0277 34.4658 28.0277C34.6172 28.0277 34.867 28.0807 35.0108 28.1412C35.1622 28.2018 35.412 28.2548 35.571 28.2472C35.7299 28.2472 36.4415 28.3002 37.1455 28.3607C38.9319 28.5121 39.0001 28.5121 39.0001 28.338C39.0001 28.2548 38.9774 28.1791 38.9471 28.1639C38.9092 28.1488 38.8108 27.9898 38.7124 27.8006C38.6216 27.6113 38.4626 27.3237 38.3566 27.1571C38.2507 26.9906 38.1296 26.7711 38.0841 26.6651C38.0463 26.5591 37.9706 26.438 37.9176 26.4002C37.8646 26.3548 37.7132 26.0974 37.5694 25.8324C37.4256 25.5599 37.2893 25.3253 37.2666 25.3026C37.2439 25.2799 37.1379 25.083 37.0395 24.8711C36.9411 24.6516 36.8048 24.4093 36.7367 24.3336C36.6686 24.2579 36.5021 23.9779 36.3582 23.7054C36.2144 23.4404 36.0782 23.2057 36.0554 23.183C36.0327 23.1603 35.9116 22.9484 35.7905 22.6986C35.6694 22.4563 35.5331 22.2217 35.4877 22.1687C35.4423 22.1233 35.3288 21.934 35.2303 21.7448C34.9503 21.2073 34.3977 20.2233 34.2917 20.087C34.2387 20.0189 34.1252 19.8297 34.0419 19.6631C33.9586 19.4966 33.8678 19.3452 33.8451 19.3225C33.8224 19.2998 33.7391 19.1635 33.6634 19.0197C33.5877 18.8759 33.4212 18.5655 33.2849 18.3384C33.1487 18.1113 32.8383 17.5814 32.5961 17.1651C32.3538 16.7488 32.1192 16.3854 32.0813 16.3551C32.0359 16.3249 32.0208 16.2946 32.0511 16.2946C32.0813 16.2946 32.0056 16.1205 31.8845 15.9161C31.7558 15.7042 31.6574 15.4998 31.6574 15.4619C31.6574 15.4165 31.6272 15.3862 31.5817 15.3862C31.5439 15.3862 31.506 15.3484 31.506 15.3105C31.506 15.2651 31.3622 15.0002 31.1957 14.7201C31.0216 14.44 30.7869 14.0388 30.6734 13.8344C30.5598 13.6225 30.3933 13.3348 30.31 13.191C30.2192 13.0472 30.1056 12.8428 30.0527 12.7368C29.9997 12.6308 29.8634 12.4038 29.7499 12.2296C29.6363 12.0555 29.5379 11.8966 29.5379 11.8739C29.5379 11.8587 29.4395 11.6771 29.326 11.4727C28.8642 10.7006 28.569 10.1858 28.3873 9.86032C28.2283 9.58781 27.108 7.63482 26.3511 6.31769C26.2678 6.18901 26.1467 5.96191 26.0634 5.82566C25.9877 5.69697 25.7455 5.27307 25.526 4.90215C25.3064 4.52367 25.0415 4.06948 24.9355 3.88024C24.8295 3.691 24.5873 3.27466 24.3981 2.94916C24.2088 2.61609 23.9893 2.24518 23.9136 2.11649C23.8303 1.98024 23.6941 1.73801 23.6108 1.57147C23.52 1.40494 23.4291 1.25354 23.4064 1.23083C23.3837 1.20813 23.2777 1.03402 23.1793 0.837209L22.9901 0.473862L14.9359 0.458723C9.2359 0.443583 6.87414 0.458723 6.85144 0.519281Z" fill="#0055FF"/>
<defs>
<linearGradient id="paint0_linear_762_980" x1="8.99043" y1="16.2972" x2="8.99043" y2="28.4849" gradientUnits="userSpaceOnUse">
<stop stop-color="#FE983F"/>
<stop offset="1" stop-color="#FF551F"/>
</linearGradient>
</defs>
</svg>
