<svg width="26" height="26" viewBox="0 0 26 26" fill="none" xmlns="http://www.w3.org/2000/svg">
<g clip-path="url(#clip0_800_1342)">
<path d="M25.6111 16.1437C23.8742 23.1117 16.8145 27.3475 9.85642 25.6105C2.88822 23.8736 -1.34755 16.8142 0.389478 9.85622C2.1264 2.88822 9.17585 -1.34754 16.1441 0.389479C23.1021 2.11624 27.3481 9.17565 25.6111 16.1437Z" fill="url(#paint0_linear_800_1342)"/>
<path d="M19.1897 11.3801C19.4436 9.65353 18.1334 8.71915 16.3256 8.09962L16.9147 5.75353L15.4928 5.39806L14.9241 7.68322C14.5483 7.59181 14.1623 7.5004 13.7764 7.41915L14.3452 5.12384L12.9233 4.76837L12.3444 7.10431C12.0295 7.03322 11.7248 6.96212 11.4303 6.89103V6.88087L9.46 6.39337L9.08422 7.91681C9.08422 7.91681 10.1405 8.16056 10.1202 8.17071C10.6991 8.3129 10.8006 8.69884 10.7803 9.00353L10.11 11.6746C10.1506 11.6848 10.2014 11.6949 10.2623 11.7254C10.2116 11.7152 10.1608 11.7051 10.11 11.6848L9.17562 15.4223C9.10453 15.5949 8.92172 15.859 8.52562 15.7574C8.53578 15.7777 7.48969 15.5035 7.48969 15.5035L6.77875 17.1387L8.63734 17.6059C8.98265 17.6973 9.31781 17.7785 9.65297 17.8699L9.0639 20.2363L10.4858 20.5918L11.0748 18.2457C11.4608 18.3473 11.8467 18.4488 12.2123 18.5402L11.6334 20.8762L13.0553 21.2317L13.6444 18.8652C16.0819 19.3223 17.91 19.1395 18.6717 16.9356C19.2912 15.1684 18.6412 14.1426 17.3616 13.4723C18.3061 13.259 19.0069 12.6395 19.1897 11.3801ZM15.9295 15.9504C15.4928 17.7176 12.5069 16.7629 11.542 16.5192L12.3241 13.3809C13.2889 13.6246 16.3967 14.102 15.9295 15.9504ZM16.3764 11.3496C15.9702 12.9645 13.492 12.1418 12.6897 11.9387L13.4006 9.09493C14.203 9.29806 16.7928 9.67384 16.3764 11.3496Z" fill="white"/>
</g>
<defs>
<linearGradient id="paint0_linear_800_1342" x1="12.993" y1="-0.00623999" x2="12.993" y2="25.9974" gradientUnits="userSpaceOnUse">
<stop stop-color="#F9AA4B"/>
<stop offset="1" stop-color="#F7931A"/>
</linearGradient>
<clipPath id="clip0_800_1342">
<rect width="26" height="26" fill="white"/>
</clipPath>
</defs>
</svg>
