<svg width="74" height="64" viewBox="0 0 74 64" fill="none" xmlns="http://www.w3.org/2000/svg">
<path fill-rule="evenodd" clip-rule="evenodd" d="M36.0496 0.134028C35.6576 0.263507 35.1518 0.539377 34.996 0.708229C34.883 0.831102 34.0704 2.1465 34.0704 2.20675C34.0704 2.2197 35.2901 2.23001 36.7807 2.23001C38.2715 2.23001 39.4911 2.21917 39.4911 2.20569C39.4911 2.19222 39.37 1.97501 39.2219 1.72292C38.4415 0.394308 37.1775 -0.238819 36.0496 0.134028ZM32.5213 4.74745C32.4384 4.85447 31.7824 5.96403 31.7467 6.05678C31.7161 6.13631 32.0915 6.14292 36.7231 6.14292C39.4782 6.14292 41.7322 6.12971 41.7322 6.11385C41.7322 6.09773 41.5506 5.76928 41.3283 5.38375L40.9244 4.68297L36.7479 4.68245C33.468 4.68218 32.5606 4.69619 32.5213 4.74745ZM29.8195 9.23403C29.5975 9.61428 29.4061 9.94273 29.3945 9.9644C29.3826 9.98581 30.7174 10.003 32.3603 10.0025L35.3474 10.0011L35.7381 9.31569C35.9533 8.93887 36.137 8.61068 36.1465 8.58664C36.156 8.56233 34.8273 8.54277 33.1937 8.54277H30.2235L29.8195 9.23403ZM36.9457 8.58558C36.9554 8.6091 37.1392 8.93782 37.3541 9.31569L37.745 10.0032H40.8565L43.9683 10.0035L43.5475 9.27314L43.1267 8.54277H40.0276C38.3229 8.54277 36.9362 8.56206 36.9457 8.58558ZM27.4591 13.1586C27.2252 13.5454 27.0338 13.8741 27.0338 13.8889C27.0338 13.904 28.4011 13.9162 30.0719 13.9162H33.11L33.5118 13.213C33.7331 12.8264 33.9139 12.4977 33.9139 12.4826C33.9139 12.4678 32.5572 12.4554 30.8993 12.4554H27.8844L27.4591 13.1586ZM39.1788 12.4945C39.1791 12.5162 39.3515 12.8388 39.5616 13.212L39.9439 13.8903L43.0533 13.9037C44.7635 13.9111 46.1627 13.9024 46.1627 13.8847C46.1627 13.8667 45.9813 13.538 45.7598 13.1538L45.3569 12.4554H42.2676C40.5685 12.4554 39.1786 12.4731 39.1788 12.4945ZM25.449 16.5118C25.3793 16.6194 25.1813 16.9423 25.0092 17.229L24.6958 17.7509L27.7543 17.7643C29.4365 17.7717 30.8383 17.768 30.8697 17.7561C30.9009 17.744 31.0638 17.4916 31.2314 17.1949C31.399 16.8981 31.5809 16.5789 31.6356 16.4857L31.7351 16.316H28.6556H25.576L25.449 16.5118ZM41.3674 16.3464C41.3674 16.3863 42.0913 17.6859 42.1425 17.7382C42.1639 17.7598 43.5786 17.7717 45.2864 17.7643L48.3919 17.7509L47.9869 17.0464L47.5822 16.3422L44.4749 16.3287C42.7658 16.3213 41.3674 16.3292 41.3674 16.3464ZM23.4587 20.4179C23.2768 21.3884 23.6245 22.5918 24.4514 23.8549C25.0277 24.7345 26.2373 26.7356 27.2587 28.4979C28.3018 30.2976 30.0212 33.2928 30.63 34.3704C31.5023 35.9144 31.8748 36.5729 32.3426 37.3979C32.7937 38.1935 32.7922 38.1755 32.4223 38.1755C27.1106 38.1755 19.4943 40.8304 13.6644 44.714C12.5793 45.4369 10.5632 46.9621 10.0911 47.4172C10.0497 47.4573 9.74293 47.7292 9.40923 48.0218C6.27477 50.7691 3.06296 54.8588 0.577936 59.2661C-0.569932 61.3026 0.0818806 63.4454 1.98901 63.9049C2.49932 64.0278 24.5356 64.0262 24.8131 63.9033C26.0338 63.3629 26.7941 62.279 26.703 61.2088C26.6449 60.5276 26.4765 60.1693 25.3051 58.235C24.9749 57.6899 23.9007 55.8938 22.9175 54.2439C20.8106 50.7075 20.889 50.8101 20.1463 50.615C18.4665 50.174 16.5 51.5269 16.5 53.1238C16.5 53.8576 16.4936 53.8444 18.325 56.9569L19.3224 58.6525L13.2924 58.6657C9.97604 58.6729 7.25104 58.6673 7.23679 58.6533C7.10083 58.517 10.0299 55.0961 11.6395 53.5114C18.7482 46.5127 26.1816 43.0907 34.3453 43.0593L35.845 43.0535L42.1113 53.5135L48.3779 63.9739L59.9046 63.9871L71.4311 64L71.8366 63.6219C73.2793 62.2756 73.3749 60.8714 72.1618 58.8412C64.9655 46.7946 53.2439 39.2811 39.9621 38.2006C39.4331 38.1576 38.9837 38.105 38.9637 38.0836C38.9227 38.0405 39.0262 38.222 33.3144 28.1602L29.154 20.8319L29.3208 20.5304L29.4877 20.2289H26.491H23.4944L23.4587 20.4179ZM43.614 20.346C43.6808 20.4731 45.5338 23.7394 50.606 32.6695C54.373 39.3017 54.1771 38.9873 54.8585 39.4923C57.1141 41.1636 60.2072 38.7727 58.9877 36.3005C58.9091 36.1411 56.8153 32.4655 54.335 28.1327L49.8254 20.2551L46.6888 20.2416L43.5525 20.2281L43.614 20.346ZM43.2452 43.68C49.0445 44.6867 53.8646 47.0583 58.5146 51.1921C58.6762 51.3356 59.0062 51.6287 59.2483 51.8432C60.502 52.9554 63.4858 56.0249 65.5882 58.3656L65.8224 58.6264H58.271H50.7193L46.6687 51.3837C41.7684 42.6217 42.2745 43.5492 42.3943 43.5492C42.4474 43.5492 42.8302 43.6081 43.2452 43.68Z" fill="#0553F8"/>
<path fill-rule="evenodd" clip-rule="evenodd" d="M34.6084 4.66896C35.7787 4.67689 37.6787 4.67689 38.8303 4.66896C39.9821 4.6613 39.0246 4.65469 36.7025 4.65469C34.3803 4.65469 33.4381 4.6613 34.6084 4.66896ZM29.4185 12.4425C30.2569 12.4504 31.6289 12.4504 32.4677 12.4425C33.3061 12.4343 32.62 12.4277 30.9431 12.4277C29.2659 12.4277 28.5798 12.4343 29.4185 12.4425ZM40.6804 12.4425C41.5498 12.4504 42.9571 12.4504 43.8077 12.4425C44.6586 12.4343 43.9474 12.4279 42.2274 12.4279C40.5075 12.4279 39.8113 12.4343 40.6804 12.4425ZM23.4714 20.216C23.4582 20.2374 24.8149 20.2551 26.4865 20.2551C28.1581 20.2551 29.5148 20.2374 29.5016 20.216C29.4882 20.1943 28.1315 20.1766 26.4865 20.1766C24.8415 20.1766 23.4848 20.1943 23.4714 20.216ZM43.5385 20.216C43.5166 20.2514 45.821 20.2509 48.7165 20.2147C49.333 20.207 48.4256 20.1954 46.7001 20.1888C44.9744 20.1821 43.5519 20.1943 43.5385 20.216ZM23.4019 20.9593C23.4019 21.1458 23.4114 21.2222 23.4231 21.1289C23.4344 21.0357 23.4344 20.8829 23.4231 20.7896C23.4114 20.6964 23.4019 20.7727 23.4019 20.9593ZM56.3923 40.091C56.4715 40.1032 56.589 40.1026 56.6529 40.0905C56.717 40.0781 56.6524 40.0683 56.509 40.0686C56.3657 40.0691 56.3131 40.0791 56.3923 40.091ZM34.6069 43.0661C34.8305 43.0759 35.1824 43.0759 35.3888 43.0661C35.5953 43.0561 35.4126 43.0482 34.9825 43.0482C34.5525 43.0484 34.3835 43.0564 34.6069 43.0661ZM64.2492 48.991C64.2492 49 64.3252 49.0763 64.4184 49.1606L64.5879 49.3139L64.4348 49.1443C64.292 48.9862 64.2492 48.9508 64.2492 48.991ZM7.33152 49.9922C7.20506 50.1212 7.11319 50.2269 7.12745 50.2269C7.1417 50.2269 7.25707 50.1212 7.38379 49.9922C7.51025 49.863 7.60212 49.7573 7.58786 49.7573C7.57361 49.7573 7.45824 49.863 7.33152 49.9922ZM20.7791 50.8692C20.7791 50.8782 20.8554 50.9546 20.9486 51.0389L21.1178 51.1921L20.965 51.0225C20.8221 50.8645 20.7791 50.8291 20.7791 50.8692ZM0 61.1306C0 61.3457 0.00897588 61.4337 0.0203278 61.3261C0.0316798 61.2186 0.0316798 61.0423 0.0203278 60.9348C0.00897588 60.8272 0 60.9152 0 61.1306Z" fill="#95BBFB"/>
<path fill-rule="evenodd" clip-rule="evenodd" d="M36.6639 0.0235607C36.7288 0.0362444 36.8225 0.0357165 36.8724 0.0225043C36.9223 0.00955638 36.8692 -0.000749871 36.7544 4.2858e-05C36.6398 0.000571344 36.5992 0.0111413 36.6639 0.0235607ZM35.4125 2.2691C36.1649 2.27729 37.3962 2.27729 38.1489 2.2691C38.9012 2.26091 38.2856 2.2543 36.7805 2.2543C35.2755 2.2543 34.6598 2.26091 35.4125 2.2691ZM30.8517 10.0426C31.6759 10.0505 33.0246 10.0505 33.8488 10.0426C34.6728 10.0344 33.9985 10.0278 32.3501 10.0278C30.702 10.0278 30.0275 10.0344 30.8517 10.0426ZM39.3252 10.0426C40.1946 10.0505 41.602 10.0505 42.4526 10.0426C43.3034 10.0344 42.5922 10.0281 40.8723 10.0281C39.152 10.0281 38.4561 10.0347 39.3252 10.0426ZM27.7895 17.777L24.6622 17.8042L27.7734 17.8166C29.8049 17.8248 30.8957 17.8108 30.9169 17.777C30.9346 17.7482 30.9417 17.7302 30.933 17.7371C30.924 17.744 29.5095 17.7619 27.7895 17.777ZM42.1418 17.7902C42.1635 17.8121 43.5872 17.8238 45.3056 17.8164L48.43 17.8029L45.266 17.7767C43.526 17.7625 42.1199 17.7685 42.1418 17.7902ZM59.2601 37.419C59.2606 37.5625 59.2706 37.6151 59.2828 37.5358C59.2946 37.4565 59.2944 37.3389 59.282 37.275C59.2696 37.2108 59.2598 37.2755 59.2601 37.419ZM33.6664 43.0653C33.7739 43.0767 33.9497 43.0767 34.0571 43.0653C34.1646 43.054 34.0767 43.045 33.8618 43.045C33.6466 43.045 33.5587 43.054 33.6664 43.0653ZM65.0308 49.7737C65.0308 49.7827 65.1071 49.859 65.2003 49.9433L65.3695 50.0963L65.2164 49.9269C65.0739 49.7689 65.0308 49.7332 65.0308 49.7737ZM60.0249 52.5876C60.2408 52.818 60.2878 52.8592 60.2878 52.8201C60.2878 52.8117 60.1764 52.7002 60.0402 52.5723L59.7926 52.3397L60.0249 52.5876ZM10.5111 54.6352C10.3843 54.7644 10.2925 54.8701 10.307 54.8701C10.3212 54.8701 10.4366 54.7644 10.5631 54.6352C10.6898 54.5063 10.7817 54.4006 10.7671 54.4006C10.7529 54.4006 10.6375 54.5063 10.5111 54.6352ZM62.4508 55.0266C62.592 55.17 62.7192 55.2874 62.7335 55.2874C62.7478 55.2874 62.644 55.17 62.503 55.0266C62.3618 54.8831 62.2345 54.7658 62.22 54.7658C62.2058 54.7658 62.3095 54.8831 62.4508 55.0266ZM7.22717 58.6393C7.22717 58.661 9.95402 58.6729 13.2865 58.666C16.6189 58.6591 18.3724 58.6475 17.1826 58.6401C11.4847 58.6041 7.22717 58.6039 7.22717 58.6393Z" fill="#74A4FC"/>
</svg>
