<svg width="40" height="40" viewBox="0 0 40 40" fill="none" xmlns="http://www.w3.org/2000/svg">
<path d="M32.1406 9.64062L9.64062 32.1406C9.4017 32.3716 9.08235 32.5008 8.75 32.5008C8.41764 32.5008 8.0983 32.3716 7.85937 32.1406C7.62464 31.9036 7.49296 31.5836 7.49296 31.25C7.49296 30.9164 7.62464 30.5964 7.85937 30.3594L30.3594 7.85937C30.6022 7.66004 30.9106 7.55818 31.2244 7.57359C31.5382 7.589 31.8351 7.72059 32.0572 7.94276C32.2794 8.16493 32.411 8.46179 32.4264 8.77561C32.4418 9.08942 32.34 9.39775 32.1406 9.64062ZM7.89062 15.8594C6.83913 14.7999 6.24908 13.3677 6.24908 11.875C6.24908 10.3823 6.83913 8.95011 7.89062 7.89062C8.95011 6.83913 10.3823 6.24908 11.875 6.24908C13.3677 6.24908 14.7999 6.83913 15.8594 7.89062C16.8378 8.96269 17.3654 10.3707 17.3323 11.8218C17.2992 13.2728 16.708 14.6553 15.6816 15.6816C14.6553 16.708 13.2728 17.2992 11.8218 17.3323C10.3707 17.3654 8.96269 16.8378 7.89062 15.8594ZM8.75 11.875C8.74914 12.2851 8.83025 12.6913 8.98856 13.0696C9.14687 13.4479 9.37919 13.7908 9.67187 14.0781C9.96077 14.3682 10.3041 14.5984 10.6822 14.7554C11.0602 14.9125 11.4656 14.9933 11.875 14.9933C12.2844 14.9933 12.6898 14.9125 13.0678 14.7554C13.4459 14.5984 13.7892 14.3682 14.0781 14.0781C14.3701 13.7903 14.6019 13.4473 14.7602 13.0691C14.9184 12.6909 14.9999 12.285 14.9999 11.875C14.9999 11.465 14.9184 11.0591 14.7602 10.6809C14.6019 10.3027 14.3701 9.9597 14.0781 9.67187C13.7903 9.37991 13.4473 9.14808 13.0691 8.98984C12.6909 8.8316 12.285 8.75011 11.875 8.75011C11.465 8.75011 11.0591 8.8316 10.6809 8.98984C10.3027 9.14808 9.9597 9.37991 9.67187 9.67187C9.37919 9.95916 9.14687 10.302 8.98856 10.6804C8.83025 11.0587 8.74914 11.4649 8.75 11.875ZM33.75 28.125C33.7477 29.049 33.5178 29.9583 33.0807 30.7724C32.6435 31.5864 32.0125 32.2803 31.2435 32.7926C30.4745 33.3049 29.5911 33.6198 28.6714 33.7096C27.7517 33.7993 26.8241 33.6611 25.9706 33.3072C25.117 32.9533 24.3637 32.3945 23.7774 31.6804C23.1911 30.9662 22.7898 30.1185 22.6089 29.2124C22.428 28.3062 22.4731 27.3694 22.7402 26.4849C23.0074 25.6003 23.4884 24.7952 24.1406 24.1406C25.2001 23.0891 26.6323 22.4991 28.125 22.4991C29.6177 22.4991 31.0499 23.0891 32.1094 24.1406C32.632 24.6638 33.046 25.2852 33.3275 25.969C33.6091 26.6528 33.7527 27.3855 33.75 28.125ZM31.25 28.125C31.2509 27.7149 31.1697 27.3087 31.0114 26.9304C30.8531 26.552 30.6208 26.2092 30.3281 25.9219C30.0403 25.6299 29.6973 25.3981 29.3191 25.2398C28.9409 25.0816 28.535 25.0001 28.125 25.0001C27.715 25.0001 27.3091 25.0816 26.9309 25.2398C26.5527 25.3981 26.2097 25.6299 25.9219 25.9219C25.5652 26.2851 25.3033 26.7304 25.1589 27.2186C25.0146 27.7068 24.9923 28.223 25.0941 28.7218C25.1959 29.2206 25.4186 29.6867 25.7426 30.0794C26.0667 30.472 26.4821 30.7791 26.9526 30.9736C27.423 31.1681 27.934 31.2441 28.4407 31.195C28.9474 31.1459 29.4343 30.9731 29.8587 30.6919C30.283 30.4106 30.6318 30.0294 30.8743 29.5819C31.1169 29.1343 31.2459 28.6341 31.25 28.125Z" fill="#0055FF"/>
</svg>
