<svg width="60" height="60" viewBox="0 0 60 60" fill="none" xmlns="http://www.w3.org/2000/svg">
<g clip-path="url(#clip0_802_219)">
<path d="M50.625 16.875H13.125C12.6277 16.875 12.1508 16.6775 11.7992 16.3258C11.4475 15.9742 11.25 15.4973 11.25 15C11.25 14.5027 11.4475 14.0258 11.7992 13.6742C12.1508 13.3225 12.6277 13.125 13.125 13.125H45C45.4973 13.125 45.9742 12.9275 46.3258 12.5758C46.6775 12.2242 46.875 11.7473 46.875 11.25C46.875 10.7527 46.6775 10.2758 46.3258 9.92418C45.9742 9.57254 45.4973 9.375 45 9.375H13.125C11.6351 9.38117 10.2079 9.97578 9.15434 11.0293C8.10078 12.0829 7.50617 13.5101 7.5 15V45C7.50617 46.4899 8.10078 47.9171 9.15434 48.9707C10.2079 50.0242 11.6351 50.6188 13.125 50.625H50.625C51.6196 50.625 52.5734 50.2299 53.2766 49.5266C53.9799 48.8234 54.375 47.8696 54.375 46.875V20.625C54.375 19.6304 53.9799 18.6766 53.2766 17.9734C52.5734 17.2701 51.6196 16.875 50.625 16.875ZM42.1875 36.5625C41.6312 36.5625 41.0875 36.3975 40.625 36.0885C40.1624 35.7795 39.802 35.3402 39.5891 34.8263C39.3762 34.3124 39.3205 33.7469 39.429 33.2013C39.5376 32.6557 39.8054 32.1546 40.1988 31.7613C40.5921 31.3679 41.0932 31.1001 41.6388 30.9915C42.1844 30.883 42.7499 30.9387 43.2638 31.1516C43.7777 31.3645 44.217 31.7249 44.526 32.1875C44.835 32.65 45 33.1937 45 33.75C45 34.4959 44.7037 35.2113 44.1762 35.7387C43.6488 36.2662 42.9334 36.5625 42.1875 36.5625Z" fill="#0055FF"/>
<g filter="url(#filter0_b_802_219)">
<rect x="1" y="28" width="61" height="41" rx="2" fill="#0055FF" fill-opacity="0.16"/>
</g>
</g>
<defs>
<filter id="filter0_b_802_219" x="-6" y="21" width="75" height="55" filterUnits="userSpaceOnUse" color-interpolation-filters="sRGB">
<feFlood flood-opacity="0" result="BackgroundImageFix"/>
<feGaussianBlur in="BackgroundImageFix" stdDeviation="3.5"/>
<feComposite in2="SourceAlpha" operator="in" result="effect1_backgroundBlur_802_219"/>
<feBlend mode="normal" in="SourceGraphic" in2="effect1_backgroundBlur_802_219" result="shape"/>
</filter>
<clipPath id="clip0_802_219">
<rect width="60" height="60" fill="white"/>
</clipPath>
</defs>
</svg>
