<svg width="30" height="30" fill="none" xmlns="http://www.w3.org/2000/svg"><path d="M11.707 13.352a13.195 13.195 0 0 0 4.94 4.94l1.106-1.547a1.25 1.25 0 0 1 1.617-.37 14.277 14.277 0 0 0 5.729 1.705 1.25 1.25 0 0 1 1.151 1.246v5.578a1.25 1.25 0 0 1-1.122 1.244c-.666.068-1.334.102-2.003.102-10.7 0-19.375-8.675-19.375-19.375 0-.673.034-1.34.103-2.003A1.25 1.25 0 0 1 5.096 3.75h5.578a1.25 1.25 0 0 1 1.246 1.151c.158 2.009.739 3.961 1.705 5.729a1.25 1.25 0 0 1-.37 1.617l-1.548 1.105zm-3.152-.82 2.375-1.697A16.763 16.763 0 0 1 9.559 6.25H6.263c-.008.207-.012.416-.012.625-.001 9.32 7.554 16.875 16.874 16.875.209 0 .418-.004.625-.012V20.44a16.761 16.761 0 0 1-4.585-1.371l-1.696 2.375a15.545 15.545 0 0 1-1.985-.938l-.073-.04a15.694 15.694 0 0 1-5.877-5.878l-.042-.073a15.543 15.543 0 0 1-.937-1.985z" fill="#05F"/></svg>