<svg width="67" height="67" fill="none" xmlns="http://www.w3.org/2000/svg"><circle cx="33.201" cy="33.494" r="33.201" fill="#05F"/><path d="M30.187 31.828a12.315 12.315 0 0 0 4.61 4.61l1.032-1.444a1.166 1.166 0 0 1 1.51-.345 13.326 13.326 0 0 0 5.346 1.591 1.166 1.166 0 0 1 1.075 1.163v5.206a1.167 1.167 0 0 1-1.048 1.161c-.62.064-1.245.096-1.869.096-9.987 0-18.083-8.097-18.083-18.084 0-.627.031-1.25.095-1.869a1.166 1.166 0 0 1 1.161-1.047h5.206a1.167 1.167 0 0 1 1.163 1.074c.147 1.875.69 3.697 1.591 5.347a1.167 1.167 0 0 1-.345 1.51l-1.444 1.031zm-2.943-.767 2.217-1.583c-.629-1.358-1.06-2.799-1.28-4.279h-3.076c-.007.194-.01.388-.01.583-.002 8.699 7.05 15.75 15.748 15.75.195 0 .39-.003.583-.011v-3.077a15.65 15.65 0 0 1-4.279-1.28l-1.583 2.217a14.493 14.493 0 0 1-1.853-.875l-.067-.038a14.65 14.65 0 0 1-5.486-5.486l-.039-.068a14.528 14.528 0 0 1-.875-1.853z" fill="#fff"/></svg>