<svg width="34" height="34" viewBox="0 0 34 34" fill="none" xmlns="http://www.w3.org/2000/svg">
<path d="M15.1026 15.1025V8.53844H18.3847V15.1025H24.9488V18.3846H18.3847V24.9487H15.1026V18.3846H8.5385V15.1025H15.1026ZM16.7436 33.1538C7.68025 33.1538 0.333374 25.807 0.333374 16.7436C0.333374 7.68019 7.68025 0.333313 16.7436 0.333313C25.807 0.333313 33.1539 7.68019 33.1539 16.7436C33.1539 25.807 25.807 33.1538 16.7436 33.1538ZM16.7436 29.8718C20.2254 29.8718 23.5647 28.4886 26.0267 26.0266C28.4887 23.5646 29.8718 20.2254 29.8718 16.7436C29.8718 13.2618 28.4887 9.92254 26.0267 7.46053C23.5647 4.99851 20.2254 3.61536 16.7436 3.61536C13.2618 3.61536 9.9226 4.99851 7.46059 7.46053C4.99857 9.92254 3.61543 13.2618 3.61543 16.7436C3.61543 20.2254 4.99857 23.5646 7.46059 26.0266C9.9226 28.4886 13.2618 29.8718 16.7436 29.8718Z" fill="url(#paint0_linear_748_463)"/>
<defs>
<linearGradient id="paint0_linear_748_463" x1="16.7436" y1="0.333313" x2="16.7436" y2="33.1538" gradientUnits="userSpaceOnUse">
<stop stop-color="#FE983F"/>
<stop offset="1" stop-color="#FF551F"/>
</linearGradient>
</defs>
</svg>
