<svg width="20" height="18" fill="none" xmlns="http://www.w3.org/2000/svg"><path d="M18.554 1.326a1.707 1.707 0 0 0-1.732-.27L1.888 7.086a1.703 1.703 0 0 0 .087 3.18l3.02 1.052 1.684 5.568a.831.831 0 0 0 .1.21c.006.01.015.017.022.027a.823.823 0 0 0 .234.221c.079.053.166.091.258.114h.011l.005.003a.85.85 0 0 0 .17.017l.014-.003a.827.827 0 0 0 .251-.043c.02-.007.035-.017.053-.025a.827.827 0 0 0 .171-.095l.127-.108 2.252-2.486 3.358 2.602c.296.23.66.356 1.034.356a1.711 1.711 0 0 0 1.673-1.36l2.72-13.348a1.692 1.692 0 0 0-.578-1.642zM7.808 11.583a.828.828 0 0 0-.226.421l-.259 1.254-.653-2.161 3.387-1.764-2.249 2.25zm6.919 4.42-3.97-3.075a.834.834 0 0 0-1.127.1l-.722.795.255-1.239 5.903-5.902a.833.833 0 0 0-.974-1.328L5.62 9.764 2.517 8.63l14.982-5.993-2.772 13.367z" fill="#05F"/></svg>