<svg width="20" height="17" fill="none" xmlns="http://www.w3.org/2000/svg"><path d="M19.16 1.594A.833.833 0 0 0 17.9.878a6.234 6.234 0 0 1-1.56.661A4.294 4.294 0 0 0 13.527.504a4.36 4.36 0 0 0-4.353 4.22 9.193 9.193 0 0 1-5.678-3.27.843.843 0 0 0-.714-.305.833.833 0 0 0-.655.417 4.397 4.397 0 0 0-.201 3.974l-.002.001a.867.867 0 0 0-.413.742c-.002.122.006.244.022.366a4.32 4.32 0 0 0 1.307 2.76.832.832 0 0 0-.055.641 4.337 4.337 0 0 0 1.968 2.435 6.222 6.222 0 0 1-2.991.374.833.833 0 0 0-.555 1.527 10.785 10.785 0 0 0 5.842 1.718A10.658 10.658 0 0 0 17.438 8.3c.294-.986.444-2.01.445-3.038v-.167a4.808 4.808 0 0 0 1.276-3.502zm-2.756 2.677a.829.829 0 0 0-.195.585c.009.138.008.276.008.407a9.019 9.019 0 0 1-.379 2.566 8.904 8.904 0 0 1-8.788 6.609 9.113 9.113 0 0 1-2.125-.251 7.9 7.9 0 0 0 2.452-1.303.833.833 0 0 0-.502-1.489 2.674 2.674 0 0 1-1.845-.779c.125-.023.248-.052.37-.087a.834.834 0 0 0-.066-1.62A2.665 2.665 0 0 1 3.46 7.471c.15.02.302.033.454.038a.85.85 0 0 0 .82-.58.833.833 0 0 0-.333-.947 2.663 2.663 0 0 1-1.182-2.393 10.845 10.845 0 0 0 6.841 2.9.85.85 0 0 0 .681-.3.834.834 0 0 0 .172-.722 2.623 2.623 0 0 1-.073-.608 2.692 2.692 0 0 1 3.755-2.468c.336.147.639.361.888.63a.827.827 0 0 0 .767.248 7.73 7.73 0 0 0 1.01-.268 5.57 5.57 0 0 1-.855 1.27z" fill="#05F"/></svg>