<svg width="50" height="31" viewBox="0 0 50 31" fill="none" xmlns="http://www.w3.org/2000/svg">
<path d="M18.0622 3.27237H31.4495V27.327H18.0622V3.27237Z" fill="#FF5F00"/>
<path d="M18.9123 15.2998C18.9123 10.4124 21.2072 6.0774 24.7346 3.27237C22.1423 1.23244 18.8699 0 15.3 0C6.84231 0 0 6.84231 0 15.2998C0 23.7571 6.84231 30.5996 15.2998 30.5996C18.8697 30.5996 22.1421 29.3672 24.7346 27.327C21.2072 24.5646 18.9123 20.1872 18.9123 15.2998Z" fill="#EB001B"/>
<path d="M49.5117 15.2998C49.5117 23.7571 42.6694 30.5996 34.2119 30.5996C30.642 30.5996 27.3696 29.3672 24.7772 27.327C28.3471 24.5222 30.5996 20.1872 30.5996 15.2998C30.5996 10.4124 28.3045 6.0774 24.7772 3.27237C27.3694 1.23244 30.642 0 34.2119 0C42.6694 0 49.5117 6.8849 49.5117 15.2998Z" fill="#F79E1B"/>
</svg>
