<svg width="18" height="18" fill="none" xmlns="http://www.w3.org/2000/svg"><path d="M12.833 10.97c-.166-.084-1.25-.584-1.416-.667-.167-.084-.334-.084-.5.083-.167.167-.5.667-.667.833-.083.167-.25.167-.417.084a6.815 6.815 0 0 1-1.666-1A9.595 9.595 0 0 1 7 8.886c-.083-.167 0-.333.083-.417.084-.083.167-.25.334-.333.083-.083.166-.25.166-.333a.253.253 0 0 0 0-.334c-.083-.083-.5-1.083-.666-1.5-.084-.583-.25-.583-.417-.583h-.417c-.166 0-.416.167-.5.25-.5.5-.75 1.083-.75 1.75.084.75.334 1.5.834 2.167.916 1.333 2.083 2.416 3.5 3.083.416.167.75.333 1.166.417.417.166.834.166 1.334.083.583-.083 1.083-.5 1.416-1 .167-.333.167-.667.084-1l-.334-.167zm2.084-7.584a8.299 8.299 0 0 0-11.75 0C.5 6.053 0 10.136 1.833 13.386l-1.166 4.25 4.416-1.167c1.25.667 2.584 1 3.917 1a8.216 8.216 0 0 0 8.25-8.25c.083-2.166-.833-4.25-2.333-5.833zm-2.25 11.667c-1.084.666-2.334 1.083-3.667 1.083-1.25 0-2.417-.333-3.5-.917l-.25-.166-2.583.666.666-2.5-.166-.25c-2-3.333-1-7.5 2.25-9.583s7.416-1 9.416 2.167c2 3.25 1.084 7.5-2.166 9.5z" fill="#05F"/></svg>